<?xml version="1.0" encoding="UTF-8" standalone="no"?>
<!-- Created with Inkscape (http://www.inkscape.org/) -->

<svg
   width="400"
   height="400"
   viewBox="0 0 400 400"
   version="1.1"
   id="svg1"
   inkscape:version="1.4.1 (1:1.4.1+202503302257+93de688d07)"
   sodipodi:docname="access.svg"
   inkscape:export-filename="maker.png"
   inkscape:export-xdpi="96"
   inkscape:export-ydpi="96"
   xml:space="preserve"
   xmlns:inkscape="http://www.inkscape.org/namespaces/inkscape"
   xmlns:sodipodi="http://sodipodi.sourceforge.net/DTD/sodipodi-0.dtd"
   xmlns="http://www.w3.org/2000/svg"
   xmlns:svg="http://www.w3.org/2000/svg"><sodipodi:namedview
     id="namedview1"
     pagecolor="#ffffff"
     bordercolor="#000000"
     borderopacity="0.25"
     inkscape:showpageshadow="2"
     inkscape:pageopacity="0.0"
     inkscape:pagecheckerboard="0"
     inkscape:deskcolor="#d1d1d1"
     inkscape:document-units="px"
     showgrid="true"
     inkscape:zoom="5.6568544"
     inkscape:cx="222.2083"
     inkscape:cy="201.96737"
     inkscape:window-width="1920"
     inkscape:window-height="1011"
     inkscape:window-x="1920"
     inkscape:window-y="32"
     inkscape:window-maximized="1"
     inkscape:current-layer="layer1"><inkscape:grid
       id="grid1"
       units="px"
       originx="0"
       originy="0"
       spacingx="1"
       spacingy="1"
       empcolor="#0099e5"
       empopacity="0.30196078"
       color="#0099e5"
       opacity="0.14901961"
       empspacing="5"
       enabled="true"
       visible="true" /></sodipodi:namedview><defs
     id="defs1" /><g
     inkscape:label="Layer 1"
     inkscape:groupmode="layer"
     id="layer1"><g
       id="g3"
       transform="translate(62.440414,-32.714691)"><path
         fill="#fff"
         d="m 275.43563,100.94636 a 103.92337,103.92337 0 0 0 -25.92403,-7.975853 71.219386,71.219386 0 0 0 -3.3208,6.750322 96.540517,96.540517 0 0 0 -28.77041,0 71.52577,71.52577 0 0 0 -3.3208,-6.750322 104.65474,104.65474 0 0 0 -25.94378,7.995623 c -16.40636,24.2735 -20.85387,47.9441 -18.63011,71.27869 v 0 a 104.49661,104.49661 0 0 0 31.79472,15.96159 76.793593,76.793593 0 0 0 6.80964,-10.9804 67.621848,67.621848 0 0 1 -10.72344,-5.11956 c 0.89937,-0.65231 1.77899,-1.32436 2.62896,-1.97667 a 74.68844,74.68844 0 0 0 63.56968,0 c 0.85986,0.70171 1.73948,1.37379 2.62898,1.97667 a 67.878815,67.878815 0 0 1 -10.7432,5.12945 76.101758,76.101758 0 0 0 6.80963,10.97051 104.02221,104.02221 0 0 0 31.8145,-15.95171 v 0 c 2.60919,-27.06059 -4.45742,-50.51378 -18.67954,-71.30834 z m -64.48882,56.94783 c -6.19687,0 -11.31643,-5.62362 -11.31643,-12.54196 0,-6.91835 4.94167,-12.59137 11.29666,-12.59137 6.35498,0 11.43502,5.67302 11.32631,12.59137 -0.10869,6.91834 -4.9911,12.54196 -11.30654,12.54196 z m 41.74725,0 c -6.20675,0 -11.30657,-5.62362 -11.30657,-12.54196 0,-6.91835 4.94168,-12.59137 11.30657,-12.59137 6.36487,0 11.40537,5.67302 11.29666,12.59137 -0.1087,6.91834 -4.98122,12.54196 -11.29666,12.54196 z"
         id="path1-5"
         style="fill:#b1b1b1;fill-opacity:1;stroke-width:0.988335" /><rect
         style="fill:#afafaf;stroke-width:1.28248"
         id="rect1"
         width="10.471427"
         height="31.41428"
         x="27.484818"
         y="174.67223" /><rect
         style="fill:#afafaf;stroke-width:2.09429"
         id="rect1-2"
         width="10.471427"
         height="83.771416"
         x="27.484818"
         y="206.0865" /><rect
         style="fill:#afafaf;stroke-width:1.77552"
         id="rect1-1"
         width="10.471427"
         height="60.210701"
         x="115.81905"
         y="-224.3952"
         transform="rotate(135)" /><rect
         style="fill:#afafaf;stroke-width:1.77552"
         id="rect1-1-5"
         width="10.471427"
         height="60.210701"
         x="175.05438"
         y="-284.11819"
         transform="rotate(135)" /><rect
         style="fill:#afafaf;stroke-width:1.77552"
         id="rect1-1-5-9"
         width="10.471427"
         height="60.210701"
         x="-77.119759"
         y="-384.89474"
         transform="scale(-1)" /><rect
         style="fill:#afafaf;stroke-width:1.77552"
         id="rect1-1-5-2"
         width="10.471427"
         height="60.210701"
         x="219.25958"
         y="-239.91304"
         transform="matrix(0.70710678,0.70710678,0.70710678,-0.70710678,0,0)" /><rect
         style="fill:#afafaf;stroke-width:1.77552"
         id="rect1-1-5-9-9"
         width="10.471427"
         height="60.210701"
         x="-14.604242"
         y="-384.89474"
         transform="scale(1,-1)" /><rect
         style="fill:#afafaf;stroke-width:1.77552"
         id="rect1-1-6"
         width="10.471427"
         height="60.210701"
         x="246.50262"
         y="3.2106066"
         transform="matrix(0.25881905,0.96592583,0.96592583,-0.25881905,0,0)" /><rect
         style="fill:#afafaf;stroke-width:1.77552"
         id="rect1-1-7"
         width="10.471427"
         height="60.210701"
         x="-201.28706"
         y="-132.71881"
         transform="rotate(-120)" /><rect
         style="fill:#afafaf;stroke-width:1.77552"
         id="rect1-1-6-8"
         width="10.471427"
         height="60.210701"
         x="8.5554981"
         y="231.9944"
         transform="scale(-1,1)" /><circle
         style="fill:#afafaf;stroke-width:2.09429"
         id="path2"
         cx="37.956245"
         cy="132.78651"
         r="52.357132" /><rect
         style="fill:#afafaf;stroke-width:1.28463"
         id="rect1-6"
         width="10.471427"
         height="31.519512"
         x="-236.76295"
         y="174.67223"
         transform="scale(-1,1)" /><rect
         style="fill:#afafaf;stroke-width:2.09429"
         id="rect1-2-1"
         width="10.471427"
         height="83.771416"
         x="-236.76295"
         y="206.19173"
         transform="scale(-1,1)" /><rect
         style="fill:#afafaf;stroke-width:1.77552"
         id="rect1-1-0"
         width="10.471426"
         height="60.210701"
         x="302.74484"
         y="-37.618221"
         transform="matrix(0.70710678,0.70710678,0.70710678,-0.70710678,0,0)" /><rect
         style="fill:#afafaf;stroke-width:1.77552"
         id="rect1-1-5-6"
         width="10.471426"
         height="60.210701"
         x="361.98019"
         y="-97.341202"
         transform="matrix(0.70710678,0.70710678,0.70710678,-0.70710678,0,0)" /><rect
         style="fill:#afafaf;stroke-width:1.77552"
         id="rect1-1-5-9-3"
         width="10.471427"
         height="60.210701"
         x="187.12802"
         y="-385"
         transform="scale(1,-1)" /><rect
         style="fill:#afafaf;stroke-width:1.77552"
         id="rect1-1-5-2-2"
         width="10.471427"
         height="60.210701"
         x="32.482594"
         y="-426.83887"
         transform="rotate(135)" /><rect
         style="fill:#afafaf;stroke-width:1.77552"
         id="rect1-1-5-9-9-0"
         width="10.471427"
         height="60.210701"
         x="-278.85199"
         y="-385"
         transform="scale(-1)" /><rect
         style="fill:#afafaf;stroke-width:1.77552"
         id="rect1-1-6-6"
         width="10.471427"
         height="60.210701"
         x="178.21194"
         y="-252.06036"
         transform="rotate(105)" /><rect
         style="fill:#afafaf;stroke-width:1.77552"
         id="rect1-1-7-1"
         width="10.471426"
         height="60.210701"
         x="-69.254349"
         y="-361.6167"
         transform="matrix(0.5,-0.8660254,-0.8660254,-0.5,0,0)" /><rect
         style="fill:#afafaf;stroke-width:1.77552"
         id="rect1-1-6-8-5"
         width="10.471427"
         height="60.210701"
         x="272.80328"
         y="232.09962" /></g><path
       id="path3"
       style="fill:#afafaf;stroke-width:1.5"
       d="M 227.5 170 A 7.5 7.5 0 0 0 220 177.5 A 7.5 7.5 0 0 0 227.5 185 A 7.5 7.5 0 0 0 235 177.5 A 7.5 7.5 0 0 0 227.5 170 z M 227.5 175 A 2.5 2.5 0 0 1 230 177.5 A 2.5 2.5 0 0 1 227.5 180 A 2.5 2.5 0 0 1 225 177.5 A 2.5 2.5 0 0 1 227.5 175 z " /><rect
       style="fill:#afafaf;stroke-width:1.14018"
       id="rect3"
       width="26"
       height="5"
       x="195"
       y="175" /><rect
       style="fill:#afafaf"
       id="rect4"
       width="5"
       height="5"
       x="195"
       y="180" /><rect
       style="fill:#afafaf"
       id="rect5"
       width="5"
       height="5"
       x="205"
       y="180" /></g></svg>
