<?xml version="1.0" encoding="UTF-8" standalone="no"?>
<!-- Created with Inkscape (http://www.inkscape.org/) -->

<svg
   width="400"
   height="400"
   viewBox="0 0 400 400"
   version="1.1"
   id="svg1"
   inkscape:version="1.4.1 (1:1.4.1+202503302257+93de688d07)"
   sodipodi:docname="server.svg"
   inkscape:export-filename="maker.png"
   inkscape:export-xdpi="96"
   inkscape:export-ydpi="96"
   xml:space="preserve"
   xmlns:inkscape="http://www.inkscape.org/namespaces/inkscape"
   xmlns:sodipodi="http://sodipodi.sourceforge.net/DTD/sodipodi-0.dtd"
   xmlns="http://www.w3.org/2000/svg"
   xmlns:svg="http://www.w3.org/2000/svg"><sodipodi:namedview
     id="namedview1"
     pagecolor="#ffffff"
     bordercolor="#000000"
     borderopacity="0.25"
     inkscape:showpageshadow="2"
     inkscape:pageopacity="0.0"
     inkscape:pagecheckerboard="0"
     inkscape:deskcolor="#d1d1d1"
     inkscape:document-units="px"
     showgrid="true"
     inkscape:zoom="1.4142136"
     inkscape:cx="126.57211"
     inkscape:cy="213.19269"
     inkscape:window-width="1920"
     inkscape:window-height="1011"
     inkscape:window-x="1920"
     inkscape:window-y="32"
     inkscape:window-maximized="1"
     inkscape:current-layer="layer1"><inkscape:grid
       id="grid1"
       units="px"
       originx="0"
       originy="0"
       spacingx="1"
       spacingy="1"
       empcolor="#0099e5"
       empopacity="0.30196078"
       color="#0099e5"
       opacity="0.14901961"
       empspacing="5"
       enabled="true"
       visible="true" /></sodipodi:namedview><defs
     id="defs1" /><g
     inkscape:label="Layer 1"
     inkscape:groupmode="layer"
     id="layer1"><g
       id="g1"
       transform="translate(-5,68.850444)"><path
         id="rect4"
         style="fill:#afafaf;stroke-width:13.8462;stroke-linecap:round;stroke-linejoin:round"
         d="m 160,32.307693 v 55.384614 h 90 V 32.307693 Z m 6.92308,4.260667 h 76.15384 v 46.863279 h -76.15384 z" /><rect
         style="fill:#afafaf;stroke-width:19.3228;stroke-linecap:round;stroke-linejoin:round"
         id="rect5"
         width="6.9230719"
         height="14.538462"
         x="201.53847"
         y="87.692307" /><rect
         style="fill:#afafaf;stroke-width:23.0951;stroke-linecap:round;stroke-linejoin:round"
         id="rect5-6"
         width="6.9230719"
         height="20.76923"
         x="98.769234"
         y="-215.38461"
         transform="rotate(90)" /></g><g
       id="g2"
       transform="translate(-40,94.465834)"><path
         id="rect4-5"
         style="fill:#afafaf;stroke-width:13.8462;stroke-linecap:round;stroke-linejoin:round"
         d="m 50,160 v 55.38462 h 90 V 160 Z m 6.92308,4.26067 h 76.15384 v 46.86328 H 56.92308 Z" /><rect
         style="fill:#afafaf;stroke-width:19.3228;stroke-linecap:round;stroke-linejoin:round"
         id="rect5-3"
         width="6.9230719"
         height="14.538462"
         x="91.538467"
         y="215.38461" /><rect
         style="fill:#afafaf;stroke-width:23.0951;stroke-linecap:round;stroke-linejoin:round"
         id="rect5-6-5"
         width="6.9230719"
         height="20.76923"
         x="226.46153"
         y="-105.38461"
         transform="rotate(90)" /></g><g
       id="g3"
       transform="translate(12.92893,-5.8428252)"><path
         id="rect4-5-1"
         style="fill:#afafaf;stroke-width:13.8462;stroke-linecap:round;stroke-linejoin:round"
         d="m 287.07107,260.30865 v 55.38462 h 90 v -55.38462 z m 6.92308,4.26067 h 76.15384 v 46.86328 h -76.15384 z" /><rect
         style="fill:#afafaf;stroke-width:19.3228;stroke-linecap:round;stroke-linejoin:round"
         id="rect5-3-2"
         width="6.9230719"
         height="14.538462"
         x="328.60953"
         y="315.69327" /><rect
         style="fill:#afafaf;stroke-width:23.0951;stroke-linecap:round;stroke-linejoin:round"
         id="rect5-6-5-7"
         width="6.9230719"
         height="20.76923"
         x="326.7702"
         y="-342.45569"
         transform="rotate(90)" /></g><g
       id="path3"
       style="opacity:1"><path
         style="baseline-shift:baseline;display:inline;overflow:visible;vector-effect:none;fill:#008000;stroke-linecap:round;stroke-linejoin:round;enable-background:accumulate;stop-color:#000000;stop-opacity:1"
         d="m 187.95117,172.67773 -89.615233,79.92188 a 2.5,2.5 0 0 0 -0.201171,3.5293 2.5,2.5 0 0 0 3.529294,0.20312 L 191.2793,176.4082 a 2.5,2.5 0 0 0 0.20117,-3.52929 2.5,2.5 0 0 0 -3.5293,-0.20118 z"
         id="path13" /><g
         id="g11"><path
           style="baseline-shift:baseline;display:inline;overflow:visible;vector-effect:none;fill:#008000;stroke-linecap:round;enable-background:accumulate;stop-color:#000000;stop-opacity:1;opacity:1"
           d="m 100.41992,231.62305 a 2.5,2.5 0 0 0 -2.63867,2.35351 l -1.353516,23.67383 23.675786,1.35352 a 2.5,2.5 0 0 0 2.63867,-2.35352 2.5,2.5 0 0 0 -2.35352,-2.63867 l -18.68359,-1.06641 1.06836,-18.68359 a 2.5,2.5 0 0 0 -2.35352,-2.63867 z"
           id="path11" /><path
           style="baseline-shift:baseline;display:inline;overflow:visible;vector-effect:none;fill:#008000;stroke-linecap:round;enable-background:accumulate;stop-color:#000000;stop-opacity:1;opacity:1"
           d="m 169.51172,170.00391 a 2.5,2.5 0 0 0 -2.63867,2.35351 2.5,2.5 0 0 0 2.35351,2.63867 l 18.6836,1.06836 -1.06836,18.68164 a 2.5,2.5 0 0 0 2.35351,2.63868 2.5,2.5 0 0 0 2.63867,-2.35352 l 1.35352,-23.67383 z"
           id="path12" /></g></g><g
       id="path5"
       style="opacity:1"><path
         style="baseline-shift:baseline;display:inline;overflow:visible;vector-effect:none;fill:#008000;stroke-linecap:round;stroke-linejoin:round;enable-background:accumulate;stop-color:#000000;stop-opacity:1"
         d="m 210.24219,172.04687 a 2.5,2.5 0 0 0 -1.72266,0.83204 2.5,2.5 0 0 0 0.20117,3.52929 l 89.61524,79.92383 a 2.5,2.5 0 0 0 3.52929,-0.20312 2.5,2.5 0 0 0 -0.20117,-3.5293 l -89.61523,-79.92188 a 2.5,2.5 0 0 0 -1.80664,-0.63086 z"
         id="path10" /><g
         id="g5"><path
           style="baseline-shift:baseline;display:inline;overflow:visible;vector-effect:none;fill:#008000;stroke-linecap:round;enable-background:accumulate;stop-color:#000000;stop-opacity:1;opacity:1"
           d="m 230.48828,170.00391 -23.67578,1.35351 1.35352,23.67383 a 2.5,2.5 0 0 0 2.63867,2.35352 2.5,2.5 0 0 0 2.35351,-2.63868 l -1.06836,-18.68164 18.6836,-1.06836 a 2.5,2.5 0 0 0 2.35351,-2.63867 2.5,2.5 0 0 0 -2.63867,-2.35351 z"
           id="path8" /><path
           style="baseline-shift:baseline;display:inline;overflow:visible;vector-effect:none;fill:#008000;stroke-linecap:round;enable-background:accumulate;stop-color:#000000;stop-opacity:1;opacity:1"
           d="m 299.58008,231.62305 a 2.5,2.5 0 0 0 -2.35352,2.63867 l 1.06836,18.68359 -18.68359,1.06641 a 2.5,2.5 0 0 0 -2.35352,2.63867 2.5,2.5 0 0 0 2.63867,2.35352 l 23.67579,-1.35352 -1.35352,-23.67383 a 2.5,2.5 0 0 0 -2.63867,-2.35351 z"
           id="path9" /></g></g><g
       id="text15-0-75"
       transform="translate(-2.3950126,13.436871)"><path
         style="-inkscape-font-specification:'FiraCode Nerd Font';fill:#afafaf;stroke-linecap:round;stroke-linejoin:round"
         d="m 164.77316,69.56708 q 0,1.790083 -0.88752,3.15897 -0.88752,1.368888 -2.58735,2.151109 -1.68478,0.767179 -4.09162,0.767179 -2.27145,0 -4.1217,-0.691965 -1.83521,-0.691965 -3.14393,-1.955554 l 1.5494,-1.744955 q 1.06803,1.007862 2.46701,1.609571 1.39897,0.586666 3.29435,0.586666 1.26359,0 2.36171,-0.406154 1.09812,-0.421196 1.77504,-1.263588 0.67692,-0.857435 0.67692,-2.166151 0,-0.99282 -0.39111,-1.699827 -0.39111,-0.722051 -1.38393,-1.263589 -0.99282,-0.55658 -2.76786,-1.083075 -2.04581,-0.601709 -3.55008,-1.353845 -1.48923,-0.767178 -2.31658,-1.865297 -0.81231,-1.113161 -0.81231,-2.76786 0,-1.5494 0.85744,-2.752817 0.85743,-1.203418 2.36171,-1.88034 1.51931,-0.691965 3.48991,-0.691965 2.1511,0 3.73059,0.616751 1.59453,0.601709 2.8882,1.744956 l -1.53436,1.699827 q -1.11316,-0.977777 -2.39179,-1.429058 -1.27863,-0.451282 -2.60239,-0.451282 -1.69982,0 -2.91829,0.752136 -1.21846,0.752136 -1.21846,2.301536 0,0.902563 0.48137,1.5494 0.48137,0.631794 1.62462,1.173332 1.14324,0.541537 3.11384,1.113161 1.60957,0.466324 2.97846,1.173332 1.38393,0.691965 2.22632,1.895382 0.84239,1.188375 0.84239,3.174014 z m 6.91966,-1.293674 q 0.1053,2.752817 1.4441,4.016406 1.35385,1.248545 3.18906,1.248545 1.21846,0 2.19624,-0.361025 0.97777,-0.361025 2.03076,-1.068033 l 1.18838,1.669742 q -1.09812,0.872477 -2.52718,1.368887 -1.42906,0.49641 -2.91829,0.49641 -2.31657,0 -3.94119,-1.037948 -1.60957,-1.037947 -2.467,-2.888202 -0.8424,-1.865297 -0.8424,-4.31726 0,-2.406835 0.8424,-4.272132 0.85743,-1.865297 2.40683,-2.93333 1.56444,-1.068032 3.67042,-1.068032 2.99351,0 4.70838,2.075895 1.72991,2.075895 1.72991,5.686147 0,0.406153 -0.0301,0.767178 -0.015,0.361026 -0.0301,0.616752 z m 4.30222,-7.070077 q -1.76,0 -2.94837,1.248545 -1.18838,1.248546 -1.3388,3.865979 h 8.25845 q -0.0451,-2.54222 -1.11316,-3.820851 -1.06804,-1.293673 -2.85812,-1.293673 z m 11.91384,14.095026 v -1.94051 h 2.46701 V 61.398884 h -2.46701 v -1.940511 h 4.39248 l 0.46632,3.745637 q 0.91761,-1.955553 2.22632,-3.023586 1.30872,-1.068033 3.45983,-1.068033 0.66188,0 1.17333,0.105299 0.5265,0.09026 1.06803,0.240683 l -0.36102,5.355208 h -2.0759 v -3.369569 q -0.0602,0 -0.13538,0 -3.64034,0 -5.21982,5.20478 v 6.709053 h 3.21914 v 1.94051 z m 31.10836,-15.839982 -5.76136,15.839982 h -2.93333 l -5.71624,-15.839982 h 2.67761 l 4.58803,13.538446 4.52785,-13.538446 z m 6.8294,8.815033 q 0.1053,2.752817 1.4441,4.016406 1.35385,1.248545 3.18906,1.248545 1.21846,0 2.19624,-0.361025 0.97777,-0.361025 2.03076,-1.068033 l 1.18838,1.669742 q -1.09812,0.872477 -2.52718,1.368887 -1.42906,0.49641 -2.91829,0.49641 -2.31657,0 -3.94119,-1.037948 -1.60957,-1.037947 -2.467,-2.888202 -0.8424,-1.865297 -0.8424,-4.31726 0,-2.406835 0.8424,-4.272132 0.85743,-1.865297 2.40683,-2.93333 1.56444,-1.068032 3.67042,-1.068032 2.99351,0 4.70838,2.075895 1.72991,2.075895 1.72991,5.686147 0,0.406153 -0.0301,0.767178 -0.015,0.361026 -0.0301,0.616752 z m 4.30222,-7.070077 q -1.76,0 -2.94837,1.248545 -1.18838,1.248546 -1.3388,3.865979 h 8.25845 q -0.0451,-2.54222 -1.11316,-3.820851 -1.06804,-1.293673 -2.85812,-1.293673 z m 11.91384,14.095026 v -1.94051 h 2.46701 V 61.398884 h -2.46701 v -1.940511 h 4.39247 l 0.46633,3.745637 q 0.9176,-1.955553 2.22632,-3.023586 1.30872,-1.068033 3.45983,-1.068033 0.66188,0 1.17333,0.105299 0.52649,0.09026 1.06803,0.240683 l -0.36102,5.355208 h -2.0759 v -3.369569 q -0.0602,0 -0.13538,0 -3.64034,0 -5.21983,5.20478 v 6.709053 h 3.21914 v 1.94051 z"
         id="path31" /><path
         style="-inkscape-font-specification:'FiraCode Nerd Font';fill:#afafaf;stroke-linecap:round;stroke-linejoin:round"
         d="m 157.55273,53.253906 c -1.42926,0 -2.74001,0.251535 -3.90039,0.779297 -1.14024,0.513106 -2.08505,1.257696 -2.76562,2.212891 -0.68932,0.967458 -1.04297,2.114631 -1.04297,3.332031 0,1.26677 0.32329,2.424725 1.00391,3.357422 a 1.0001,1.0001 0 0 0 0.01,0.01367 c 0.65774,0.873001 1.55778,1.586463 2.65625,2.152343 a 1.0001,1.0001 0 0 0 0.0117,0.0039 c 1.06914,0.534571 2.30526,1.005817 3.71289,1.419922 1.13999,0.338132 2.00504,0.683578 2.5625,0.996093 a 1.0001,1.0001 0 0 0 0.0117,0.0059 c 0.54632,0.297991 0.84059,0.599489 0.98242,0.861328 a 1.0001,1.0001 0 0 0 0.004,0.0078 c 0.16476,0.297848 0.26758,0.684277 0.26758,1.214844 0,0.699253 -0.16559,1.167735 -0.46289,1.544922 -0.33534,0.415432 -0.76051,0.724748 -1.34375,0.949219 -0.61301,0.225718 -1.27545,0.341797 -2.00782,0.341797 -1.15814,0 -2.11906,-0.180213 -2.90234,-0.507813 -0.82914,-0.357287 -1.54742,-0.824788 -2.17188,-1.414062 a 1.0001,1.0001 0 0 0 -1.43554,0.0625 l -1.54883,1.74414 a 1.0001,1.0001 0 0 0 0.0527,1.384766 c 0.9749,0.941274 2.14826,1.667357 3.48633,2.171875 a 1.0001,1.0001 0 0 0 0.002,0 c 1.35926,0.50834 2.85682,0.755859 4.47266,0.755859 1.71081,0 3.21922,-0.27154 4.50586,-0.857422 a 1.0001,1.0001 0 0 0 0.004,-0.002 c 1.27442,-0.586457 2.30489,-1.431465 3.00781,-2.515625 0.69992,-1.079545 1.04883,-2.34447 1.04883,-3.703125 0,-1.462457 -0.31269,-2.740322 -1.02344,-3.746094 l -0.002,-0.002 c -0.6568,-0.937453 -1.53831,-1.684673 -2.59375,-2.21289 -0.9724,-0.501426 -2.02388,-0.915815 -3.15039,-1.242188 -1.28228,-0.371958 -2.2786,-0.732501 -2.96289,-1.05664 -0.67337,-0.318962 -1.07997,-0.645929 -1.25391,-0.873047 -0.18492,-0.250858 -0.28125,-0.524813 -0.28125,-0.945313 0,-0.770797 0.193,-1.110963 0.74414,-1.451172 0.63545,-0.392249 1.40686,-0.601562 2.39258,-0.601562 0.76887,0 1.51924,0.12777 2.26953,0.392578 0.72456,0.255727 1.40767,0.661374 2.06445,1.238281 a 1.0001,1.0001 0 0 0 1.40235,-0.08203 l 1.53515,-1.699219 a 1.0001,1.0001 0 0 0 -0.0801,-1.419922 c -0.94818,-0.837937 -2.01883,-1.482385 -3.1914,-1.925781 -1.19548,-0.466217 -2.56163,-0.685547 -4.08985,-0.685547 z m 0,2 c 1.3385,0 2.45747,0.193606 3.36719,0.548828 a 1.0001,1.0001 0 0 0 0.01,0.0039 c 0.62605,0.236247 1.15228,0.649828 1.69922,1.02539 l -0.19727,0.216797 c -0.59947,-0.416332 -1.18516,-0.869579 -1.85352,-1.105469 -0.95455,-0.336901 -1.9394,-0.507812 -2.93554,-0.507812 -1.28071,0 -2.45418,0.289791 -3.44336,0.90039 -1.07348,0.66264 -1.69336,1.857275 -1.69336,3.152344 0,0.779488 0.22578,1.536552 0.67969,2.146485 a 1.0001,1.0001 0 0 0 0.006,0.0098 c 0.46873,0.615203 1.14312,1.068516 1.99218,1.470703 0.84003,0.39791 1.91849,0.779715 3.26368,1.169922 1.01608,0.294379 1.94857,0.662421 2.79882,1.101563 a 1.0001,1.0001 0 0 0 0.0117,0.0059 c 0.78781,0.393904 1.38782,0.908938 1.85352,1.574219 a 1.0001,1.0001 0 0 0 0.004,0.0039 c 0.40964,0.577876 0.65821,1.413358 0.65821,2.595703 0,1.028123 -0.24313,1.869597 -0.72657,2.615235 -0.47971,0.739901 -1.17249,1.328942 -2.1621,1.785156 -5e-4,2.24e-4 -0.001,-2.24e-4 -0.002,0 -0.95951,0.436598 -2.17824,0.677734 -3.67578,0.677734 -1.41275,0 -2.66374,-0.214626 -3.77148,-0.628906 -0.78077,-0.294652 -1.36666,-0.769464 -1.97461,-1.224609 l 0.21679,-0.242188 c 0.59945,0.449178 1.17817,0.926556 1.88477,1.230469 a 1.0001,1.0001 0 0 0 0.008,0.0039 c 1.08118,0.453398 2.31488,0.664063 3.68164,0.664063 0.94954,0 1.85986,-0.152738 2.70899,-0.466797 a 1.0001,1.0001 0 0 0 0.01,-0.0039 c 0.87606,-0.336022 1.63158,-0.868291 2.19727,-1.572265 a 1.0001,1.0001 0 0 0 0.006,-0.0059 c 0.6046,-0.765834 0.89258,-1.742218 0.89258,-2.787109 0,-0.791018 -0.16097,-1.534121 -0.51563,-2.177734 -0.37892,-0.698154 -1.00322,-1.23506 -1.77734,-1.658203 -0.76564,-0.428556 -1.74244,-0.80481 -2.9668,-1.167969 a 1.0001,1.0001 0 0 0 -0.002,-0.002 c -1.31549,-0.386908 -2.44054,-0.816735 -3.375,-1.283203 -0.8847,-0.455755 -1.5235,-0.985042 -1.96875,-1.574219 -0.39909,-0.550289 -0.61719,-1.234543 -0.61719,-2.169922 0,-0.848466 0.21794,-1.534777 0.67187,-2.171875 0.46267,-0.649363 1.09157,-1.159372 1.95704,-1.548828 a 1.0001,1.0001 0 0 0 0.004,-0.002 c 0.86446,-0.393716 1.87949,-0.601563 3.07617,-0.601563 z m 40.90039,2.859375 c -1.59957,0 -3.01138,0.411257 -4.09179,1.292969 -0.36855,0.300772 -0.58679,0.844142 -0.90625,1.224609 l -0.16211,-1.296875 a 1.0001,1.0001 0 0 0 -0.99219,-0.875 h -4.39258 a 1.0001,1.0001 0 0 0 -1,1 v 1.939453 a 1.0001,1.0001 0 0 0 1,1 h 1.4668 v 9.958985 h -1.4668 a 1.0001,1.0001 0 0 0 -1,1 v 1.941406 a 1.0001,1.0001 0 0 0 1,1 h 8.21485 a 1.0001,1.0001 0 0 0 1,-1 v -1.941406 a 1.0001,1.0001 0 0 0 -1,-1 h -2.22071 v -5.5 c 0.49059,-1.572316 1.11199,-2.71749 1.80078,-3.404297 0.47251,-0.471139 0.99126,-0.707604 1.55469,-0.849609 v 2.210937 a 1.0001,1.0001 0 0 0 1,1 h 2.07617 a 1.0001,1.0001 0 0 0 0.99805,-0.933594 l 0.36133,-5.355468 a 1.0001,1.0001 0 0 0 -0.73047,-1.03125 c -0.38143,-0.105951 -0.75896,-0.190342 -1.13477,-0.25586 -0.002,-4.92e-4 -0.005,4.9e-4 -0.008,0 -0.42238,-0.08634 -0.87569,-0.125 -1.36719,-0.125 z m 54.1543,0 c -1.59957,0 -3.01138,0.411257 -4.0918,1.292969 -0.36807,0.300379 -0.58714,0.842787 -0.90625,1.222656 l -0.1621,-1.294922 a 1.0001,1.0001 0 0 0 -0.99219,-0.875 h -4.39258 a 1.0001,1.0001 0 0 0 -1,1 v 1.939453 a 1.0001,1.0001 0 0 0 1,1 h 1.4668 v 9.958985 h -1.4668 a 1.0001,1.0001 0 0 0 -1,1 v 1.941406 a 1.0001,1.0001 0 0 0 1,1 h 8.21289 a 1.0001,1.0001 0 0 0 1,-1 v -1.941406 a 1.0001,1.0001 0 0 0 -1,-1 h -2.21875 v -5.5 c 0.49059,-1.572316 1.11199,-2.71749 1.80078,-3.404297 0.4725,-0.471139 0.99126,-0.707604 1.55469,-0.849609 v 2.210937 a 1.0001,1.0001 0 0 0 1,1 h 2.07617 a 1.0001,1.0001 0 0 0 0.99805,-0.933594 l 0.36133,-5.355468 a 1.0001,1.0001 0 0 0 -0.73047,-1.03125 c -0.38471,-0.10686 -0.76751,-0.192087 -1.14649,-0.257813 -0.42132,-0.0858 -0.87324,-0.123047 -1.36328,-0.123047 z m -76.64258,0.01367 c -1.57303,0 -3.01884,0.412353 -4.23437,1.242188 a 1.0001,1.0001 0 0 0 -0.004,0.0039 c -1.18594,0.817493 -2.11121,1.952478 -2.74804,3.33789 a 1.0001,1.0001 0 0 0 -0.002,0.0059 c -0.628,1.390569 -0.93164,2.962369 -0.93164,4.683594 0,1.749162 0.30239,3.335189 0.93164,4.728515 a 1.0001,1.0001 0 0 0 0.004,0.0098 c 0.64199,1.385364 1.59951,2.513789 2.83203,3.308594 a 1.0001,1.0001 0 0 0 0.004,0.002 c 1.2648,0.808066 2.78478,1.195312 4.47851,1.195312 1.10393,0 2.19363,-0.186463 3.24805,-0.552734 1.04925,-0.364476 1.99513,-0.873676 2.82031,-1.529297 a 1.0001,1.0001 0 0 0 0.19336,-1.363281 l -1.18945,-1.669922 a 1.0001,1.0001 0 0 0 -1.3711,-0.25 c -0.64846,0.4354 -1.25802,0.751368 -1.82031,0.958984 -0.52524,0.193933 -1.13607,0.300781 -1.84961,0.300781 -0.9922,0 -1.76788,-0.303306 -2.50195,-0.976562 l -0.002,-0.002 c -0.47723,-0.45129 -0.77746,-1.260186 -0.95508,-2.28711 h 9.47656 a 1.0001,1.0001 0 0 0 0.99805,-0.941406 c 0.0105,-0.178676 0.0211,-0.38996 0.0312,-0.634765 l -0.004,0.04297 c 0.0226,-0.271625 0.0332,-0.55609 0.0332,-0.851562 0,-2.56479 -0.62509,-4.719655 -1.95898,-6.322266 -1.32521,-1.604198 -3.25169,-2.439453 -5.47852,-2.439453 z m 54.1543,0 c -1.57303,0 -3.01884,0.412353 -4.23437,1.242188 a 1.0001,1.0001 0 0 0 -0.004,0.0039 c -1.18594,0.817493 -2.11121,1.952478 -2.74805,3.33789 a 1.0001,1.0001 0 0 0 -0.002,0.0059 c -0.62801,1.390569 -0.93164,2.962369 -0.93164,4.683594 0,1.749162 0.30239,3.335189 0.93164,4.728515 a 1.0001,1.0001 0 0 0 0.004,0.0098 c 0.64199,1.385364 1.5995,2.513789 2.83203,3.308594 a 1.0001,1.0001 0 0 0 0.004,0.002 c 1.26481,0.808066 2.78479,1.195312 4.47852,1.195312 1.10393,0 2.19168,-0.186463 3.24609,-0.552734 1.04925,-0.364476 1.99709,-0.873676 2.82227,-1.529297 a 1.0001,1.0001 0 0 0 0.1914,-1.363281 l -1.1875,-1.669922 a 1.0001,1.0001 0 0 0 -1.37304,-0.25 c -0.64847,0.4354 -1.25607,0.751368 -1.81836,0.958984 -0.52524,0.193933 -1.13607,0.300781 -1.84961,0.300781 -0.99415,0 -1.77051,-0.304419 -2.50586,-0.980468 -0.47667,-0.451299 -0.77562,-1.25909 -0.95313,-2.285157 h 9.47461 a 1.0001,1.0001 0 0 0 1,-0.941406 c 0.01,-0.166581 0.0178,-0.367858 0.0273,-0.591797 v -0.0039 c 0.0224,-0.270486 0.0332,-0.553537 0.0332,-0.847656 0,-2.564789 -0.62509,-4.719655 -1.95898,-6.322266 -1.32521,-1.604198 -3.25169,-2.439453 -5.47852,-2.439453 z m -25.51367,0.332031 a 1.0001,1.0001 0 0 0 -0.93945,1.337891 l 5.71679,15.841797 a 1.0001,1.0001 0 0 0 0.93946,0.660156 h 2.93359 a 1.0001,1.0001 0 0 0 0.93945,-0.658203 l 5.76172,-15.839844 a 1.0001,1.0001 0 0 0 -0.93945,-1.341797 h -2.61719 a 1.0001,1.0001 0 0 0 -0.94922,0.681641 l -3.58594,10.722656 -3.63476,-10.726562 a 1.0001,1.0001 0 0 0 -0.94727,-0.677735 z m -6.15235,1.654297 c 0.38823,0 0.71515,0.03097 0.97266,0.08398 a 1.0001,1.0001 0 0 0 0.0332,0.0059 c 0.0587,0.01006 0.12055,0.02968 0.17969,0.04102 l -0.24023,3.570312 h -0.14063 v -2.371094 a 1.0001,1.0001 0 0 0 -1,-1 h -0.13476 c -1.00955,0 -1.92199,0.360727 -2.75977,0.873047 0.0959,-0.0908 0.16512,-0.280899 0.26367,-0.361328 0.66455,-0.542332 1.5576,-0.841797 2.82617,-0.841797 z m 54.1543,0 c 0.38822,0 0.71514,0.03097 0.97266,0.08398 a 1.0001,1.0001 0 0 0 0.0312,0.0059 c 0.0591,0.01014 0.122,0.02958 0.18164,0.04102 l -0.24024,3.570312 h -0.14062 v -2.371094 a 1.0001,1.0001 0 0 0 -1,-1 h -0.13477 c -1.01102,0 -1.92501,0.36122 -2.76367,0.875 0.0965,-0.09142 0.16647,-0.282362 0.26563,-0.363281 0.66455,-0.542332 1.55955,-0.841797 2.82812,-0.841797 z m -76.64258,0.01367 c 1.76452,0 2.97622,0.549229 3.9375,1.712891 a 1.0001,1.0001 0 0 0 0.002,0.0039 c 0.97075,1.164907 1.49804,2.797809 1.49804,5.044922 0,0.138097 -0.008,0.258003 -0.0137,0.384765 h -1.25586 a 1.0001,1.0001 0 0 0 0.83399,-0.972656 c -0.0325,-1.831091 -0.42984,-3.346101 -1.34571,-4.443359 -0.8866,-1.07179 -2.19418,-1.654297 -3.62695,-1.654297 -1.4098,0 -2.70966,0.547653 -3.67187,1.558594 -1.01833,1.069877 -1.50487,2.611589 -1.61329,4.498047 a 1.0001,1.0001 0 0 0 0.93946,1.033203 1.0001,1.0001 0 0 0 -0.95508,1.019531 c 0.0762,1.991129 0.61118,3.622861 1.75781,4.705078 a 1.0001,1.0001 0 0 0 0.008,0.0078 c 1.06811,0.985025 2.41694,1.513671 3.86719,1.513671 0.91107,0 1.7645,-0.136394 2.54297,-0.423828 0.45333,-0.167386 0.91352,-0.462785 1.37109,-0.71875 l 0.0391,0.05469 c -0.44668,0.267118 -0.85867,0.566488 -1.39258,0.751953 -0.851,0.295609 -1.71009,0.441406 -2.5918,0.441406 -1.39319,0 -2.49773,-0.304515 -3.39844,-0.878906 -0.91237,-0.588354 -1.59853,-1.385358 -2.09961,-2.464844 -0.49246,-1.092661 -0.75195,-2.382609 -0.75195,-3.90039 0,-1.485572 0.25827,-2.758172 0.75195,-3.853516 l 0.002,-0.002 c 0.50626,-1.100248 1.18331,-1.91935 2.0625,-2.525391 0.86954,-0.592562 1.87029,-0.892578 3.10351,-0.892578 z m 54.1543,0 c 1.76452,0 2.97621,0.549229 3.9375,1.712891 a 1.0001,1.0001 0 0 0 0.002,0.0039 c 0.97076,1.164907 1.49805,2.797809 1.49805,5.044922 0,0.138097 -0.008,0.258003 -0.0137,0.384765 h -1.25586 a 1.0001,1.0001 0 0 0 0.83203,-0.972656 c -0.0325,-1.829991 -0.4271,-3.344306 -1.3418,-4.441406 -0.88665,-1.073965 -2.19462,-1.65625 -3.6289,-1.65625 -1.4098,0 -2.70966,0.547653 -3.67188,1.558594 -1.01832,1.069877 -1.50487,2.611589 -1.61328,4.498047 a 1.0001,1.0001 0 0 0 0.9375,1.033203 1.0001,1.0001 0 0 0 -0.95312,1.019531 c 0.0762,1.991129 0.60922,3.622861 1.75586,4.705078 a 1.0001,1.0001 0 0 0 0.01,0.0078 c 1.06811,0.985025 2.41694,1.513671 3.86719,1.513671 0.91107,0 1.76255,-0.136394 2.54101,-0.423828 0.45411,-0.167671 0.91469,-0.464154 1.37305,-0.720703 l 0.0391,0.05469 c -0.44704,0.267465 -0.86008,0.568257 -1.39453,0.753906 -0.85099,0.295609 -1.70813,0.441406 -2.58984,0.441406 -1.39319,0 -2.49773,-0.304516 -3.39844,-0.878906 -0.91237,-0.588354 -1.59853,-1.385358 -2.09961,-2.464844 -0.49247,-1.092661 -0.75195,-2.382609 -0.75195,-3.90039 0,-1.487164 0.25918,-2.761289 0.7539,-3.857422 2.5e-4,-5.35e-4 -2.4e-4,-0.0014 0,-0.002 0.50606,-1.098077 1.18447,-1.916236 2.0625,-2.521485 0.86955,-0.592562 1.8703,-0.892578 3.10352,-0.892578 z m -39.68359,0.332031 h 0.98242 l 0.35742,2.869141 a 1.0001,1.0001 0 0 0 1.10156,0.722656 c -0.35612,0.688321 -0.67036,1.447633 -0.93164,2.308594 a 1.0001,1.0001 0 0 0 -0.043,0.289062 v 6.708985 a 1.0001,1.0001 0 0 0 0.94141,0.941406 h -2.41016 A 1.0001,1.0001 0 0 0 191.375,73.357422 V 61.398437 a 1.0001,1.0001 0 0 0 -0.93945,-0.939453 z m 15.5957,0 h 0.53516 l 4.35937,12.859375 a 1.0001,1.0001 0 0 0 1.89453,-0.0039 l 4.29883,-12.855469 h 0.4707 l -5.03515,13.839844 h -1.5293 z m 38.55859,0 h 0.98243 l 0.35742,2.869141 a 1.0001,1.0001 0 0 0 1.10156,0.722656 c -0.35612,0.688321 -0.67037,1.447634 -0.93164,2.308594 a 1.0001,1.0001 0 0 0 -0.043,0.289062 v 6.708985 a 1.0001,1.0001 0 0 0 0.94141,0.941406 h -2.41016 a 1.0001,1.0001 0 0 0 0.94141,-0.941406 V 61.398437 a 1.0001,1.0001 0 0 0 -0.93946,-0.939453 z m -68.5957,1.744141 c 0.95249,0 1.55049,0.278756 2.08789,0.929687 a 1.0001,1.0001 0 0 0 0.004,0.0059 c 0.37537,0.449378 0.60905,1.224632 0.74414,2.179687 h -5.93555 c 0.18218,-0.964011 0.46078,-1.740486 0.87695,-2.177734 0.62228,-0.653786 1.28579,-0.9375 2.22266,-0.9375 z m 54.1543,0 c 0.95249,0 1.55049,0.278756 2.08789,0.929687 a 1.0001,1.0001 0 0 0 0.004,0.0059 c 0.37538,0.449378 0.60906,1.224632 0.74414,2.179687 h -5.9375 c 0.18218,-0.964105 0.46271,-1.740459 0.87891,-2.177734 0.62228,-0.653786 1.28579,-0.9375 2.22266,-0.9375 z"
         id="path32" /></g><path
       style="font-weight:bold;font-size:30.374px;font-family:'FiraCode Nerd Font';-inkscape-font-specification:'FiraCode Nerd Font Bold';fill:#afafaf;stroke-width:2.53116"
       d="m 22.464182,333.43682 v 14.36145 q 0,2.21185 -0.903431,3.97199 -0.887856,1.74455 -2.679143,2.7726 -1.775711,1.01246 -4.454853,1.01246 -2.694719,0 -4.4860066,-0.98131 -1.7757108,-0.98131 -2.6635662,-2.72587 -0.8878554,-1.74456 -0.8878554,-4.04987 v -14.36145 h 5.1246392 v 12.46113 q 0,2.91279 0.529598,4.39255 0.529598,1.46418 2.383191,1.46418 1.853592,0 2.38319,-1.46418 0.529598,-1.47976 0.529598,-4.39255 v -12.46113 z m 10.12468,18.59824 q 1.230537,0 1.978205,-0.38941 0.763244,-0.38942 0.763244,-1.16824 0,-0.52959 -0.295952,-0.88785 -0.295952,-0.35826 -1.137078,-0.68536 -0.841126,-0.32711 -2.492226,-0.77882 -2.274156,-0.60748 -3.707186,-1.74456 -1.417453,-1.13708 -1.417453,-3.33335 0,-2.21185 1.838017,-3.66046 1.853592,-1.44861 5.342708,-1.44861 2.211851,0 3.847374,0.57633 1.651099,0.56075 2.850483,1.43303 l -1.962628,2.89721 q -1.028043,-0.63863 -2.21185,-1.01246 -1.183807,-0.38941 -2.383191,-0.38941 -2.367614,0 -2.367614,1.27726 0,0.42057 0.295951,0.73209 0.311529,0.29596 1.152655,0.62306 0.841126,0.31153 2.461073,0.77882 1.60437,0.45172 2.788177,1.04362 1.199384,0.5919 1.853593,1.58879 0.654209,0.98132 0.654209,2.60126 0,1.80687 -1.074772,3.0374 -1.074772,1.21496 -2.850483,1.82244 -1.775711,0.60748 -3.894103,0.60748 -2.398767,0 -4.236783,-0.68536 -1.838017,-0.68536 -3.130859,-1.80686 l 2.476649,-2.7726 q 0.965738,0.74767 2.180698,1.24611 1.230536,0.49845 2.679142,0.49845 z m 16.324092,-3.84738 q 0.249222,2.02494 1.323995,2.91279 1.074772,0.87228 2.647989,0.87228 1.137078,0 2.196274,-0.37383 1.059196,-0.37384 2.04051,-0.99689 l 1.978204,2.67914 q -1.168231,0.99689 -2.834907,1.63552 -1.651099,0.63863 -3.769491,0.63863 -2.834907,0 -4.750805,-1.1215 -1.915899,-1.13708 -2.881636,-3.11528 -0.965738,-1.9782 -0.965738,-4.54831 0,-2.4455 0.934585,-4.43928 0.934585,-2.00936 2.725872,-3.19316 1.806864,-1.19939 4.408124,-1.19939 2.367615,0 4.096596,1.01247 1.744558,1.01247 2.694719,2.91279 0.965738,1.90032 0.965738,4.56389 0,0.42056 -0.03115,0.90343 -0.01558,0.48287 -0.06231,0.8567 z m 3.052976,-6.94708 q -1.323995,0 -2.133968,0.95016 -0.809973,0.95017 -0.981314,3.0374 h 6.0748 q -0.01558,-1.80686 -0.700938,-2.89721 -0.685362,-1.09035 -2.25858,-1.09035 z m 11.526559,13.78513 v -3.3022 h 2.180697 v -9.96891 h -2.180697 v -3.27104 h 5.934612 l 0.903432,3.72276 q 0.887856,-2.13397 2.25858,-3.17759 1.3863,-1.04362 3.380081,-1.04362 0.841126,0 1.495335,0.14019 0.654209,0.12461 1.230537,0.35826 l -0.919009,6.91592 h -3.084129 v -3.05297 q -1.401877,0.24922 -2.461073,1.52649 -1.059196,1.26169 -1.635523,3.11528 v 4.73523 h 3.271046 v 3.3022 z m 47.508071,-4.65735 h -6.32402 l -1.13708,4.65735 h -5.342706 l 6.604396,-21.58891 h 6.19941 l 6.6044,21.58891 h -5.46732 z m -5.51405,-3.70719 h 4.67293 l -2.33646,-9.54834 z"
       id="text1"
       aria-label="User A" /><path
       style="font-weight:bold;font-size:30.374px;font-family:'FiraCode Nerd Font';-inkscape-font-specification:'FiraCode Nerd Font Bold';fill:#afafaf;stroke-width:2.53116"
       d="m 303.67987,333.43682 v 14.36145 q 0,2.21185 -0.90343,3.97199 -0.88785,1.74455 -2.67914,2.7726 -1.77571,1.01246 -4.45485,1.01246 -2.69472,0 -4.48601,-0.98131 -1.77571,-0.98131 -2.66357,-2.72587 -0.88785,-1.74456 -0.88785,-4.04987 v -14.36145 h 5.12464 v 12.46113 q 0,2.91279 0.5296,4.39255 0.52959,1.46418 2.38319,1.46418 1.85359,0 2.38319,-1.46418 0.5296,-1.47976 0.5296,-4.39255 v -12.46113 z m 10.12468,18.59824 q 1.23054,0 1.97821,-0.38941 0.76324,-0.38942 0.76324,-1.16824 0,-0.52959 -0.29595,-0.88785 -0.29595,-0.35826 -1.13708,-0.68536 -0.84112,-0.32711 -2.49222,-0.77882 -2.27416,-0.60748 -3.70719,-1.74456 -1.41745,-1.13708 -1.41745,-3.33335 0,-2.21185 1.83801,-3.66046 1.8536,-1.44861 5.34271,-1.44861 2.21185,0 3.84738,0.57633 1.6511,0.56075 2.85048,1.43303 l -1.96263,2.89721 q -1.02804,-0.63863 -2.21185,-1.01246 -1.18381,-0.38941 -2.38319,-0.38941 -2.36761,0 -2.36761,1.27726 0,0.42057 0.29595,0.73209 0.31153,0.29596 1.15265,0.62306 0.84113,0.31153 2.46108,0.77882 1.60437,0.45172 2.78817,1.04362 1.19939,0.5919 1.8536,1.58879 0.65421,0.98132 0.65421,2.60126 0,1.80687 -1.07478,3.0374 -1.07477,1.21496 -2.85048,1.82244 -1.77571,0.60748 -3.8941,0.60748 -2.39877,0 -4.23679,-0.68536 -1.83801,-0.68536 -3.13085,-1.80686 l 2.47664,-2.7726 q 0.96574,0.74767 2.1807,1.24611 1.23054,0.49845 2.67914,0.49845 z m 16.3241,-3.84738 q 0.24922,2.02494 1.32399,2.91279 1.07477,0.87228 2.64799,0.87228 1.13708,0 2.19627,-0.37383 1.0592,-0.37384 2.04051,-0.99689 l 1.97821,2.67914 q -1.16823,0.99689 -2.83491,1.63552 -1.6511,0.63863 -3.76949,0.63863 -2.83491,0 -4.75081,-1.1215 -1.91589,-1.13708 -2.88163,-3.11528 -0.96574,-1.9782 -0.96574,-4.54831 0,-2.4455 0.93459,-4.43928 0.93458,-2.00936 2.72587,-3.19316 1.80686,-1.19939 4.40812,-1.19939 2.36762,0 4.0966,1.01247 1.74456,1.01247 2.69472,2.91279 0.96573,1.90032 0.96573,4.56389 0,0.42056 -0.0312,0.90343 -0.0156,0.48287 -0.0623,0.8567 z m 3.05297,-6.94708 q -1.32399,0 -2.13397,0.95016 -0.80997,0.95017 -0.98131,3.0374 h 6.0748 q -0.0156,-1.80686 -0.70094,-2.89721 -0.68536,-1.09035 -2.25858,-1.09035 z m 11.52656,13.78513 v -3.3022 h 2.1807 v -9.96891 h -2.1807 v -3.27104 h 5.93461 l 0.90344,3.72276 q 0.88785,-2.13397 2.25857,-3.17759 1.38631,-1.04362 3.38009,-1.04362 0.84112,0 1.49533,0.14019 0.65421,0.12461 1.23054,0.35826 l -0.91901,6.91592 h -3.08413 v -3.05297 q -1.40188,0.24922 -2.46107,1.52649 -1.0592,1.26169 -1.63553,3.11528 v 4.73523 h 3.27105 v 3.3022 z m 52.83521,-6.32403 q 0,1.86917 -0.71652,3.09971 -0.71651,1.23054 -1.96262,1.93147 -1.24612,0.70094 -2.85049,0.99689 -1.58879,0.29596 -3.34893,0.29596 h -7.16515 v -21.58891 h 6.83805 q 2.22743,0 4.0966,0.49845 1.88474,0.49844 3.02182,1.7134 1.15265,1.19939 1.15265,3.3022 0,1.93148 -1.1838,3.08413 -1.18381,1.15265 -2.77261,1.55764 1.15266,0.18692 2.27416,0.73209 1.13708,0.5296 1.86917,1.5888 0.74767,1.05919 0.74767,2.78817 z m -6.0748,-9.23681 q 0,-1.27726 -0.80998,-1.83801 -0.79439,-0.57633 -2.47664,-0.57633 h -1.57322 v 5.00003 h 1.72898 q 1.6511,0 2.38319,-0.60748 0.74767,-0.60748 0.74767,-1.97821 z m 0.80997,9.03432 q 0,-1.7134 -0.98131,-2.36761 -0.96574,-0.65421 -2.58569,-0.65421 h -2.10281 v 5.82557 h 1.88474 q 0.99689,0 1.8536,-0.20249 0.87228,-0.21807 1.40187,-0.82555 0.5296,-0.60748 0.5296,-1.77571 z"
       id="text1-4"
       aria-label="User B" /><path
       fill="#fff"
       d="m 218.6857,19.387861 a 49.622358,49.622358 0 0 0 -12.37846,-3.80839 34.006535,34.006535 0 0 0 -1.58565,3.22321 46.097118,46.097118 0 0 0 -13.73758,0 34.15283,34.15283 0 0 0 -1.58565,-3.22321 49.971579,49.971579 0 0 0 -12.38789,3.81783 c -7.83387,11.59035 -9.95751,22.89282 -8.89569,34.03485 v 0 a 49.896072,49.896072 0 0 0 15.18166,7.6215 36.668162,36.668162 0 0 0 3.25153,-5.24303 32.288747,32.288747 0 0 1 -5.12033,-2.44454 c 0.42944,-0.31147 0.84945,-0.63237 1.2553,-0.94384 a 35.662973,35.662973 0 0 0 30.35388,0 c 0.41057,0.33506 0.83058,0.65597 1.25531,0.94384 a 32.411446,32.411446 0 0 1 -5.12977,2.44926 36.337818,36.337818 0 0 0 3.25153,5.23831 49.66955,49.66955 0 0 0 15.1911,-7.61678 v 0 c 1.24586,-12.92116 -2.12837,-24.11982 -8.91929,-34.04901 z m -30.79276,27.19201 c -2.95894,0 -5.40348,-2.68522 -5.40348,-5.98866 0,-3.30344 2.3596,-6.01225 5.39404,-6.01225 3.03444,0 5.46011,2.70881 5.4082,6.01225 -0.0519,3.30344 -2.3832,5.98866 -5.39876,5.98866 z m 19.93389,0 c -2.96366,0 -5.39877,-2.68522 -5.39877,-5.98866 0,-3.30344 2.3596,-6.01225 5.39877,-6.01225 3.03916,0 5.44595,2.70881 5.39404,6.01225 -0.0519,3.30344 -2.37848,5.98866 -5.39404,5.98866 z"
       id="path1-5"
       style="fill:#b1b1b1;fill-opacity:1;stroke-width:0.47192" /></g></svg>
