<?xml version="1.0" encoding="UTF-8" standalone="no"?>
<!-- Created with Inkscape (http://www.inkscape.org/) -->

<svg
   width="400"
   height="400"
   viewBox="0 0 400 400"
   version="1.1"
   id="svg1"
   inkscape:version="1.4 (1:1.4+202410161351+e7c3feb100)"
   sodipodi:docname="p2p.svg"
   inkscape:export-filename="maker.png"
   inkscape:export-xdpi="96"
   inkscape:export-ydpi="96"
   xmlns:inkscape="http://www.inkscape.org/namespaces/inkscape"
   xmlns:sodipodi="http://sodipodi.sourceforge.net/DTD/sodipodi-0.dtd"
   xmlns="http://www.w3.org/2000/svg"
   xmlns:svg="http://www.w3.org/2000/svg">
  <sodipodi:namedview
     id="namedview1"
     pagecolor="#ffffff"
     bordercolor="#000000"
     borderopacity="0.25"
     inkscape:showpageshadow="2"
     inkscape:pageopacity="0.0"
     inkscape:pagecheckerboard="0"
     inkscape:deskcolor="#d1d1d1"
     inkscape:document-units="px"
     showgrid="true"
     inkscape:zoom="2.0000001"
     inkscape:cx="104.5"
     inkscape:cy="228.74999"
     inkscape:window-width="1920"
     inkscape:window-height="1011"
     inkscape:window-x="1920"
     inkscape:window-y="32"
     inkscape:window-maximized="1"
     inkscape:current-layer="layer1">
    <inkscape:grid
       id="grid1"
       units="px"
       originx="0"
       originy="0"
       spacingx="1"
       spacingy="1"
       empcolor="#0099e5"
       empopacity="0.30196078"
       color="#0099e5"
       opacity="0.14901961"
       empspacing="5"
       enabled="true"
       visible="true" />
  </sodipodi:namedview>
  <defs
     id="defs1">
    <marker
       style="overflow:visible"
       id="marker30"
       refX="0"
       refY="0"
       orient="auto-start-reverse"
       inkscape:stockid="Wide, rounded arrow"
       markerWidth="1"
       markerHeight="1"
       viewBox="0 0 1 1"
       inkscape:isstock="true"
       inkscape:collect="always"
       preserveAspectRatio="xMidYMid">
      <path
         style="fill:none;stroke:context-stroke;stroke-width:1;stroke-linecap:round"
         d="M 3,-3 0,0 3,3"
         transform="rotate(180,0.125,0)"
         sodipodi:nodetypes="ccc"
         id="path30" />
    </marker>
    <marker
       style="overflow:visible"
       id="ArrowWideRounded"
       refX="0"
       refY="0"
       orient="auto-start-reverse"
       inkscape:stockid="Wide, rounded arrow"
       markerWidth="1"
       markerHeight="1"
       viewBox="0 0 1 1"
       inkscape:isstock="true"
       inkscape:collect="always"
       preserveAspectRatio="xMidYMid">
      <path
         style="fill:none;stroke:context-stroke;stroke-width:1;stroke-linecap:round"
         d="M 3,-3 0,0 3,3"
         transform="rotate(180,0.125,0)"
         sodipodi:nodetypes="ccc"
         id="path2" />
    </marker>
    <marker
       style="overflow:visible"
       id="marker15"
       refX="0"
       refY="0"
       orient="auto-start-reverse"
       inkscape:stockid="Wide, rounded arrow"
       markerWidth="1"
       markerHeight="1"
       viewBox="0 0 1 1"
       inkscape:isstock="true"
       inkscape:collect="always"
       preserveAspectRatio="xMidYMid">
      <path
         style="fill:none;stroke:context-stroke;stroke-width:1;stroke-linecap:round"
         d="M 3,-3 0,0 3,3"
         transform="rotate(180,0.125,0)"
         sodipodi:nodetypes="ccc"
         id="path15" />
    </marker>
    <marker
       style="overflow:visible"
       id="marker12"
       refX="0"
       refY="0"
       orient="auto-start-reverse"
       inkscape:stockid="Wide, rounded arrow"
       markerWidth="1"
       markerHeight="1"
       viewBox="0 0 1 1"
       inkscape:isstock="true"
       inkscape:collect="always"
       preserveAspectRatio="xMidYMid">
      <path
         style="fill:none;stroke:context-stroke;stroke-width:1;stroke-linecap:round"
         d="M 3,-3 0,0 3,3"
         transform="rotate(180,0.125,0)"
         sodipodi:nodetypes="ccc"
         id="path12" />
    </marker>
    <marker
       style="overflow:visible"
       id="marker7"
       refX="0"
       refY="0"
       orient="auto-start-reverse"
       inkscape:stockid="Wide, rounded arrow"
       markerWidth="1"
       markerHeight="1"
       viewBox="0 0 1 1"
       inkscape:isstock="true"
       inkscape:collect="always"
       preserveAspectRatio="xMidYMid">
      <path
         style="fill:none;stroke:context-stroke;stroke-width:1;stroke-linecap:round"
         d="M 3,-3 0,0 3,3"
         transform="rotate(180,0.125,0)"
         sodipodi:nodetypes="ccc"
         id="path7" />
    </marker>
    <marker
       style="overflow:visible"
       id="marker6"
       refX="0"
       refY="0"
       orient="auto-start-reverse"
       inkscape:stockid="Wide, rounded arrow"
       markerWidth="1"
       markerHeight="1"
       viewBox="0 0 1 1"
       inkscape:isstock="true"
       inkscape:collect="always"
       preserveAspectRatio="xMidYMid">
      <path
         style="fill:none;stroke:context-stroke;stroke-width:1;stroke-linecap:round"
         d="M 3,-3 0,0 3,3"
         transform="rotate(180,0.125,0)"
         sodipodi:nodetypes="ccc"
         id="path6" />
    </marker>
  </defs>
  <g
     inkscape:label="Layer 1"
     inkscape:groupmode="layer"
     id="layer1">
    <g
       id="g1"
       transform="translate(-2.6049874,55.413573)">
      <path
         id="rect4"
         style="fill:#afafaf;stroke-width:13.8462;stroke-linecap:round;stroke-linejoin:round"
         d="m 160,32.307693 v 55.384614 h 90 V 32.307693 Z m 6.92308,4.260667 h 76.15384 v 46.863279 h -76.15384 z" />
      <rect
         style="fill:#afafaf;stroke-width:19.3228;stroke-linecap:round;stroke-linejoin:round"
         id="rect5"
         width="6.9230719"
         height="14.538462"
         x="201.53847"
         y="87.692307" />
      <rect
         style="fill:#afafaf;stroke-width:23.0951;stroke-linecap:round;stroke-linejoin:round"
         id="rect5-6"
         width="6.9230719"
         height="20.76923"
         x="98.769234"
         y="-215.38461"
         transform="rotate(90)" />
    </g>
    <g
       id="g2"
       transform="translate(-37.604987,81.028963)">
      <path
         id="rect4-5"
         style="fill:#afafaf;stroke-width:13.8462;stroke-linecap:round;stroke-linejoin:round"
         d="m 50,160 v 55.38462 h 90 V 160 Z m 6.92308,4.26067 h 76.15384 v 46.86328 H 56.92308 Z" />
      <rect
         style="fill:#afafaf;stroke-width:19.3228;stroke-linecap:round;stroke-linejoin:round"
         id="rect5-3"
         width="6.9230719"
         height="14.538462"
         x="91.538467"
         y="215.38461" />
      <rect
         style="fill:#afafaf;stroke-width:23.0951;stroke-linecap:round;stroke-linejoin:round"
         id="rect5-6-5"
         width="6.9230719"
         height="20.76923"
         x="226.46153"
         y="-105.38461"
         transform="rotate(90)" />
    </g>
    <g
       id="g3"
       transform="translate(15.323943,-19.279696)">
      <path
         id="rect4-5-1"
         style="fill:#afafaf;stroke-width:13.8462;stroke-linecap:round;stroke-linejoin:round"
         d="m 287.07107,260.30865 v 55.38462 h 90 v -55.38462 z m 6.92308,4.26067 h 76.15384 v 46.86328 h -76.15384 z" />
      <rect
         style="fill:#afafaf;stroke-width:19.3228;stroke-linecap:round;stroke-linejoin:round"
         id="rect5-3-2"
         width="6.9230719"
         height="14.538462"
         x="328.60953"
         y="315.69327" />
      <rect
         style="fill:#afafaf;stroke-width:23.0951;stroke-linecap:round;stroke-linejoin:round"
         id="rect5-6-5-7"
         width="6.9230719"
         height="20.76923"
         x="326.7702"
         y="-342.45569"
         transform="rotate(90)" />
    </g>
    <path
       style="fill:none;fill-opacity:1;stroke:#008000;stroke-width:5;stroke-linecap:round;stroke-linejoin:round;stroke-dasharray:none;stroke-opacity:1;marker-start:url(#ArrowWideRounded);marker-end:url(#marker30)"
       d="m 102.39501,241.02896 89.61538,-79.92308"
       id="path3" />
    <path
       style="fill:none;fill-opacity:1;stroke:#008000;stroke-width:5;stroke-linecap:round;stroke-linejoin:round;stroke-dasharray:none;stroke-opacity:1;marker-start:url(#marker6);marker-end:url(#marker7)"
       d="m 212.77962,161.10588 89.61539,79.92308"
       id="path5" />
    <path
       style="fill:none;fill-opacity:1;stroke:#008000;stroke-width:5;stroke-linecap:round;stroke-linejoin:round;stroke-dasharray:none;stroke-opacity:1;marker-start:url(#marker12);marker-end:url(#marker15)"
       d="m 102.39501,268.72127 h 200"
       id="path8"
       sodipodi:nodetypes="cc" />
    <g
       id="text15-0">
      <path
         style="-inkscape-font-specification:'FiraCode Nerd Font';fill:#afafaf;stroke-linecap:round;stroke-linejoin:round"
         d="m 17.465148,324.35566 q 2.030767,0 3.399654,0.51145 1.368887,0.51145 2.60239,1.50427 l -1.459143,1.69983 q -0.977777,-0.82735 -2.075895,-1.17333 -1.083076,-0.36103 -2.271451,-0.36103 -1.699827,0 -3.143928,0.81231 -1.444101,0.79726 -2.331621,2.66256 -0.872478,1.85026 -0.872478,5.02427 0,3.08376 0.82735,4.94905 0.842392,1.8653 2.27145,2.69265 1.429058,0.82735 3.189056,0.82735 1.729913,0 2.858117,-0.5265 1.143246,-0.52649 1.955553,-1.20341 l 1.353845,1.71487 q -0.947692,0.9176 -2.467006,1.59452 -1.519315,0.66188 -3.730594,0.66188 -2.527177,0 -4.557944,-1.21846 -2.030766,-1.2335 -3.2191412,-3.62529 -1.1883747,-2.39179 -1.1883747,-5.86666 0,-3.48991 1.2034174,-5.86666 1.2184605,-2.39179 3.2341845,-3.59521 2.015724,-1.21846 4.422559,-1.21846 z m 16.471788,-1.17333 v 18.30698 q 0,1.17334 0.72205,1.66975 0.737093,0.48136 1.895383,0.48136 0.707007,0 1.353844,-0.15042 0.66188,-0.15043 1.308717,-0.40616 l 0.676922,1.85026 q -0.646837,0.31589 -1.609571,0.55658 -0.947691,0.25572 -2.151108,0.25572 -2.105981,0 -3.414697,-1.15829 -1.308717,-1.17333 -1.308717,-3.23418 v -16.17092 h -4.858798 v -2.00068 z m 17.885803,-1.03795 q 0.842393,0 1.338802,0.51145 0.511453,0.51145 0.511453,1.24855 0,0.76718 -0.511453,1.29367 -0.496409,0.51145 -1.338802,0.51145 -0.797264,0 -1.308716,-0.51145 -0.511453,-0.52649 -0.511453,-1.29367 0,-0.7371 0.511453,-1.24855 0.511452,-0.51145 1.308716,-0.51145 z m 2.015724,7.41606 v 13.8393 h 4.467688 v 2.00068 H 46.422404 v -2.00068 h 4.888883 v -11.83862 h -4.738456 v -2.00068 z m 12.019144,8.81503 q 0.105299,2.75282 1.444101,4.01641 1.353845,1.24854 3.189056,1.24854 1.21846,0 2.196237,-0.36102 0.977777,-0.36103 2.030767,-1.06804 l 1.188374,1.66975 q -1.098118,0.87247 -2.527176,1.36888 -1.429058,0.49641 -2.918287,0.49641 -2.316579,0 -3.941192,-1.03794 -1.609571,-1.03795 -2.467006,-2.88821 -0.842392,-1.86529 -0.842392,-4.31726 0,-2.40683 0.842392,-4.27213 0.857435,-1.86529 2.406835,-2.93333 1.564442,-1.06803 3.670423,-1.06803 2.993501,0 4.708371,2.07589 1.729912,2.0759 1.729912,5.68615 0,0.40616 -0.03008,0.76718 -0.01504,0.36103 -0.03009,0.61675 z m 4.302217,-7.07008 q -1.759998,0 -2.948372,1.24855 -1.188375,1.24855 -1.338802,3.86598 h 8.258452 q -0.04513,-2.54222 -1.113161,-3.82085 -1.068033,-1.29368 -2.858117,-1.29368 z m 11.763418,14.09503 v -15.83998 h 2.151108 l 0.195556,2.19624 q 0.962734,-1.21846 2.406834,-1.8653 1.444101,-0.66188 2.828031,-0.66188 2.331622,0 3.384612,1.2335 1.068033,1.23351 1.068033,3.42974 v 11.50768 h -2.527177 v -9.64238 q 0,-1.62461 -0.180512,-2.61743 -0.180513,-0.99282 -0.767179,-1.45915 -0.571623,-0.46632 -1.759998,-0.46632 -0.932648,0 -1.759998,0.40615 -0.812307,0.40616 -1.459144,1.02291 -0.631794,0.60171 -1.05299,1.21846 v 11.53776 z m 30.626978,-0.79726 q -0.8123,0.54153 -1.97059,0.84239 -1.15829,0.30085 -2.27145,0.30085 -2.55727,0 -3.9412,-1.3388 -1.38393,-1.3388 -1.38393,-3.44478 v -9.44683 h -3.640333 v -1.95555 h 3.640333 v -3.59521 l 2.52718,-0.30085 v 3.89606 h 5.47555 l -0.30085,1.95555 h -5.1747 v 9.41674 q 0,1.32376 0.69197,2.01573 0.707,0.69196 2.33162,0.69196 0.88752,0 1.63965,-0.21059 0.75214,-0.2106 1.39898,-0.54154 z m 33.5453,-4.48273 h -8.19829 l -1.65469,5.27999 h -2.57231 l 6.73914,-20.71382 h 3.33948 l 6.73914,20.71382 h -2.73778 z m -7.52136,-2.16615 h 6.84443 l -3.39965,-11.07144 z"
         id="path33" />
      <path
         style="-inkscape-font-specification:'FiraCode Nerd Font';fill:#afafaf;stroke-linecap:round;stroke-linejoin:round"
         d="m 51.822266,321.14453 c -0.745345,0 -1.490948,0.28001 -2.015625,0.80469 -0.510816,0.51081 -0.804688,1.23239 -0.804688,1.95508 0,0.73367 0.284802,1.46511 0.794922,1.99023 a 1.0001,1.0001 0 0 0 0.0098,0.01 c 0.524677,0.52467 1.27028,0.80468 2.015625,0.80468 0.763975,0 1.528805,-0.27062 2.05664,-0.81445 0.51012,-0.52512 0.794922,-1.25656 0.794922,-1.99023 0,-0.71997 -0.295476,-1.4368 -0.802734,-1.94727 -0.52763,-0.5399 -1.28761,-0.8125 -2.048828,-0.8125 z m -25.271485,1.03711 a 1.0001,1.0001 0 0 0 -1,1 v 2.00195 a 1.0001,1.0001 0 0 0 1,1 h 3.859375 v 15.16993 c 0,1.58557 0.551479,3.00204 1.640625,3.97851 a 1.0001,1.0001 0 0 0 0.0059,0.006 c 1.071825,0.94863 2.488851,1.4082 4.076171,1.4082 0.869542,0 1.6702,-0.0906 2.402344,-0.28711 0.686895,-0.17217 1.282023,-0.37552 1.796875,-0.62695 a 1.0001,1.0001 0 0 0 0.5,-1.24219 l -0.675781,-1.84961 a 1.0001,1.0001 0 0 0 -1.306641,-0.58593 c -0.385118,0.15226 -0.771624,0.27258 -1.162109,0.36132 a 1.0001,1.0001 0 0 0 -0.0059,0 c -0.352935,0.0821 -0.726534,0.125 -1.126954,0.125 -0.626307,0 -1.043666,-0.12827 -1.333984,-0.31445 -0.174587,-0.12172 -0.283203,-0.26562 -0.283203,-0.83594 v -18.30859 a 1.0001,1.0001 0 0 0 -1,-1 z m 25.271485,0.96289 c 0.359215,0 0.48705,0.0689 0.621093,0.20703 a 1.0001,1.0001 0 0 0 0.01172,0.0117 c 0.171122,0.17112 0.21875,0.28091 0.21875,0.54102 0,0.28923 -0.05865,0.42078 -0.230469,0.59765 -0.134043,0.13811 -0.261878,0.20703 -0.621093,0.20703 -0.31461,0 -0.440526,-0.0629 -0.595704,-0.21679 -0.165293,-0.17253 -0.224609,-0.30342 -0.224609,-0.58789 0,-0.26011 0.04763,-0.3699 0.21875,-0.54102 0.157259,-0.15726 0.283889,-0.21875 0.601563,-0.21875 z m -34.357422,0.21094 c -1.773307,0 -3.444842,0.45982 -4.939453,1.36328 -1.515828,0.90629 -2.7255795,2.26507 -3.6074222,3.99609 a 1.0001,1.0001 0 0 0 -0.00195,0.002 c -0.8913827,1.76048 -1.3105469,3.87681 -1.3105469,6.31836 0,2.43057 0.4148522,4.54515 1.2929688,6.3125 0.8627682,1.73645 2.0707205,3.10887 3.5957035,4.03515 a 1.0001,1.0001 0 0 0 0.0039,0.002 c 1.510771,0.90646 3.226767,1.36132 5.072265,1.36132 1.57396,0 2.955128,-0.23194 4.13086,-0.74414 a 1.0001,1.0001 0 0 0 0.0078,-0.004 c 1.095707,-0.48819 2.018538,-1.07705 2.753907,-1.78907 a 1.0001,1.0001 0 0 0 0.08984,-1.33789 l -1.353515,-1.71484 a 1.0001,1.0001 0 0 0 -1.425782,-0.14844 c -0.462243,0.3852 -1.036425,0.74198 -1.732421,1.0625 a 1.0001,1.0001 0 0 0 -0.0059,0.002 c -0.574647,0.26817 -1.383721,0.43359 -2.435547,0.43359 -1.016636,0 -1.888847,-0.23098 -2.6875,-0.69336 -0.742637,-0.42995 -1.360912,-1.1362 -1.857421,-2.23242 v -0.002 c -0.468393,-1.05676 -0.742188,-2.57738 -0.742188,-4.54296 0,-2.02222 0.288765,-3.55979 0.775391,-4.59375 l 0.002,-0.002 c 2.27e-4,-4.8e-4 -2.27e-4,-0.001 0,-0.002 0.524584,-1.10067 1.161502,-1.79957 1.910156,-2.21289 a 1.0001,1.0001 0 0 0 0.0078,-0.004 c 0.816609,-0.45934 1.678418,-0.68359 2.652343,-0.68359 0.690983,0 1.33712,0.1026 1.955078,0.30859 a 1.0001,1.0001 0 0 0 0.01563,0.006 c 0.595312,0.18757 1.167066,0.5057 1.730469,0.98242 a 1.0001,1.0001 0 0 0 1.40625,-0.11132 l 1.458984,-1.69922 A 1.0001,1.0001 0 0 0 24.09375,325.5918 c -0.897753,-0.72258 -1.859837,-1.28136 -2.878906,-1.66211 -1.064465,-0.39771 -2.312205,-0.57422 -3.75,-0.57422 z m 122.945316,0.33203 a 1.0001,1.0001 0 0 0 -0.95118,0.68945 l -6.74023,20.71485 a 1.0001,1.0001 0 0 0 0.95117,1.30859 h 2.57227 a 1.0001,1.0001 0 0 0 0.95508,-0.70117 l 1.43359,-4.57813 h 6.73047 l 1.43554,4.57813 a 1.0001,1.0001 0 0 0 0.95313,0.70117 h 2.73828 a 1.0001,1.0001 0 0 0 0.95117,-1.30859 l -6.74023,-20.71485 a 1.0001,1.0001 0 0 0 -0.95117,-0.68945 z M 27.550781,324.18164 H 32.9375 v 17.30859 c 0,0.98736 0.369832,1.95287 1.154297,2.49219 a 1.0001,1.0001 0 0 0 0.01953,0.0137 c 0.692177,0.45203 1.53264,0.64453 2.443359,0.64453 0.540271,0 1.066431,-0.0582 1.574219,-0.17578 0.160421,-0.0365 0.315647,-0.10177 0.47461,-0.14648 l 0.0039,0.008 c -0.198933,0.0645 -0.32878,0.13591 -0.566406,0.19531 a 1.0001,1.0001 0 0 0 -0.01758,0.004 c -0.529006,0.14274 -1.159178,0.2207 -1.890625,0.2207 -1.217483,0 -2.073753,-0.3096 -2.746093,-0.90234 -0.65581,-0.58797 -0.976563,-1.32801 -0.976563,-2.49023 v -16.16993 a 1.0001,1.0001 0 0 0 -1,-1 h -3.859375 z m 77.841799,0.49023 -2.52735,0.30079 a 1.0001,1.0001 0 0 0 -0.88281,0.99218 v 2.59571 h -2.640623 a 1.0001,1.0001 0 0 0 -1,1 v 1.95507 a 1.0001,1.0001 0 0 0 1,1 h 2.640623 v 8.44727 c 0,1.62303 0.57851,3.08934 1.68946,4.16406 1.14384,1.10655 2.75736,1.61914 4.63671,1.61914 0.8322,0 1.67385,-0.11187 2.52149,-0.33203 0.85844,-0.22297 1.62244,-0.54322 2.27539,-0.97851 a 1.0001,1.0001 0 0 0 0.3125,-1.32813 l -0.97656,-1.71484 a 1.0001,1.0001 0 0 0 -1.32422,-0.39453 c -0.36789,0.18822 -0.77076,0.34495 -1.21289,0.46875 -0.40308,0.11286 -0.85851,0.17382 -1.3711,0.17382 -0.93766,0 -1.42587,-0.21138 -1.625,-0.40429 -0.23414,-0.23596 -0.39843,-0.59767 -0.39843,-1.30274 v -8.41797 h 4.17578 a 1.0001,1.0001 0 0 0 0.98828,-0.84765 l 0.30078,-1.95508 a 1.0001,1.0001 0 0 0 -0.98828,-1.15234 h -4.47656 v -2.89649 a 1.0001,1.0001 0 0 0 -1.11719,-0.99219 z m -87.927736,0.6836 c 1.269894,0 2.290063,0.16499 3.050781,0.44922 0.491188,0.18352 0.948017,0.52744 1.416016,0.82031 l -0.160157,0.18555 c -0.499936,-0.31872 -0.982124,-0.68945 -1.53125,-0.86328 -0.823869,-0.2737 -1.689296,-0.41016 -2.580078,-0.41016 -1.291859,0 -2.522434,0.31829 -3.630859,0.94141 -1.173434,0.64937 -2.0906,1.72176 -2.748047,3.10351 a 1.0001,1.0001 0 0 0 0,0.004 c -0.675733,1.43302 -0.96875,3.24158 -0.96875,5.44922 0,2.14527 0.279682,3.92523 0.914063,5.35546 a 1.0001,1.0001 0 0 0 0.002,0.006 c 0.626071,1.38631 1.520658,2.47434 2.68164,3.14649 1.106759,0.64075 2.359426,0.96289 3.689453,0.96289 1.254005,0 2.350014,-0.1878 3.279297,-0.62109 h 0.002 c 0.49177,-0.2267 0.873347,-0.52555 1.292969,-0.79883 l 0.138672,0.17383 c -0.430341,0.31256 -0.80856,0.6395 -1.410156,0.9082 -4.84e-4,2.1e-4 -0.0015,-2.1e-4 -0.002,0 -0.84983,0.36991 -1.956448,0.57812 -3.330079,0.57812 -1.52407,0 -2.84605,-0.35802 -4.042968,-1.07617 -1.180494,-0.71829 -2.117114,-1.76221 -2.837891,-3.21289 -0.7063828,-1.4217 -1.0839843,-3.21929 -1.0839842,-5.42187 0,-2.21059 0.381246,-4.0039 1.0937502,-5.41211 l 0.002,-0.002 c 0.741654,-1.45486 1.684619,-2.48965 2.853516,-3.1875 a 1.0001,1.0001 0 0 0 0.0059,-0.004 c 1.193021,-0.72116 2.46849,-1.07422 3.904297,-1.07422 z m 123.669926,0.33203 h 1.88867 l 6.08789,18.71289 h -0.62696 l -1.43554,-4.57812 a 1.0001,1.0001 0 0 0 -0.95313,-0.70118 h -8.19922 a 1.0001,1.0001 0 0 0 -0.95312,0.70118 l -1.43555,4.57812 h -0.46094 z m 0.88671,0.19531 a 1.0001,1.0001 0 0 0 -0.95703,0.70313 l -3.44531,11.07031 a 1.0001,1.0001 0 0 0 0.95508,1.29883 h 6.84375 a 1.0001,1.0001 0 0 0 0.95703,-1.29492 l -3.40039,-11.07032 a 1.0001,1.0001 0 0 0 -0.95313,-0.70703 z m -37.51171,0.90821 v 2.76953 a 1.0001,1.0001 0 0 0 0.97851,0.97851 1.0001,1.0001 0 0 0 -0.97851,0.97656 v 9.41797 c 0,1.05675 0.2976,2.03589 0.98437,2.72266 a 1.0001,1.0001 0 0 0 0.008,0.008 c 0.74498,0.72913 1.8062,0.97656 3.03125,0.97656 0.67078,0 1.3104,-0.0801 1.91016,-0.24804 0.2427,-0.068 0.45484,-0.17985 0.68555,-0.26563 l 0.004,0.01 c -0.26981,0.11348 -0.47366,0.25581 -0.80468,0.3418 -0.69675,0.18097 -1.36752,0.26757 -2.01954,0.26757 -1.53033,0 -2.5447,-0.37812 -3.24609,-1.05664 -0.73429,-0.71034 -1.08008,-1.54162 -1.08008,-2.72656 v -9.44727 a 1.0001,1.0001 0 0 0 -0.97851,-0.97656 1.0001,1.0001 0 0 0 0.97851,-0.97851 v -2.70703 z m -34.380864,1.43945 c -1.573034,0 -3.018843,0.4104 -4.234375,1.24023 a 1.0001,1.0001 0 0 0 -0.002,0.004 c -1.185937,0.8175 -2.111204,1.95248 -2.748047,3.33789 a 1.0001,1.0001 0 0 0 -0.0039,0.006 c -0.627998,1.39057 -0.929688,2.96433 -0.929688,4.68555 0,1.74916 0.300443,3.33519 0.929688,4.72851 a 1.0001,1.0001 0 0 0 0.0039,0.008 c 0.641998,1.38537 1.599508,2.51379 2.832031,3.3086 a 1.0001,1.0001 0 0 0 0.0039,0.002 c 1.2648,0.80806 2.786733,1.19531 4.480468,1.19531 1.103931,0 2.191678,-0.18451 3.246094,-0.55078 1.049247,-0.36447 1.995135,-0.87563 2.820313,-1.53125 a 1.0001,1.0001 0 0 0 0.193359,-1.36328 l -1.1875,-1.66992 a 1.0001,1.0001 0 0 0 -1.373047,-0.25 c -0.648467,0.4354 -1.258016,0.75332 -1.820312,0.96094 -0.525236,0.19393 -1.136067,0.29883 -1.84961,0.29882 -0.994154,0 -1.768557,-0.30442 -2.503906,-0.98046 -0.476818,-0.45144 -0.775678,-1.25858 -0.953125,-2.28516 h 9.474609 a 1.0001,1.0001 0 0 0 0.998047,-0.94141 c 0.0098,-0.16696 0.01976,-0.36705 0.0293,-0.59179 v -0.008 c 0.02221,-0.26932 0.0332,-0.54905 0.0332,-0.84179 0,-2.56656 -0.627098,-4.72322 -1.96289,-6.32617 -1.325121,-1.60196 -3.251326,-2.43555 -5.476563,-2.43555 z m 19.375,0 c -1.080804,0 -2.168695,0.26137 -3.240234,0.75195 -0.457112,0.20515 -0.757021,0.61198 -1.15625,0.89649 l -0.03711,-0.40625 a 1.0001,1.0001 0 0 0 -0.996093,-0.91211 h -2.150391 a 1.0001,1.0001 0 0 0 -1,1 v 15.83984 a 1.0001,1.0001 0 0 0 1,1 h 2.527344 a 1.0001,1.0001 0 0 0 1,-1 v -11.17773 c 0.21138,-0.28102 0.436731,-0.56261 0.742187,-0.85352 a 1.0001,1.0001 0 0 0 0,-0.002 c 0.357173,-0.34056 0.756845,-0.62065 1.208985,-0.84766 9.8e-4,-4.9e-4 0.0029,4.9e-4 0.0039,0 0.416999,-0.20409 0.84114,-0.30469 1.316406,-0.30469 0.66145,0 1.008886,0.14587 1.126953,0.24219 a 1.0001,1.0001 0 0 0 0.0098,0.008 c 0.159611,0.12688 0.315086,0.35407 0.40625,0.85547 0.103169,0.56743 0.164062,1.39147 0.164062,2.4375 v 9.64258 a 1.0001,1.0001 0 0 0 1,1 h 2.527344 a 1.0001,1.0001 0 0 0 1,-1 v -11.50781 c 0,-1.62455 -0.408271,-3.03603 -1.310547,-4.08008 -0.938769,-1.09719 -2.413565,-1.58203 -4.142578,-1.58203 z m -42.93164,0.33008 a 1.0001,1.0001 0 0 0 -1,1 v 2 a 1.0001,1.0001 0 0 0 1,1 h 3.738281 v 9.83984 h -3.888672 a 1.0001,1.0001 0 0 0 -1,1 v 2 a 1.0001,1.0001 0 0 0 1,1 h 11.884766 a 1.0001,1.0001 0 0 0 1,-1 v -2 a 1.0001,1.0001 0 0 0 -1,-1 h -3.46875 v -12.83984 a 1.0001,1.0001 0 0 0 -1,-1 z m 23.55664,1.66992 c 1.764512,0 2.976214,0.54728 3.9375,1.71094 a 1.0001,1.0001 0 0 0 0.0039,0.004 c 0.970757,1.16491 1.498047,2.79977 1.498047,5.04688 0,0.13781 -0.01003,0.25629 -0.01563,0.38281 h -1.255859 a 1.0001,1.0001 0 0 0 0.833984,-0.97266 c -0.03247,-1.82888 -0.428302,-3.34251 -1.341797,-4.43945 l -0.002,-0.002 c -0.886617,-1.07259 -2.193635,-1.65625 -3.626953,-1.65625 -1.4098,0 -2.711609,0.5496 -3.673828,1.56054 -1.018315,1.06988 -1.502911,2.6116 -1.611328,4.49805 a 1.0001,1.0001 0 0 0 0.9375,1.03125 1.0001,1.0001 0 0 0 -0.955078,1.01953 c 0.07616,1.99113 0.611179,3.62286 1.757812,4.70508 a 1.0001,1.0001 0 0 0 0.0078,0.008 c 1.068102,0.98503 2.416938,1.51368 3.867187,1.51367 0.911071,0 1.764502,-0.13639 2.542969,-0.42382 0.453843,-0.16758 0.914952,-0.4624 1.373047,-0.71875 l 0.03711,0.0527 c -0.446892,0.26732 -0.85835,0.56833 -1.392578,0.75391 -0.850994,0.29561 -1.708135,0.4414 -2.589844,0.4414 -1.393951,0 -2.499422,-0.30391 -3.40039,-0.8789 l -0.002,-0.002 c -0.910858,-0.58797 -1.595102,-1.38301 -2.095703,-2.46093 -0.493017,-1.09306 -0.751954,-2.38173 -0.751954,-3.90039 0,-1.48557 0.256316,-2.76012 0.75,-3.85547 l 0.002,-0.002 c 0.506269,-1.10024 1.185264,-1.91934 2.064453,-2.52539 0.869542,-0.59256 1.868343,-0.89062 3.101562,-0.89062 z m 19.375,0 c 1.378071,0 2.159648,0.33573 2.625,0.88086 a 1.0001,1.0001 0 0 0 0.0039,0.006 c 0.519778,0.60031 0.824219,1.47334 0.824219,2.77539 v 10.50781 h -0.527344 v -8.64258 c 0,-1.12011 -0.0578,-2.04054 -0.195312,-2.79687 -0.149074,-0.81991 -0.505829,-1.56173 -1.125,-2.05664 -0.540771,-0.43905 -1.259884,-0.53169 -2.005859,-0.58008 0.128609,-0.0101 0.273673,-0.0937 0.40039,-0.0937 z m 52.509764,0.0391 2.05274,6.68555 h -4.13282 z m -90.703123,0.29102 h 1.527344 v 12.83984 a 1.0001,1.0001 0 0 0 1,1 h -2.527344 a 1.0001,1.0001 0 0 0 1,-1 v -11.83984 a 1.0001,1.0001 0 0 0 -1,-1 z m 31.613281,0 h 0.236328 l 0.113281,1.28515 a 1.0001,1.0001 0 0 0 0.910157,0.80664 c -0.184171,0.21595 -0.405312,0.42204 -0.558594,0.64649 a 1.0001,1.0001 0 0 0 -0.173828,0.56445 v 10.53711 h -0.527344 z m -12.763672,1.74414 c 0.952492,0 1.548541,0.2807 2.085938,0.93164 a 1.0001,1.0001 0 0 0 0.0039,0.004 c 0.37538,0.4494 0.611008,1.22457 0.746094,2.17969 h -5.9375 c 0.182176,-0.9641 0.46075,-1.7385 0.876953,-2.17578 0.622279,-0.65379 1.287745,-0.93945 2.224609,-0.93945 z"
         id="path34" />
    </g>
    <g
       id="text15-0-7">
      <path
         style="-inkscape-font-specification:'FiraCode Nerd Font';fill:#afafaf;stroke-linecap:round;stroke-linejoin:round"
         d="m 258.37218,319.85566 q 2.03077,0 3.39965,0.51145 1.36889,0.51145 2.60239,1.50427 l -1.45914,1.69983 q -0.97778,-0.82735 -2.0759,-1.17333 -1.08307,-0.36103 -2.27145,-0.36103 -1.69982,0 -3.14392,0.81231 -1.4441,0.79726 -2.33162,2.66256 -0.87248,1.85026 -0.87248,5.02427 0,3.08376 0.82735,4.94905 0.84239,1.8653 2.27145,2.69265 1.42906,0.82735 3.18905,0.82735 1.72992,0 2.85812,-0.5265 1.14325,-0.52649 1.95555,-1.20341 l 1.35385,1.71487 q -0.94769,0.9176 -2.46701,1.59452 -1.51931,0.66188 -3.73059,0.66188 -2.52718,0 -4.55795,-1.21846 -2.03076,-1.2335 -3.21914,-3.62529 -1.18837,-2.39179 -1.18837,-5.86666 0,-3.48991 1.20342,-5.86666 1.21846,-2.39179 3.23418,-3.59521 2.01572,-1.21846 4.42256,-1.21846 z m 16.47179,-1.17333 v 18.30698 q 0,1.17334 0.72205,1.66975 0.73709,0.48136 1.89538,0.48136 0.70701,0 1.35384,-0.15042 0.66188,-0.15043 1.30872,-0.40616 l 0.67692,1.85026 q -0.64683,0.31589 -1.60957,0.55658 -0.94769,0.25572 -2.15111,0.25572 -2.10598,0 -3.41469,-1.15829 -1.30872,-1.17333 -1.30872,-3.23418 v -16.17092 h -4.8588 v -2.00068 z m 17.8858,-1.03795 q 0.84239,0 1.3388,0.51145 0.51145,0.51145 0.51145,1.24855 0,0.76718 -0.51145,1.29367 -0.49641,0.51145 -1.3388,0.51145 -0.79726,0 -1.30872,-0.51145 -0.51145,-0.52649 -0.51145,-1.29367 0,-0.7371 0.51145,-1.24855 0.51146,-0.51145 1.30872,-0.51145 z m 2.01572,7.41606 v 13.8393 h 4.46769 v 2.00068 h -11.88375 v -2.00068 h 4.88889 v -11.83862 h -4.73846 v -2.00068 z m 12.01915,8.81503 q 0.1053,2.75282 1.4441,4.01641 1.35384,1.24854 3.18906,1.24854 1.21846,0 2.19623,-0.36102 0.97778,-0.36103 2.03077,-1.06804 l 1.18837,1.66975 q -1.09811,0.87247 -2.52717,1.36888 -1.42906,0.49641 -2.91829,0.49641 -2.31658,0 -3.94119,-1.03794 -1.60957,-1.03795 -2.46701,-2.88821 -0.84239,-1.86529 -0.84239,-4.31726 0,-2.40683 0.84239,-4.27213 0.85744,-1.86529 2.40684,-2.93333 1.56444,-1.06803 3.67042,-1.06803 2.9935,0 4.70837,2.07589 1.72991,2.0759 1.72991,5.68615 0,0.40616 -0.0301,0.76718 -0.0151,0.36103 -0.0301,0.61675 z m 4.30222,-7.07008 q -1.76,0 -2.94838,1.24855 -1.18837,1.24855 -1.3388,3.86598 h 8.25845 q -0.0451,-2.54222 -1.11316,-3.82085 -1.06803,-1.29368 -2.85811,-1.29368 z m 11.76341,14.09503 v -15.83998 h 2.15111 l 0.19556,2.19624 q 0.96273,-1.21846 2.40683,-1.8653 1.4441,-0.66188 2.82803,-0.66188 2.33162,0 3.38461,1.2335 1.06804,1.23351 1.06804,3.42974 v 11.50768 h -2.52718 v -9.64238 q 0,-1.62461 -0.18051,-2.61743 -0.18051,-0.99282 -0.76718,-1.45915 -0.57162,-0.46632 -1.76,-0.46632 -0.93265,0 -1.76,0.40615 -0.8123,0.40616 -1.45914,1.02291 -0.63179,0.60171 -1.05299,1.21846 v 11.53776 z m 30.62698,-0.79726 q -0.8123,0.54153 -1.97059,0.84239 -1.15829,0.30085 -2.27145,0.30085 -2.55726,0 -3.94119,-1.3388 -1.38393,-1.3388 -1.38393,-3.44478 v -9.44683 h -3.64034 v -1.95555 h 3.64034 v -3.59521 l 2.52717,-0.30085 v 3.89606 h 5.47555 l -0.30085,1.95555 h -5.1747 v 9.41674 q 0,1.32376 0.69197,2.01573 0.70701,0.69196 2.33162,0.69196 0.88752,0 1.63965,-0.21059 0.75214,-0.2106 1.39898,-0.54154 z m 36.73435,-5.11453 q 0,1.69983 -0.67692,2.84308 -0.66188,1.1282 -1.79008,1.80512 -1.11316,0.67693 -2.49709,0.97778 -1.36889,0.28581 -2.79795,0.28581 h -5.56581 V 320.1866 h 5.09949 q 1.35384,0 2.66256,0.25572 1.30871,0.24069 2.3617,0.8424 1.05299,0.58666 1.66975,1.59453 0.63179,1.00786 0.63179,2.52717 0,1.3388 -0.55658,2.27145 -0.54154,0.91761 -1.42906,1.47419 -0.87248,0.55658 -1.8653,0.78222 1.14325,0.19556 2.22633,0.72205 1.09811,0.51145 1.80512,1.5494 0.72205,1.03795 0.72205,2.7829 z m -3.58016,-9.44682 q 0,-1.76 -1.09812,-2.49709 -1.08308,-0.75214 -2.96342,-0.75214 h -3.08376 v 6.70905 h 3.33949 q 1.83521,0 2.81299,-0.81231 0.99282,-0.82734 0.99282,-2.64751 z m 0.82735,9.53708 q 0,-1.56444 -0.61676,-2.40684 -0.6017,-0.85743 -1.60957,-1.18837 -1.00786,-0.33094 -2.21128,-0.33094 h -3.53504 v 7.59657 h 3.4147 q 1.02291,0 2.0759,-0.27077 1.05299,-0.28581 1.75999,-1.06803 0.72206,-0.79726 0.72206,-2.33162 z"
         id="path35" />
      <path
         style="-inkscape-font-specification:'FiraCode Nerd Font';fill:#afafaf;stroke-linecap:round;stroke-linejoin:round"
         d="m 292.73047,316.64453 c -0.74534,0 -1.49095,0.28002 -2.01563,0.80469 -0.51081,0.51081 -0.80468,1.23239 -0.80468,1.95508 0,0.73367 0.28285,1.46511 0.79296,1.99023 a 1.0001,1.0001 0 0 0 0.0117,0.01 c 0.52468,0.52467 1.27029,0.80468 2.01563,0.80468 0.76335,0 1.5269,-0.27152 2.05469,-0.81445 0.51011,-0.52512 0.79492,-1.25656 0.79492,-1.99023 0,-0.72059 -0.29468,-1.43867 -0.80274,-1.94922 -0.52756,-0.53866 -1.28653,-0.81055 -2.04687,-0.81055 z m -25.27344,1.03711 a 1.0001,1.0001 0 0 0 -1,1 v 2.00195 a 1.0001,1.0001 0 0 0 1,1 h 3.85938 v 15.16993 c 0,1.58558 0.55147,3.00204 1.64062,3.97851 a 1.0001,1.0001 0 0 0 0.006,0.006 c 1.07182,0.94863 2.49081,1.4082 4.07813,1.4082 0.86954,0 1.66824,-0.0906 2.40039,-0.28711 0.6869,-0.17217 1.28397,-0.37551 1.79882,-0.62695 a 1.0001,1.0001 0 0 0 0.5,-1.24219 l -0.67773,-1.84961 a 1.0001,1.0001 0 0 0 -1.30664,-0.58593 c -0.38512,0.15226 -0.77162,0.27258 -1.16211,0.36132 a 1.0001,1.0001 0 0 0 -0.006,0 c -0.35293,0.0821 -0.72653,0.125 -1.12695,0.125 -0.6263,0 -1.04172,-0.12828 -1.33203,-0.31445 -0.17459,-0.12172 -0.28516,-0.26562 -0.28516,-0.83594 v -18.30859 a 1.0001,1.0001 0 0 0 -1,-1 z m 25.27344,0.96289 c 0.35921,0 0.48705,0.0689 0.62109,0.20703 a 1.0001,1.0001 0 0 0 0.01,0.0117 c 0.17112,0.17112 0.21875,0.28091 0.21875,0.54102 0,0.28923 -0.0567,0.42078 -0.22852,0.59765 -0.13404,0.13811 -0.26188,0.20703 -0.62109,0.20703 -0.31461,0 -0.44052,-0.0629 -0.5957,-0.21679 -0.1653,-0.17253 -0.22461,-0.30341 -0.22461,-0.58789 0,-0.26011 0.0476,-0.3699 0.21875,-0.54102 0.15726,-0.15726 0.28389,-0.21875 0.60156,-0.21875 z m -34.35742,0.21094 c -1.77093,0 -3.44247,0.45832 -4.93555,1.35937 -0.001,7.3e-4 -0.003,0.001 -0.004,0.002 -7.4e-4,4.5e-4 -0.001,0.002 -0.002,0.002 -1.51522,0.90629 -2.72583,2.26556 -3.60742,3.99609 a 1.0001,1.0001 0 0 0 0,0.002 c -0.89139,1.76048 -1.3125,3.87681 -1.3125,6.31836 0,2.43057 0.41485,4.54515 1.29297,6.3125 0.86277,1.73645 2.07072,3.10887 3.5957,4.03515 a 1.0001,1.0001 0 0 0 0.004,0.002 c 1.51077,0.90646 3.22676,1.36132 5.07226,1.36132 1.57396,0 2.95513,-0.23194 4.13086,-0.74414 a 1.0001,1.0001 0 0 0 0.008,-0.004 c 1.09572,-0.48819 2.0205,-1.07705 2.75586,-1.78907 a 1.0001,1.0001 0 0 0 0.0899,-1.33789 l -1.35547,-1.71484 a 1.0001,1.0001 0 0 0 -1.42383,-0.14844 c -0.46224,0.3852 -1.03838,0.74198 -1.73437,1.0625 a 1.0001,1.0001 0 0 0 -0.004,0.002 c -0.57464,0.26817 -1.38372,0.43359 -2.43555,0.43359 -1.01663,0 -1.88884,-0.23098 -2.6875,-0.69336 -0.74372,-0.43058 -1.36249,-1.13735 -1.85937,-2.23633 -4.7e-4,-0.001 -0.001,-9.1e-4 -0.002,-0.002 -0.46761,-1.05665 -0.74023,-2.57526 -0.74023,-4.53906 0,-2.0225 0.2906,-3.55979 0.77734,-4.59375 0.52502,-1.10344 1.16042,-1.80289 1.91016,-2.2168 a 1.0001,1.0001 0 0 0 0.008,-0.004 c 0.81661,-0.45934 1.68038,-0.68359 2.6543,-0.68359 0.69099,0 1.33712,0.10261 1.95508,0.30859 a 1.0001,1.0001 0 0 0 0.0156,0.006 c 0.59532,0.18757 1.16707,0.5057 1.73047,0.98242 a 1.0001,1.0001 0 0 0 1.4043,-0.11132 l 1.45898,-1.69922 a 1.0001,1.0001 0 0 0 -0.13086,-1.43164 c -0.89775,-0.72259 -1.86179,-1.28136 -2.88086,-1.66211 -1.06446,-0.39771 -2.31025,-0.57422 -3.74804,-0.57422 z m 118.49023,0.33203 a 1.0001,1.0001 0 0 0 -1,1 v 20.71289 a 1.0001,1.0001 0 0 0 1,1 h 5.56641 c 1.01937,0 2.02121,-0.10187 3.00195,-0.30664 a 1.0001,1.0001 0 0 0 0.008,-0.002 c 1.01828,-0.22137 1.95705,-0.5866 2.79883,-1.09766 0.88711,-0.53227 1.61431,-1.26326 2.13672,-2.15234 v -0.002 c 0.56133,-0.94881 0.81641,-2.08629 0.81641,-3.35156 0,-1.29954 -0.26882,-2.44255 -0.89844,-3.34961 -0.56222,-0.82366 -1.31336,-1.46983 -2.20117,-1.88476 -0.005,-0.002 -0.0107,-0.002 -0.0156,-0.004 0.59242,-0.42881 1.13857,-0.92277 1.51563,-1.56055 v -0.002 c 0.47829,-0.80224 0.69726,-1.75082 0.69726,-2.78125 0,-1.14924 -0.24412,-2.19021 -0.7832,-3.05273 -0.49813,-0.81216 -1.19073,-1.47313 -2.03125,-1.94141 -0.80353,-0.45772 -1.69801,-0.77304 -2.66406,-0.95117 -0.001,-2.6e-4 -0.003,-0.002 -0.004,-0.002 -0.93244,-0.18141 -1.88222,-0.27148 -2.84375,-0.27148 z m -108.40625,0.49414 h 5.38672 v 17.30859 c 0,0.98736 0.37179,1.95287 1.15625,2.49219 a 1.0001,1.0001 0 0 0 0.0195,0.0137 c 0.69218,0.45203 1.53069,0.64453 2.44141,0.64453 0.54093,0 1.06781,-0.0579 1.57617,-0.17578 0.16042,-0.0365 0.31565,-0.10177 0.47461,-0.14648 l 0.002,0.008 c -0.19864,0.0644 -0.32726,0.13602 -0.56445,0.19531 a 1.0001,1.0001 0 0 0 -0.0176,0.004 c -0.529,0.14274 -1.15918,0.2207 -1.89062,0.2207 -1.21945,0 -2.07718,-0.30969 -2.75,-0.90429 -6.7e-4,-5.9e-4 -0.001,-0.001 -0.002,-0.002 -0.65295,-0.58735 -0.97265,-1.32661 -0.97265,-2.48632 v -16.16993 a 1.0001,1.0001 0 0 0 -1,-1 h -3.85938 z m 77.8418,0.49023 -2.52735,0.30079 a 1.0001,1.0001 0 0 0 -0.88086,0.99218 v 2.59571 H 340.25 a 1.0001,1.0001 0 0 0 -1,1 v 1.95507 a 1.0001,1.0001 0 0 0 1,1 h 2.64062 v 8.44727 c 10e-6,1.62303 0.57656,3.08934 1.6875,4.16406 1.14385,1.10655 2.75737,1.61914 4.63672,1.61914 0.8322,0 1.6758,-0.11187 2.52344,-0.33203 0.85844,-0.22297 1.62049,-0.54322 2.27344,-0.97851 a 1.0001,1.0001 0 0 0 0.31445,-1.32813 l -0.97851,-1.71484 a 1.0001,1.0001 0 0 0 -1.32422,-0.39453 c -0.36789,0.18822 -0.77076,0.34495 -1.21289,0.46875 -0.40308,0.11286 -0.85656,0.17382 -1.36914,0.17382 -0.93766,0 -1.42782,-0.21137 -1.62696,-0.40429 -0.23414,-0.23596 -0.39648,-0.59767 -0.39648,-1.30274 v -8.41797 h 4.17383 a 1.0001,1.0001 0 0 0 0.98828,-0.84765 l 0.30078,-1.95508 a 1.0001,1.0001 0 0 0 -0.98828,-1.15234 h -4.47461 v -2.89649 a 1.0001,1.0001 0 0 0 -1.11914,-0.99219 z m -87.92578,0.6836 c 1.26989,0 2.28811,0.165 3.04882,0.44922 0.49139,0.18359 0.9498,0.52728 1.41797,0.82031 l -0.16015,0.18555 c -0.50021,-0.319 -0.98179,-0.68934 -1.53125,-0.86328 -0.82387,-0.2737 -1.6893,-0.41016 -2.58008,-0.41016 -1.29104,0 -2.52298,0.31712 -3.63086,0.93945 -1.17395,0.64931 -2.0904,1.72329 -2.74805,3.10547 a 1.0001,1.0001 0 0 0 -0.002,0.004 c -0.67573,1.43302 -0.96875,3.24158 -0.96875,5.44922 0,2.14527 0.27968,3.92523 0.91406,5.35546 a 1.0001,1.0001 0 0 0 0.002,0.006 c 0.62607,1.38631 1.52261,2.47434 2.68359,3.14649 1.10676,0.64075 2.35943,0.96289 3.68945,0.96289 1.25243,0 2.34686,-0.18701 3.27539,-0.61914 l 0.002,-0.002 c 0.49292,-0.22714 0.87641,-0.5249 1.29687,-0.79883 l 0.13867,0.17383 c -0.4306,0.3129 -0.80992,0.63923 -1.41211,0.9082 -4.8e-4,2.1e-4 -0.001,-2.1e-4 -0.002,0 -0.84982,0.36991 -1.95645,0.57812 -3.33008,0.57812 -1.52312,0 -2.84468,-0.35696 -4.04101,-1.07422 -7.5e-4,-4.4e-4 -0.001,-0.002 -0.002,-0.002 -1.17989,-0.71827 -2.11737,-1.76273 -2.83789,-3.21289 -0.70638,-1.42171 -1.08398,-3.21929 -1.08398,-5.42187 0,-2.21086 0.38303,-4.00383 1.0957,-5.41211 v -0.002 c 0.74174,-1.45541 1.68629,-2.48948 2.85547,-3.1875 a 1.0001,1.0001 0 0 0 0.004,-0.004 c 1.19301,-0.72116 2.47044,-1.07422 3.90625,-1.07422 z m 119.49023,0.33203 h 4.09961 c 0.8396,0 1.66192,0.0783 2.4707,0.23633 a 1.0001,1.0001 0 0 0 0.0117,0.002 c 0.7736,0.14228 1.44996,0.38547 2.04688,0.72656 a 1.0001,1.0001 0 0 0 0.008,0.006 c 0.56182,0.31301 0.98068,0.71271 1.30469,1.24219 a 1.0001,1.0001 0 0 0 0.006,0.01 c 0.30108,0.4803 0.47851,1.12183 0.47851,1.99609 0,0.75396 -0.15286,1.31881 -0.41601,1.75977 a 1.0001,1.0001 0 0 0 -0.002,0.004 c -0.28447,0.48203 -0.63993,0.84649 -1.09961,1.13477 a 1.0001,1.0001 0 0 0 -0.006,0.004 c -0.0247,0.0158 -0.0533,0.018 -0.0781,0.0332 0.57427,-0.75955 0.92383,-1.69587 0.92383,-2.80078 0,-1.38027 -0.50277,-2.62726 -1.53906,-3.32422 -0.94314,-0.65079 -2.13977,-0.92383 -3.52149,-0.92383 h -3.08398 a 1.0001,1.0001 0 0 0 -1,1 v 6.70898 a 1.0001,1.0001 0 0 0 1,1 h 3.33789 c 0.63924,0 1.23038,-0.0829 1.77929,-0.22851 a 1.0001,1.0001 0 0 0 0.26172,0.6582 c -0.59633,-0.13593 -1.19053,-0.2793 -1.84375,-0.2793 h -3.53515 a 1.0001,1.0001 0 0 0 -1,1 V 338.75 a 1.0001,1.0001 0 0 0 1,1 h 3.41406 c 0.77017,0 1.54658,-0.10277 2.32422,-0.30273 a 1.0001,1.0001 0 0 0 0.0137,-0.004 c 0.86907,-0.23589 1.64222,-0.70265 2.23828,-1.36133 l 0.002,-0.002 c 0.69434,-0.76792 0.98047,-1.8232 0.98047,-3.00196 0,-1.17024 -0.22574,-2.18789 -0.80664,-2.98632 -0.2385,-0.33814 -0.65024,-0.46877 -0.97265,-0.71875 0.18714,0.0733 0.38083,0.0934 0.5664,0.18359 a 1.0001,1.0001 0 0 0 0.0156,0.006 c 0.57183,0.26633 1.02164,0.65099 1.40039,1.20703 a 1.0001,1.0001 0 0 0 0.006,0.008 c 0.33134,0.47632 0.54297,1.18557 0.54297,2.21094 0,1.00048 -0.19653,1.75878 -0.53711,2.33399 a 1.0001,1.0001 0 0 0 -0.002,0.004 c -0.35994,0.61353 -0.82546,1.08356 -1.4414,1.45313 a 1.0001,1.0001 0 0 0 -0.006,0.004 c -0.63893,0.38854 -1.36026,0.67214 -2.18164,0.85157 -0.001,2.6e-4 -0.003,-2.7e-4 -0.004,0 -0.84324,0.17578 -1.70512,0.26562 -2.58984,0.26562 h -4.56641 z m -32.44531,1.10352 v 2.76953 a 1.0001,1.0001 0 0 0 0.97656,0.97851 1.0001,1.0001 0 0 0 -0.97656,0.97656 v 9.41797 c 0,1.05675 0.29761,2.03589 0.98437,2.72266 a 1.0001,1.0001 0 0 0 0.008,0.008 c 0.74498,0.72912 1.8062,0.97656 3.03125,0.97656 0.67077,0 1.30844,-0.0801 1.9082,-0.24804 0.24244,-0.0679 0.45507,-0.17996 0.68555,-0.26563 l 0.006,0.01 c -0.27025,0.11377 -0.47494,0.25564 -0.80665,0.3418 -0.69674,0.18097 -1.36751,0.26757 -2.01953,0.26757 -1.53033,0 -2.5447,-0.37812 -3.24609,-1.05664 -0.73429,-0.71034 -1.07812,-1.54162 -1.07813,-2.72656 v -9.44727 a 1.0001,1.0001 0 0 0 -0.97656,-0.97656 1.0001,1.0001 0 0 0 0.97656,-0.97851 v -2.70703 z m 35.04883,1.00195 h 2.08398 c 1.12023,0 1.89322,0.22549 2.39258,0.57226 a 1.0001,1.0001 0 0 0 0.0117,0.01 c 0.42627,0.28613 0.65625,0.70066 0.65625,1.66602 0,1.03034 -0.24687,1.55811 -0.63086,1.8789 -3.5e-4,2.9e-4 -0.002,-2.9e-4 -0.002,0 -0.41542,0.34456 -1.0988,0.58203 -2.17383,0.58203 h -2.33789 z m -69.42969,0.4375 c -1.57303,0 -3.01884,0.4104 -4.23438,1.24023 a 1.0001,1.0001 0 0 0 -0.004,0.004 c -1.18594,0.8175 -2.1112,1.95248 -2.74805,3.33789 a 1.0001,1.0001 0 0 0 -0.002,0.006 c -0.628,1.39057 -0.93164,2.96433 -0.93164,4.68555 0,1.74916 0.3024,3.33519 0.93164,4.72851 a 1.0001,1.0001 0 0 0 0.004,0.008 c 0.642,1.38537 1.59951,2.51379 2.83204,3.3086 a 1.0001,1.0001 0 0 0 0.004,0.002 c 1.2648,0.80806 2.78478,1.19531 4.47852,1.19531 1.10393,0 2.19167,-0.18451 3.24609,-0.55078 1.04925,-0.36447 1.99709,-0.87563 2.82227,-1.53125 a 1.0001,1.0001 0 0 0 0.1914,-1.36328 l -1.1875,-1.66992 a 1.0001,1.0001 0 0 0 -1.37304,-0.25 c -0.64847,0.4354 -1.25607,0.75332 -1.81836,0.96094 -0.52523,0.19393 -1.13607,0.29882 -1.84961,0.29882 -0.99416,0 -1.77052,-0.30442 -2.50586,-0.98046 -0.47682,-0.45144 -0.77568,-1.25858 -0.95313,-2.28516 h 9.47461 a 1.0001,1.0001 0 0 0 1,-0.94141 c 0.01,-0.1668 0.0178,-0.36713 0.0274,-0.59179 l 0.002,-0.041 c 0.0205,-0.25957 0.0312,-0.52739 0.0312,-0.80859 0,-2.56549 -0.62434,-4.72147 -1.95899,-6.32422 l -0.002,-0.002 c -1.32515,-1.60277 -3.25075,-2.43555 -5.47656,-2.43555 z m 19.375,0 c -1.0808,0 -2.1687,0.26137 -3.24024,0.75195 -0.45796,0.20553 -0.75834,0.61326 -1.1582,0.89844 l -0.0371,-0.4082 a 1.0001,1.0001 0 0 0 -0.99609,-0.91211 h -2.15039 a 1.0001,1.0001 0 0 0 -1,1 v 15.83984 a 1.0001,1.0001 0 0 0 1,1 h 2.52734 a 1.0001,1.0001 0 0 0 1,-1 v -11.17578 c 0.21165,-0.28162 0.43606,-0.56391 0.74219,-0.85547 a 1.0001,1.0001 0 0 0 0,-0.002 c 0.35756,-0.34093 0.7582,-0.62052 1.21094,-0.84766 0.41813,-0.20526 0.84175,-0.30469 1.31836,-0.30469 0.66145,0 1.01084,0.14588 1.1289,0.24219 a 1.0001,1.0001 0 0 0 0.01,0.008 c 0.15961,0.12688 0.31509,0.35407 0.40625,0.85547 0.10317,0.56743 0.16406,1.39147 0.16406,2.4375 v 9.64258 a 1.0001,1.0001 0 0 0 1,1 h 2.52734 a 1.0001,1.0001 0 0 0 1,-1 v -11.50781 c 0,-1.62351 -0.40752,-3.03428 -1.30859,-4.07813 -3.5e-4,-4.1e-4 -0.002,4.2e-4 -0.002,0 -0.93869,-1.09866 -2.41248,-1.58398 -4.14258,-1.58398 z m -42.93164,0.33008 a 1.0001,1.0001 0 0 0 -1,1 v 2 a 1.0001,1.0001 0 0 0 1,1 h 3.73828 v 9.83984 h -3.88867 a 1.0001,1.0001 0 0 0 -1,1 v 2 a 1.0001,1.0001 0 0 0 1,1 h 11.88281 a 1.0001,1.0001 0 0 0 1,-1 v -2 a 1.0001,1.0001 0 0 0 -1,-1 h -3.4668 v -12.83984 a 1.0001,1.0001 0 0 0 -1,-1 z m 23.55664,1.66992 c 1.76451,0 2.97621,0.54728 3.9375,1.71094 a 1.0001,1.0001 0 0 0 0.002,0.004 c 0.97076,1.16491 1.49805,2.79977 1.49805,5.04688 0,0.13779 -0.008,0.25631 -0.0137,0.38281 h -1.25586 a 1.0001,1.0001 0 0 0 0.83203,-0.97266 c -0.0324,-1.82926 -0.42788,-3.34245 -1.3418,-4.43945 -0.88664,-1.07397 -2.19462,-1.6582 -3.6289,-1.6582 -1.4098,0 -2.70966,0.5496 -3.67188,1.56054 -1.01831,1.06988 -1.50486,2.6116 -1.61328,4.49805 a 1.0001,1.0001 0 0 0 0.9375,1.03125 1.0001,1.0001 0 0 0 -0.95313,1.01953 c 0.0762,1.99113 0.60923,3.62286 1.75586,4.70508 a 1.0001,1.0001 0 0 0 0.01,0.008 c 1.0681,0.98503 2.41693,1.51367 3.86719,1.51367 0.91107,0 1.76255,-0.13639 2.54101,-0.42382 0.45411,-0.16768 0.91468,-0.46416 1.37305,-0.72071 l 0.0391,0.0547 c -0.44704,0.26746 -0.86008,0.56826 -1.39453,0.75391 -0.85099,0.29561 -1.70813,0.4414 -2.58984,0.4414 -1.3932,0 -2.49774,-0.30452 -3.39844,-0.8789 -0.91202,-0.58813 -1.59663,-1.38405 -2.09766,-2.46289 -0.49301,-1.09306 -0.7539,-2.38173 -0.7539,-3.90039 0,-1.48717 0.25919,-2.76324 0.7539,-3.85938 2.4e-4,-5.3e-4 -2.4e-4,-0.001 0,-0.002 0.50607,-1.09808 1.18446,-1.91623 2.0625,-2.52149 0.86955,-0.59256 1.8703,-0.89062 3.10352,-0.89062 z m 19.375,0 c 1.37807,0 2.15769,0.33573 2.62305,0.88086 a 1.0001,1.0001 0 0 0 0.006,0.006 c 0.51978,0.60031 0.82421,1.47334 0.82421,2.77539 v 10.50781 h -0.52734 v -8.64258 c 0,-1.12011 -0.0598,-2.04054 -0.19727,-2.79687 -0.14907,-0.81991 -0.50582,-1.56173 -1.125,-2.05664 -0.54014,-0.43854 -1.25897,-0.52947 -2.0039,-0.57813 0.12865,-0.0101 0.27363,-0.0957 0.40039,-0.0957 z m -38.19336,0.33008 h 1.52734 v 12.83984 a 1.0001,1.0001 0 0 0 1,1 h -2.52734 a 1.0001,1.0001 0 0 0 1,-1 v -11.83984 a 1.0001,1.0001 0 0 0 -1,-1 z m 31.61133,0 h 0.23633 l 0.11523,1.28515 a 1.0001,1.0001 0 0 0 0.9082,0.80664 c -0.18417,0.21595 -0.40531,0.42204 -0.55859,0.64649 a 1.0001,1.0001 0 0 0 -0.17383,0.56445 v 10.53711 h -0.52734 z m -12.76367,1.74414 c 0.95248,0 1.55049,0.2807 2.08789,0.93164 a 1.0001,1.0001 0 0 0 0.004,0.004 c 0.37538,0.44938 0.60906,1.22464 0.74414,2.17969 h -5.9375 c 0.18218,-0.96411 0.46271,-1.7385 0.87891,-2.17578 0.62228,-0.65379 1.28579,-0.93945 2.22266,-0.93945 z m 69.40039,4.34765 h 2.53515 c 0.71062,0 1.33862,0.0974 1.89844,0.28125 0.48475,0.15917 0.81844,0.40627 1.10352,0.8125 a 1.0001,1.0001 0 0 0 0.0117,0.0176 c 0.23687,0.32353 0.42383,0.90291 0.42383,1.81445 0,0.86605 -0.19773,1.36524 -0.46484,1.66016 a 1.0001,1.0001 0 0 0 0,0.002 c -0.34473,0.38141 -0.74319,0.62433 -1.27344,0.76954 -0.62425,0.16003 -1.22848,0.24023 -1.82031,0.24023 h -2.41406 z"
         id="path36" />
    </g>
    <g
       id="text15-0-75">
      <path
         style="-inkscape-font-specification:'FiraCode Nerd Font';fill:#afafaf;stroke-linecap:round;stroke-linejoin:round"
         d="m 164.77316,69.56708 q 0,1.790083 -0.88752,3.15897 -0.88752,1.368888 -2.58735,2.151109 -1.68478,0.767179 -4.09162,0.767179 -2.27145,0 -4.1217,-0.691965 -1.83521,-0.691965 -3.14393,-1.955554 l 1.5494,-1.744955 q 1.06803,1.007862 2.46701,1.609571 1.39897,0.586666 3.29435,0.586666 1.26359,0 2.36171,-0.406154 1.09812,-0.421196 1.77504,-1.263588 0.67692,-0.857435 0.67692,-2.166151 0,-0.99282 -0.39111,-1.699827 -0.39111,-0.722051 -1.38393,-1.263589 -0.99282,-0.55658 -2.76786,-1.083075 -2.04581,-0.601709 -3.55008,-1.353845 -1.48923,-0.767178 -2.31658,-1.865297 -0.81231,-1.113161 -0.81231,-2.76786 0,-1.5494 0.85744,-2.752817 0.85743,-1.203418 2.36171,-1.88034 1.51931,-0.691965 3.48991,-0.691965 2.1511,0 3.73059,0.616751 1.59453,0.601709 2.8882,1.744956 l -1.53436,1.699827 q -1.11316,-0.977777 -2.39179,-1.429058 -1.27863,-0.451282 -2.60239,-0.451282 -1.69982,0 -2.91829,0.752136 -1.21846,0.752136 -1.21846,2.301536 0,0.902563 0.48137,1.5494 0.48137,0.631794 1.62462,1.173332 1.14324,0.541537 3.11384,1.113161 1.60957,0.466324 2.97846,1.173332 1.38393,0.691965 2.22632,1.895382 0.84239,1.188375 0.84239,3.174014 z m 6.91966,-1.293674 q 0.1053,2.752817 1.4441,4.016406 1.35385,1.248545 3.18906,1.248545 1.21846,0 2.19624,-0.361025 0.97777,-0.361025 2.03076,-1.068033 l 1.18838,1.669742 q -1.09812,0.872477 -2.52718,1.368887 -1.42906,0.49641 -2.91829,0.49641 -2.31657,0 -3.94119,-1.037948 -1.60957,-1.037947 -2.467,-2.888202 -0.8424,-1.865297 -0.8424,-4.31726 0,-2.406835 0.8424,-4.272132 0.85743,-1.865297 2.40683,-2.93333 1.56444,-1.068032 3.67042,-1.068032 2.99351,0 4.70838,2.075895 1.72991,2.075895 1.72991,5.686147 0,0.406153 -0.0301,0.767178 -0.015,0.361026 -0.0301,0.616752 z m 4.30222,-7.070077 q -1.76,0 -2.94837,1.248545 -1.18838,1.248546 -1.3388,3.865979 h 8.25845 q -0.0451,-2.54222 -1.11316,-3.820851 -1.06804,-1.293673 -2.85812,-1.293673 z m 11.91384,14.095026 v -1.94051 h 2.46701 V 61.398884 h -2.46701 v -1.940511 h 4.39248 l 0.46632,3.745637 q 0.91761,-1.955553 2.22632,-3.023586 1.30872,-1.068033 3.45983,-1.068033 0.66188,0 1.17333,0.105299 0.5265,0.09026 1.06803,0.240683 l -0.36102,5.355208 h -2.0759 v -3.369569 q -0.0602,0 -0.13538,0 -3.64034,0 -5.21982,5.20478 v 6.709053 h 3.21914 v 1.94051 z m 31.10836,-15.839982 -5.76136,15.839982 h -2.93333 l -5.71624,-15.839982 h 2.67761 l 4.58803,13.538446 4.52785,-13.538446 z m 6.8294,8.815033 q 0.1053,2.752817 1.4441,4.016406 1.35385,1.248545 3.18906,1.248545 1.21846,0 2.19624,-0.361025 0.97777,-0.361025 2.03076,-1.068033 l 1.18838,1.669742 q -1.09812,0.872477 -2.52718,1.368887 -1.42906,0.49641 -2.91829,0.49641 -2.31657,0 -3.94119,-1.037948 -1.60957,-1.037947 -2.467,-2.888202 -0.8424,-1.865297 -0.8424,-4.31726 0,-2.406835 0.8424,-4.272132 0.85743,-1.865297 2.40683,-2.93333 1.56444,-1.068032 3.67042,-1.068032 2.99351,0 4.70838,2.075895 1.72991,2.075895 1.72991,5.686147 0,0.406153 -0.0301,0.767178 -0.015,0.361026 -0.0301,0.616752 z m 4.30222,-7.070077 q -1.76,0 -2.94837,1.248545 -1.18838,1.248546 -1.3388,3.865979 h 8.25845 q -0.0451,-2.54222 -1.11316,-3.820851 -1.06804,-1.293673 -2.85812,-1.293673 z m 11.91384,14.095026 v -1.94051 h 2.46701 V 61.398884 h -2.46701 v -1.940511 h 4.39247 l 0.46633,3.745637 q 0.9176,-1.955553 2.22632,-3.023586 1.30872,-1.068033 3.45983,-1.068033 0.66188,0 1.17333,0.105299 0.52649,0.09026 1.06803,0.240683 l -0.36102,5.355208 h -2.0759 v -3.369569 q -0.0602,0 -0.13538,0 -3.64034,0 -5.21983,5.20478 v 6.709053 h 3.21914 v 1.94051 z"
         id="path31" />
      <path
         style="-inkscape-font-specification:'FiraCode Nerd Font';fill:#afafaf;stroke-linecap:round;stroke-linejoin:round"
         d="m 157.55273,53.253906 c -1.42926,0 -2.74001,0.251535 -3.90039,0.779297 -1.14024,0.513106 -2.08505,1.257696 -2.76562,2.212891 -0.68932,0.967458 -1.04297,2.114631 -1.04297,3.332031 0,1.26677 0.32329,2.424725 1.00391,3.357422 a 1.0001,1.0001 0 0 0 0.01,0.01367 c 0.65774,0.873001 1.55778,1.586463 2.65625,2.152343 a 1.0001,1.0001 0 0 0 0.0117,0.0039 c 1.06914,0.534571 2.30526,1.005817 3.71289,1.419922 1.13999,0.338132 2.00504,0.683578 2.5625,0.996093 a 1.0001,1.0001 0 0 0 0.0117,0.0059 c 0.54632,0.297991 0.84059,0.599489 0.98242,0.861328 a 1.0001,1.0001 0 0 0 0.004,0.0078 c 0.16476,0.297848 0.26758,0.684277 0.26758,1.214844 0,0.699253 -0.16559,1.167735 -0.46289,1.544922 -0.33534,0.415432 -0.76051,0.724748 -1.34375,0.949219 -0.61301,0.225718 -1.27545,0.341797 -2.00782,0.341797 -1.15814,0 -2.11906,-0.180213 -2.90234,-0.507813 -0.82914,-0.357287 -1.54742,-0.824788 -2.17188,-1.414062 a 1.0001,1.0001 0 0 0 -1.43554,0.0625 l -1.54883,1.74414 a 1.0001,1.0001 0 0 0 0.0527,1.384766 c 0.9749,0.941274 2.14826,1.667357 3.48633,2.171875 a 1.0001,1.0001 0 0 0 0.002,0 c 1.35926,0.50834 2.85682,0.755859 4.47266,0.755859 1.71081,0 3.21922,-0.27154 4.50586,-0.857422 a 1.0001,1.0001 0 0 0 0.004,-0.002 c 1.27442,-0.586457 2.30489,-1.431465 3.00781,-2.515625 0.69992,-1.079545 1.04883,-2.34447 1.04883,-3.703125 0,-1.462457 -0.31269,-2.740322 -1.02344,-3.746094 l -0.002,-0.002 c -0.6568,-0.937453 -1.53831,-1.684673 -2.59375,-2.21289 -0.9724,-0.501426 -2.02388,-0.915815 -3.15039,-1.242188 -1.28228,-0.371958 -2.2786,-0.732501 -2.96289,-1.05664 -0.67337,-0.318962 -1.07997,-0.645929 -1.25391,-0.873047 -0.18492,-0.250858 -0.28125,-0.524813 -0.28125,-0.945313 0,-0.770797 0.193,-1.110963 0.74414,-1.451172 0.63545,-0.392249 1.40686,-0.601562 2.39258,-0.601562 0.76887,0 1.51924,0.12777 2.26953,0.392578 0.72456,0.255727 1.40767,0.661374 2.06445,1.238281 a 1.0001,1.0001 0 0 0 1.40235,-0.08203 l 1.53515,-1.699219 a 1.0001,1.0001 0 0 0 -0.0801,-1.419922 c -0.94818,-0.837937 -2.01883,-1.482385 -3.1914,-1.925781 -1.19548,-0.466217 -2.56163,-0.685547 -4.08985,-0.685547 z m 0,2 c 1.3385,0 2.45747,0.193606 3.36719,0.548828 a 1.0001,1.0001 0 0 0 0.01,0.0039 c 0.62605,0.236247 1.15228,0.649828 1.69922,1.02539 l -0.19727,0.216797 c -0.59947,-0.416332 -1.18516,-0.869579 -1.85352,-1.105469 -0.95455,-0.336901 -1.9394,-0.507812 -2.93554,-0.507812 -1.28071,0 -2.45418,0.289791 -3.44336,0.90039 -1.07348,0.66264 -1.69336,1.857275 -1.69336,3.152344 0,0.779488 0.22578,1.536552 0.67969,2.146485 a 1.0001,1.0001 0 0 0 0.006,0.0098 c 0.46873,0.615203 1.14312,1.068516 1.99218,1.470703 0.84003,0.39791 1.91849,0.779715 3.26368,1.169922 1.01608,0.294379 1.94857,0.662421 2.79882,1.101563 a 1.0001,1.0001 0 0 0 0.0117,0.0059 c 0.78781,0.393904 1.38782,0.908938 1.85352,1.574219 a 1.0001,1.0001 0 0 0 0.004,0.0039 c 0.40964,0.577876 0.65821,1.413358 0.65821,2.595703 0,1.028123 -0.24313,1.869597 -0.72657,2.615235 -0.47971,0.739901 -1.17249,1.328942 -2.1621,1.785156 -5e-4,2.24e-4 -0.001,-2.24e-4 -0.002,0 -0.95951,0.436598 -2.17824,0.677734 -3.67578,0.677734 -1.41275,0 -2.66374,-0.214626 -3.77148,-0.628906 -0.78077,-0.294652 -1.36666,-0.769464 -1.97461,-1.224609 l 0.21679,-0.242188 c 0.59945,0.449178 1.17817,0.926556 1.88477,1.230469 a 1.0001,1.0001 0 0 0 0.008,0.0039 c 1.08118,0.453398 2.31488,0.664063 3.68164,0.664063 0.94954,0 1.85986,-0.152738 2.70899,-0.466797 a 1.0001,1.0001 0 0 0 0.01,-0.0039 c 0.87606,-0.336022 1.63158,-0.868291 2.19727,-1.572265 a 1.0001,1.0001 0 0 0 0.006,-0.0059 c 0.6046,-0.765834 0.89258,-1.742218 0.89258,-2.787109 0,-0.791018 -0.16097,-1.534121 -0.51563,-2.177734 -0.37892,-0.698154 -1.00322,-1.23506 -1.77734,-1.658203 -0.76564,-0.428556 -1.74244,-0.80481 -2.9668,-1.167969 a 1.0001,1.0001 0 0 0 -0.002,-0.002 c -1.31549,-0.386908 -2.44054,-0.816735 -3.375,-1.283203 -0.8847,-0.455755 -1.5235,-0.985042 -1.96875,-1.574219 -0.39909,-0.550289 -0.61719,-1.234543 -0.61719,-2.169922 0,-0.848466 0.21794,-1.534777 0.67187,-2.171875 0.46267,-0.649363 1.09157,-1.159372 1.95704,-1.548828 a 1.0001,1.0001 0 0 0 0.004,-0.002 c 0.86446,-0.393716 1.87949,-0.601563 3.07617,-0.601563 z m 40.90039,2.859375 c -1.59957,0 -3.01138,0.411257 -4.09179,1.292969 -0.36855,0.300772 -0.58679,0.844142 -0.90625,1.224609 l -0.16211,-1.296875 a 1.0001,1.0001 0 0 0 -0.99219,-0.875 h -4.39258 a 1.0001,1.0001 0 0 0 -1,1 v 1.939453 a 1.0001,1.0001 0 0 0 1,1 h 1.4668 v 9.958985 h -1.4668 a 1.0001,1.0001 0 0 0 -1,1 v 1.941406 a 1.0001,1.0001 0 0 0 1,1 h 8.21485 a 1.0001,1.0001 0 0 0 1,-1 v -1.941406 a 1.0001,1.0001 0 0 0 -1,-1 h -2.22071 v -5.5 c 0.49059,-1.572316 1.11199,-2.71749 1.80078,-3.404297 0.47251,-0.471139 0.99126,-0.707604 1.55469,-0.849609 v 2.210937 a 1.0001,1.0001 0 0 0 1,1 h 2.07617 a 1.0001,1.0001 0 0 0 0.99805,-0.933594 l 0.36133,-5.355468 a 1.0001,1.0001 0 0 0 -0.73047,-1.03125 c -0.38143,-0.105951 -0.75896,-0.190342 -1.13477,-0.25586 -0.002,-4.92e-4 -0.005,4.9e-4 -0.008,0 -0.42238,-0.08634 -0.87569,-0.125 -1.36719,-0.125 z m 54.1543,0 c -1.59957,0 -3.01138,0.411257 -4.0918,1.292969 -0.36807,0.300379 -0.58714,0.842787 -0.90625,1.222656 l -0.1621,-1.294922 a 1.0001,1.0001 0 0 0 -0.99219,-0.875 h -4.39258 a 1.0001,1.0001 0 0 0 -1,1 v 1.939453 a 1.0001,1.0001 0 0 0 1,1 h 1.4668 v 9.958985 h -1.4668 a 1.0001,1.0001 0 0 0 -1,1 v 1.941406 a 1.0001,1.0001 0 0 0 1,1 h 8.21289 a 1.0001,1.0001 0 0 0 1,-1 v -1.941406 a 1.0001,1.0001 0 0 0 -1,-1 h -2.21875 v -5.5 c 0.49059,-1.572316 1.11199,-2.71749 1.80078,-3.404297 0.4725,-0.471139 0.99126,-0.707604 1.55469,-0.849609 v 2.210937 a 1.0001,1.0001 0 0 0 1,1 h 2.07617 a 1.0001,1.0001 0 0 0 0.99805,-0.933594 l 0.36133,-5.355468 a 1.0001,1.0001 0 0 0 -0.73047,-1.03125 c -0.38471,-0.10686 -0.76751,-0.192087 -1.14649,-0.257813 -0.42132,-0.0858 -0.87324,-0.123047 -1.36328,-0.123047 z m -76.64258,0.01367 c -1.57303,0 -3.01884,0.412353 -4.23437,1.242188 a 1.0001,1.0001 0 0 0 -0.004,0.0039 c -1.18594,0.817493 -2.11121,1.952478 -2.74804,3.33789 a 1.0001,1.0001 0 0 0 -0.002,0.0059 c -0.628,1.390569 -0.93164,2.962369 -0.93164,4.683594 0,1.749162 0.30239,3.335189 0.93164,4.728515 a 1.0001,1.0001 0 0 0 0.004,0.0098 c 0.64199,1.385364 1.59951,2.513789 2.83203,3.308594 a 1.0001,1.0001 0 0 0 0.004,0.002 c 1.2648,0.808066 2.78478,1.195312 4.47851,1.195312 1.10393,0 2.19363,-0.186463 3.24805,-0.552734 1.04925,-0.364476 1.99513,-0.873676 2.82031,-1.529297 a 1.0001,1.0001 0 0 0 0.19336,-1.363281 l -1.18945,-1.669922 a 1.0001,1.0001 0 0 0 -1.3711,-0.25 c -0.64846,0.4354 -1.25802,0.751368 -1.82031,0.958984 -0.52524,0.193933 -1.13607,0.300781 -1.84961,0.300781 -0.9922,0 -1.76788,-0.303306 -2.50195,-0.976562 l -0.002,-0.002 c -0.47723,-0.45129 -0.77746,-1.260186 -0.95508,-2.28711 h 9.47656 a 1.0001,1.0001 0 0 0 0.99805,-0.941406 c 0.0105,-0.178676 0.0211,-0.38996 0.0312,-0.634765 l -0.004,0.04297 c 0.0226,-0.271625 0.0332,-0.55609 0.0332,-0.851562 0,-2.56479 -0.62509,-4.719655 -1.95898,-6.322266 -1.32521,-1.604198 -3.25169,-2.439453 -5.47852,-2.439453 z m 54.1543,0 c -1.57303,0 -3.01884,0.412353 -4.23437,1.242188 a 1.0001,1.0001 0 0 0 -0.004,0.0039 c -1.18594,0.817493 -2.11121,1.952478 -2.74805,3.33789 a 1.0001,1.0001 0 0 0 -0.002,0.0059 c -0.62801,1.390569 -0.93164,2.962369 -0.93164,4.683594 0,1.749162 0.30239,3.335189 0.93164,4.728515 a 1.0001,1.0001 0 0 0 0.004,0.0098 c 0.64199,1.385364 1.5995,2.513789 2.83203,3.308594 a 1.0001,1.0001 0 0 0 0.004,0.002 c 1.26481,0.808066 2.78479,1.195312 4.47852,1.195312 1.10393,0 2.19168,-0.186463 3.24609,-0.552734 1.04925,-0.364476 1.99709,-0.873676 2.82227,-1.529297 a 1.0001,1.0001 0 0 0 0.1914,-1.363281 l -1.1875,-1.669922 a 1.0001,1.0001 0 0 0 -1.37304,-0.25 c -0.64847,0.4354 -1.25607,0.751368 -1.81836,0.958984 -0.52524,0.193933 -1.13607,0.300781 -1.84961,0.300781 -0.99415,0 -1.77051,-0.304419 -2.50586,-0.980468 -0.47667,-0.451299 -0.77562,-1.25909 -0.95313,-2.285157 h 9.47461 a 1.0001,1.0001 0 0 0 1,-0.941406 c 0.01,-0.166581 0.0178,-0.367858 0.0273,-0.591797 v -0.0039 c 0.0224,-0.270486 0.0332,-0.553537 0.0332,-0.847656 0,-2.564789 -0.62509,-4.719655 -1.95898,-6.322266 -1.32521,-1.604198 -3.25169,-2.439453 -5.47852,-2.439453 z m -25.51367,0.332031 a 1.0001,1.0001 0 0 0 -0.93945,1.337891 l 5.71679,15.841797 a 1.0001,1.0001 0 0 0 0.93946,0.660156 h 2.93359 a 1.0001,1.0001 0 0 0 0.93945,-0.658203 l 5.76172,-15.839844 a 1.0001,1.0001 0 0 0 -0.93945,-1.341797 h -2.61719 a 1.0001,1.0001 0 0 0 -0.94922,0.681641 l -3.58594,10.722656 -3.63476,-10.726562 a 1.0001,1.0001 0 0 0 -0.94727,-0.677735 z m -6.15235,1.654297 c 0.38823,0 0.71515,0.03097 0.97266,0.08398 a 1.0001,1.0001 0 0 0 0.0332,0.0059 c 0.0587,0.01006 0.12055,0.02968 0.17969,0.04102 l -0.24023,3.570312 h -0.14063 v -2.371094 a 1.0001,1.0001 0 0 0 -1,-1 h -0.13476 c -1.00955,0 -1.92199,0.360727 -2.75977,0.873047 0.0959,-0.0908 0.16512,-0.280899 0.26367,-0.361328 0.66455,-0.542332 1.5576,-0.841797 2.82617,-0.841797 z m 54.1543,0 c 0.38822,0 0.71514,0.03097 0.97266,0.08398 a 1.0001,1.0001 0 0 0 0.0312,0.0059 c 0.0591,0.01014 0.122,0.02958 0.18164,0.04102 l -0.24024,3.570312 h -0.14062 v -2.371094 a 1.0001,1.0001 0 0 0 -1,-1 h -0.13477 c -1.01102,0 -1.92501,0.36122 -2.76367,0.875 0.0965,-0.09142 0.16647,-0.282362 0.26563,-0.363281 0.66455,-0.542332 1.55955,-0.841797 2.82812,-0.841797 z m -76.64258,0.01367 c 1.76452,0 2.97622,0.549229 3.9375,1.712891 a 1.0001,1.0001 0 0 0 0.002,0.0039 c 0.97075,1.164907 1.49804,2.797809 1.49804,5.044922 0,0.138097 -0.008,0.258003 -0.0137,0.384765 h -1.25586 a 1.0001,1.0001 0 0 0 0.83399,-0.972656 c -0.0325,-1.831091 -0.42984,-3.346101 -1.34571,-4.443359 -0.8866,-1.07179 -2.19418,-1.654297 -3.62695,-1.654297 -1.4098,0 -2.70966,0.547653 -3.67187,1.558594 -1.01833,1.069877 -1.50487,2.611589 -1.61329,4.498047 a 1.0001,1.0001 0 0 0 0.93946,1.033203 1.0001,1.0001 0 0 0 -0.95508,1.019531 c 0.0762,1.991129 0.61118,3.622861 1.75781,4.705078 a 1.0001,1.0001 0 0 0 0.008,0.0078 c 1.06811,0.985025 2.41694,1.513671 3.86719,1.513671 0.91107,0 1.7645,-0.136394 2.54297,-0.423828 0.45333,-0.167386 0.91352,-0.462785 1.37109,-0.71875 l 0.0391,0.05469 c -0.44668,0.267118 -0.85867,0.566488 -1.39258,0.751953 -0.851,0.295609 -1.71009,0.441406 -2.5918,0.441406 -1.39319,0 -2.49773,-0.304515 -3.39844,-0.878906 -0.91237,-0.588354 -1.59853,-1.385358 -2.09961,-2.464844 -0.49246,-1.092661 -0.75195,-2.382609 -0.75195,-3.90039 0,-1.485572 0.25827,-2.758172 0.75195,-3.853516 l 0.002,-0.002 c 0.50626,-1.100248 1.18331,-1.91935 2.0625,-2.525391 0.86954,-0.592562 1.87029,-0.892578 3.10351,-0.892578 z m 54.1543,0 c 1.76452,0 2.97621,0.549229 3.9375,1.712891 a 1.0001,1.0001 0 0 0 0.002,0.0039 c 0.97076,1.164907 1.49805,2.797809 1.49805,5.044922 0,0.138097 -0.008,0.258003 -0.0137,0.384765 h -1.25586 a 1.0001,1.0001 0 0 0 0.83203,-0.972656 c -0.0325,-1.829991 -0.4271,-3.344306 -1.3418,-4.441406 -0.88665,-1.073965 -2.19462,-1.65625 -3.6289,-1.65625 -1.4098,0 -2.70966,0.547653 -3.67188,1.558594 -1.01832,1.069877 -1.50487,2.611589 -1.61328,4.498047 a 1.0001,1.0001 0 0 0 0.9375,1.033203 1.0001,1.0001 0 0 0 -0.95312,1.019531 c 0.0762,1.991129 0.60922,3.622861 1.75586,4.705078 a 1.0001,1.0001 0 0 0 0.01,0.0078 c 1.06811,0.985025 2.41694,1.513671 3.86719,1.513671 0.91107,0 1.76255,-0.136394 2.54101,-0.423828 0.45411,-0.167671 0.91469,-0.464154 1.37305,-0.720703 l 0.0391,0.05469 c -0.44704,0.267465 -0.86008,0.568257 -1.39453,0.753906 -0.85099,0.295609 -1.70813,0.441406 -2.58984,0.441406 -1.39319,0 -2.49773,-0.304516 -3.39844,-0.878906 -0.91237,-0.588354 -1.59853,-1.385358 -2.09961,-2.464844 -0.49247,-1.092661 -0.75195,-2.382609 -0.75195,-3.90039 0,-1.487164 0.25918,-2.761289 0.7539,-3.857422 2.5e-4,-5.35e-4 -2.4e-4,-0.0014 0,-0.002 0.50606,-1.098077 1.18447,-1.916236 2.0625,-2.521485 0.86955,-0.592562 1.8703,-0.892578 3.10352,-0.892578 z m -39.68359,0.332031 h 0.98242 l 0.35742,2.869141 a 1.0001,1.0001 0 0 0 1.10156,0.722656 c -0.35612,0.688321 -0.67036,1.447633 -0.93164,2.308594 a 1.0001,1.0001 0 0 0 -0.043,0.289062 v 6.708985 a 1.0001,1.0001 0 0 0 0.94141,0.941406 h -2.41016 A 1.0001,1.0001 0 0 0 191.375,73.357422 V 61.398437 a 1.0001,1.0001 0 0 0 -0.93945,-0.939453 z m 15.5957,0 h 0.53516 l 4.35937,12.859375 a 1.0001,1.0001 0 0 0 1.89453,-0.0039 l 4.29883,-12.855469 h 0.4707 l -5.03515,13.839844 h -1.5293 z m 38.55859,0 h 0.98243 l 0.35742,2.869141 a 1.0001,1.0001 0 0 0 1.10156,0.722656 c -0.35612,0.688321 -0.67037,1.447634 -0.93164,2.308594 a 1.0001,1.0001 0 0 0 -0.043,0.289062 v 6.708985 a 1.0001,1.0001 0 0 0 0.94141,0.941406 h -2.41016 a 1.0001,1.0001 0 0 0 0.94141,-0.941406 V 61.398437 a 1.0001,1.0001 0 0 0 -0.93946,-0.939453 z m -68.5957,1.744141 c 0.95249,0 1.55049,0.278756 2.08789,0.929687 a 1.0001,1.0001 0 0 0 0.004,0.0059 c 0.37537,0.449378 0.60905,1.224632 0.74414,2.179687 h -5.93555 c 0.18218,-0.964011 0.46078,-1.740486 0.87695,-2.177734 0.62228,-0.653786 1.28579,-0.9375 2.22266,-0.9375 z m 54.1543,0 c 0.95249,0 1.55049,0.278756 2.08789,0.929687 a 1.0001,1.0001 0 0 0 0.004,0.0059 c 0.37538,0.449378 0.60906,1.224632 0.74414,2.179687 h -5.9375 c 0.18218,-0.964105 0.46271,-1.740459 0.87891,-2.177734 0.62228,-0.653786 1.28579,-0.9375 2.22266,-0.9375 z"
         id="path32" />
    </g>
  </g>
</svg>
