<?xml version="1.0" encoding="UTF-8" standalone="no"?>
<!-- Created with Inkscape (http://www.inkscape.org/) -->

<svg
   width="300"
   height="300"
   viewBox="0 0 300 300"
   version="1.1"
   id="svg1"
   inkscape:version="1.4 (1:1.4+202410161351+e7c3feb100)"
   sodipodi:docname="template_speaking.svg"
   inkscape:export-filename="maker.png"
   inkscape:export-xdpi="96"
   inkscape:export-ydpi="96"
   xmlns:inkscape="http://www.inkscape.org/namespaces/inkscape"
   xmlns:sodipodi="http://sodipodi.sourceforge.net/DTD/sodipodi-0.dtd"
   xmlns="http://www.w3.org/2000/svg"
   xmlns:svg="http://www.w3.org/2000/svg">
  <sodipodi:namedview
     id="namedview1"
     pagecolor="#ffffff"
     bordercolor="#000000"
     borderopacity="0.25"
     inkscape:showpageshadow="2"
     inkscape:pageopacity="0.0"
     inkscape:pagecheckerboard="0"
     inkscape:deskcolor="#d1d1d1"
     inkscape:document-units="px"
     showgrid="true"
     inkscape:zoom="2"
     inkscape:cx="120.75"
     inkscape:cy="180.25"
     inkscape:window-width="1920"
     inkscape:window-height="1011"
     inkscape:window-x="1920"
     inkscape:window-y="32"
     inkscape:window-maximized="1"
     inkscape:current-layer="layer1">
    <inkscape:grid
       id="grid1"
       units="px"
       originx="0"
       originy="0"
       spacingx="1"
       spacingy="1"
       empcolor="#0099e5"
       empopacity="0.30196078"
       color="#0099e5"
       opacity="0.14901961"
       empspacing="5"
       enabled="true"
       visible="true" />
  </sodipodi:namedview>
  <defs
     id="defs1" />
  <g
     inkscape:label="Layer 1"
     inkscape:groupmode="layer"
     id="layer1">
    <g
       id="g1">
      <rect
         style="fill:#b1b1b1;fill-opacity:1;stroke:none;stroke-width:13.2913;stroke-linecap:round"
         id="rect3"
         width="83.070587"
         height="199.3694"
         x="108.46471"
         y="191.73235"
         rx="37.159996"
         ry="37.159996" />
      <path
         id="path1"
         style="fill:#b1b1b1;stroke:#b1b1b1;stroke-linecap:round;stroke-linejoin:round"
         d="m 152.50736,38.351559 a 70.357124,70.357124 0 0 0 -19.35547,2.000004 70.357124,70.357124 0 0 0 -35.150393,21.10156 14.384476,14.384476 45 0 1 2.394533,-0.222656 14.384476,14.384476 45 0 1 14.38477,14.384769 14.384476,14.384476 45 0 1 -14.38477,14.384766 14.384476,14.384476 45 0 1 -13.972655,-11.111327 70.357124,70.357124 0 0 0 -6.67383,33.859375 l 70.238285,-4.08399 -49.40625,50.0918 a 70.357124,70.357124 0 0 0 89.63866,7.62695 70.357124,70.357124 0 0 0 23.85938,-86.740233 70.357124,70.357124 0 0 0 -61.57226,-41.291018 z m -6.49609,22.263674 a 14.384476,14.384476 45 0 1 14.38476,14.384769 14.384476,14.384476 45 0 1 -14.38477,14.384769 14.384476,14.384476 45 0 1 -14.38476,-14.38477 14.384476,14.384476 45 0 1 14.38477,-14.384768 z" />
    </g>
  </g>
</svg>
