<?xml version="1.0" encoding="UTF-8" standalone="no"?>
<!-- Created with Inkscape (http://www.inkscape.org/) -->

<svg
   width="80"
   height="80"
   viewBox="0 0 80 80"
   version="1.1"
   id="svg1"
   inkscape:version="1.4 (1:1.4+202410161351+e7c3feb100)"
   sodipodi:docname="discord.svg"
   inkscape:export-filename="maker.png"
   inkscape:export-xdpi="96"
   inkscape:export-ydpi="96"
   xml:space="preserve"
   xmlns:inkscape="http://www.inkscape.org/namespaces/inkscape"
   xmlns:sodipodi="http://sodipodi.sourceforge.net/DTD/sodipodi-0.dtd"
   xmlns="http://www.w3.org/2000/svg"
   xmlns:svg="http://www.w3.org/2000/svg"><sodipodi:namedview
     id="namedview1"
     pagecolor="#ffffff"
     bordercolor="#000000"
     borderopacity="0.25"
     inkscape:showpageshadow="2"
     inkscape:pageopacity="0.0"
     inkscape:pagecheckerboard="0"
     inkscape:deskcolor="#d1d1d1"
     inkscape:document-units="px"
     showgrid="true"
     inkscape:zoom="8.0000002"
     inkscape:cx="28.124999"
     inkscape:cy="41.437499"
     inkscape:window-width="1920"
     inkscape:window-height="1043"
     inkscape:window-x="0"
     inkscape:window-y="0"
     inkscape:window-maximized="1"
     inkscape:current-layer="layer1"><inkscape:grid
       id="grid1"
       units="px"
       originx="0"
       originy="0"
       spacingx="1"
       spacingy="1"
       empcolor="#0099e5"
       empopacity="0.30196078"
       color="#0099e5"
       opacity="0.14901961"
       empspacing="5"
       enabled="true"
       visible="true" /></sodipodi:namedview><defs
     id="defs1" /><g
     inkscape:label="Layer 1"
     inkscape:groupmode="layer"
     id="layer1"><path
       fill="#fff"
       d="m 60.82571,21.0713 a 49.622358,49.622358 0 0 0 -12.378455,-3.808392 34.006535,34.006535 0 0 0 -1.58565,3.223212 46.097118,46.097118 0 0 0 -13.737583,0 34.15283,34.15283 0 0 0 -1.58565,-3.223212 49.971579,49.971579 0 0 0 -12.387893,3.817831 c -7.833867,11.590348 -9.9575061,22.892825 -8.895686,34.03485 v 0 a 49.896072,49.896072 0 0 0 15.181657,7.621503 36.668162,36.668162 0 0 0 3.251527,-5.243028 32.288747,32.288747 0 0 1 -5.120329,-2.444544 c 0.429447,-0.311467 0.849455,-0.632373 1.255306,-0.94384 a 35.662973,35.662973 0 0 0 30.353877,0 c 0.41057,0.335063 0.830578,0.655969 1.255306,0.94384 a 32.411446,32.411446 0 0 1 -5.129767,2.449263 36.337818,36.337818 0 0 0 3.251527,5.238309 49.66955,49.66955 0 0 0 15.191099,-7.616784 v 0 C 70.990864,42.199146 67.616634,31.000491 60.82571,21.0713 Z M 30.032948,48.263314 c -2.958937,0 -5.403481,-2.685223 -5.403481,-5.988661 0,-3.303438 2.359599,-6.012257 5.394043,-6.012257 3.034443,0 5.460111,2.708819 5.4082,6.012257 -0.05191,3.303438 -2.383195,5.988661 -5.398762,5.988661 z m 19.933889,0 c -2.963656,0 -5.398762,-2.685223 -5.398762,-5.988661 0,-3.303438 2.359599,-6.012257 5.398762,-6.012257 3.039163,0 5.445953,2.708819 5.394042,6.012257 -0.05191,3.303438 -2.378475,5.988661 -5.394042,5.988661 z"
       id="path1-5"
       style="fill:#b1b1b1;fill-opacity:1;stroke-width:0.47192" /></g></svg>
