<?xml version="1.0" encoding="UTF-8" standalone="no"?>
<!-- Created with Inkscape (http://www.inkscape.org/) -->

<svg
   width="80"
   height="80"
   viewBox="0 0 80 80"
   version="1.1"
   id="svg1"
   inkscape:version="1.4 (1:1.4+202410161351+e7c3feb100)"
   sodipodi:docname="steam.svg"
   inkscape:export-filename="maker.png"
   inkscape:export-xdpi="96"
   inkscape:export-ydpi="96"
   xml:space="preserve"
   xmlns:inkscape="http://www.inkscape.org/namespaces/inkscape"
   xmlns:sodipodi="http://sodipodi.sourceforge.net/DTD/sodipodi-0.dtd"
   xmlns="http://www.w3.org/2000/svg"
   xmlns:svg="http://www.w3.org/2000/svg"><sodipodi:namedview
     id="namedview1"
     pagecolor="#ffffff"
     bordercolor="#000000"
     borderopacity="0.25"
     inkscape:showpageshadow="2"
     inkscape:pageopacity="0.0"
     inkscape:pagecheckerboard="0"
     inkscape:deskcolor="#d1d1d1"
     inkscape:document-units="px"
     showgrid="true"
     inkscape:zoom="11.313709"
     inkscape:cx="39.50959"
     inkscape:cy="40.084115"
     inkscape:window-width="1920"
     inkscape:window-height="1011"
     inkscape:window-x="1920"
     inkscape:window-y="32"
     inkscape:window-maximized="1"
     inkscape:current-layer="layer1"><inkscape:grid
       id="grid1"
       units="px"
       originx="0"
       originy="0"
       spacingx="1"
       spacingy="1"
       empcolor="#0099e5"
       empopacity="0.30196078"
       color="#0099e5"
       opacity="0.14901961"
       empspacing="5"
       enabled="true"
       visible="true" /></sodipodi:namedview><defs
     id="defs1" /><g
     inkscape:label="Layer 1"
     inkscape:groupmode="layer"
     id="layer1"><path
       d="M 39.9475,10 C 24.195,10 11.2775,22.15 10.055001,37.5925 L 26.135,44.2375 c 1.3625,-0.9275 3.0075,-1.475 4.78,-1.475 0.1575,0 0.3125,0.01 0.470001,0.015 L 38.5375,32.4225 V 32.275 c 0,-6.2375 5.07,-11.31 11.310001,-11.31 6.234999,0 11.309999,5.0775 11.309999,11.3175 0,6.24 -5.075,11.3125 -11.309999,11.3125 H 49.585 l -10.19,7.2775 c 0,0.13 0.01,0.2625 0.01,0.3975 0,4.6875 -3.7875,8.49 -8.475,8.49 -4.0875,0 -7.54,-2.9325 -8.3275,-6.8175 L 11.09,48.175 C 14.654999,60.7675 26.215,70 39.9475,70 56.515,70 69.944999,56.5675 69.944999,40 69.944999,23.4325 56.5125,10 39.9475,10 Z M 28.85,55.525 25.1675,54 c 0.655,1.3575 1.785,2.4975 3.285001,3.125 3.242499,1.3475 6.982499,-0.19 8.329999,-3.4375 0.6575,-1.575 0.66,-3.2975 0.0125,-4.8725 -0.647501,-1.575 -1.875001,-2.8025 -3.442501,-3.4575 -1.56,-0.65 -3.224999,-0.6225 -4.695,-0.075 l 3.8075,1.575 c 2.39,1 3.5225,3.75 2.5225,6.1375 -0.9925,2.3925 -3.7425,3.525 -6.135,2.53 z M 57.387501,32.2675 c 0,-4.155 -3.382501,-7.5375 -7.537501,-7.5375 -4.1625,0 -7.5375,3.3825 -7.5375,7.5375 0,4.1625 3.375,7.5375 7.5375,7.5375 4.1575,0 7.537501,-3.375 7.537501,-7.5375 z M 44.205,32.254997 c 0,-3.13 2.5325,-5.665 5.6625,-5.665 3.1225,0 5.665,2.535 5.665,5.665 0,3.1275 -2.5425,5.662499 -5.665,5.662499 -3.132499,0 -5.6625,-2.534999 -5.6625,-5.662499 z"
       fill="#000000"
       stroke-width="2.5"
       id="path1"
       style="fill:#b1b1b1;fill-opacity:1" /></g></svg>
