<?xml version="1.0" encoding="UTF-8" standalone="no"?>
<!-- Created with Inkscape (http://www.inkscape.org/) -->

<svg
   width="400"
   height="400"
   viewBox="0 0 400 400"
   version="1.1"
   id="svg1"
   inkscape:version="1.4.1 (1:1.4.1+202503302257+93de688d07)"
   sodipodi:docname="duck.svg"
   inkscape:export-filename="maker.png"
   inkscape:export-xdpi="96"
   inkscape:export-ydpi="96"
   xml:space="preserve"
   xmlns:inkscape="http://www.inkscape.org/namespaces/inkscape"
   xmlns:sodipodi="http://sodipodi.sourceforge.net/DTD/sodipodi-0.dtd"
   xmlns="http://www.w3.org/2000/svg"
   xmlns:svg="http://www.w3.org/2000/svg"><sodipodi:namedview
     id="namedview1"
     pagecolor="#ffffff"
     bordercolor="#000000"
     borderopacity="0.25"
     inkscape:showpageshadow="2"
     inkscape:pageopacity="0.0"
     inkscape:pagecheckerboard="0"
     inkscape:deskcolor="#d1d1d1"
     inkscape:document-units="px"
     showgrid="true"
     inkscape:zoom="1.4142136"
     inkscape:cx="61.51829"
     inkscape:cy="261.98306"
     inkscape:window-width="1920"
     inkscape:window-height="1011"
     inkscape:window-x="1920"
     inkscape:window-y="32"
     inkscape:window-maximized="1"
     inkscape:current-layer="layer1"><inkscape:grid
       id="grid1"
       units="px"
       originx="0"
       originy="0"
       spacingx="1"
       spacingy="1"
       empcolor="#0099e5"
       empopacity="0.30196078"
       color="#0099e5"
       opacity="0.14901961"
       empspacing="5"
       enabled="true"
       visible="true" /></sodipodi:namedview><defs
     id="defs1" /><g
     inkscape:label="Layer 1"
     inkscape:groupmode="layer"
     id="layer1"><g
       id="g1"
       transform="translate(290.31642,-10.95058)"><circle
         style="fill:#7aeeff;fill-opacity:1"
         id="path1"
         cx="-73.22139"
         cy="135"
         r="62.5" /><ellipse
         style="fill:#ffffff;fill-opacity:1;stroke-width:1.41657"
         id="path3-3"
         cx="-105.57059"
         cy="114.62629"
         rx="15.150803"
         ry="25.373713" /><path
         style="fill:#565664;fill-opacity:1;stroke-width:1.86717"
         d="m -93.23576,135.00183 c -3.0445,-0.0933 -14.97464,3.37703 -19.02185,11.20306 -0.82173,0.81448 -9.36827,1.3789 -15.28751,6.41842 -2.86412,2.47805 -6.01065,14.66278 -9.86103,17.32973 -2.933,1.74746 -32.93831,8.48434 -32.50055,17.67983 4.03525,3.83978 38.26997,-5.85158 55.54851,-3.61765 20.455,4.75276 40.4854,9.99078 63.01721,12.37004 -1.24615,-5.22997 -1.54676,-10.83464 0.11671,-15.7543 2.16461,-4.97457 10.46118,-12.06231 10.50286,-13.42033 0.015,-1.15565 -11.15856,-10.27999 -12.72014,-11.31976 -1.80381,-1.20228 -16.75754,-5.33127 -17.15469,-6.53511 -5.9839,-7.71812 -19.38934,-14.22213 -22.63952,-14.35393 z"
         id="path2"
         sodipodi:nodetypes="cccccccccccc" /><ellipse
         style="fill:#ffffff;fill-opacity:1;stroke-width:1.41657"
         id="path3"
         cx="-55.872192"
         cy="113"
         rx="15.150803"
         ry="25.373713" /><ellipse
         style="fill:#3c3b44;fill-opacity:1;stroke-width:0.94908"
         id="path3-1"
         cx="-60.872192"
         cy="117"
         rx="10.150806"
         ry="17" /><ellipse
         style="fill:#3c3b44;fill-opacity:1;stroke-width:0.94908"
         id="path3-1-3"
         cx="-100.87219"
         cy="118"
         rx="10.150806"
         ry="17" /><path
         style="fill:#7af0ff;fill-opacity:1;stroke-width:1.34368"
         d="m -77.09082,74.371407 c 1.5509,-0.738199 11.09207,-18.918279 20.26377,-23.179909 3.15983,0.644025 -1.18706,17.89258 -3.87326,27.061915 L -70.46237,96.136919 -89.10591,100 -93.25572,75.773021 c -0.31814,-10.251391 0.93292,-18.457041 6.00755,-27.36727 4.00818,-0.397342 9.33369,25.129334 10.15735,25.965656 z"
         id="path4"
         sodipodi:nodetypes="cccccccc" /><ellipse
         style="fill:#555664;fill-opacity:1;stroke-width:1.6926"
         id="path5"
         transform="rotate(15)"
         ry="12.888688"
         rx="6.7704"
         cy="143.59555"
         cx="-4.3676124" /><ellipse
         style="fill:#555664;fill-opacity:1;stroke-width:1.6926"
         id="path5-6"
         transform="matrix(-0.96592583,0.25881905,0.25881905,0.96592583,0,0)"
         ry="12.888688"
         rx="6.7704"
         cy="100.96255"
         cx="153.29208" /><rect
         style="fill:#7aeeff;fill-opacity:1"
         id="rect5"
         width="78"
         height="171"
         x="-112.72139"
         y="202.5"
         rx="39"
         ry="39" /><rect
         style="fill:#ffffdd;fill-opacity:1;stroke-width:0.912281"
         id="rect5-2"
         width="71.15789"
         height="156"
         x="-109.30034"
         y="199.5"
         rx="35.578945"
         ry="35.578945" /></g></g></svg>
