<?xml version="1.0" encoding="UTF-8" standalone="no"?>
<!-- Created with Inkscape (http://www.inkscape.org/) -->

<svg
   width="400"
   height="400"
   viewBox="0 0 400 400"
   version="1.1"
   id="svg1"
   inkscape:version="1.4.1 (1:1.4.1+202503302257+93de688d07)"
   sodipodi:docname="pig.svg"
   inkscape:export-filename="maker.png"
   inkscape:export-xdpi="96"
   inkscape:export-ydpi="96"
   xml:space="preserve"
   xmlns:inkscape="http://www.inkscape.org/namespaces/inkscape"
   xmlns:sodipodi="http://sodipodi.sourceforge.net/DTD/sodipodi-0.dtd"
   xmlns="http://www.w3.org/2000/svg"
   xmlns:svg="http://www.w3.org/2000/svg"><sodipodi:namedview
     id="namedview1"
     pagecolor="#ffffff"
     bordercolor="#000000"
     borderopacity="0.25"
     inkscape:showpageshadow="2"
     inkscape:pageopacity="0.0"
     inkscape:pagecheckerboard="0"
     inkscape:deskcolor="#d1d1d1"
     inkscape:document-units="px"
     showgrid="true"
     inkscape:zoom="0.99999999"
     inkscape:cx="99.000001"
     inkscape:cy="369.5"
     inkscape:window-width="1920"
     inkscape:window-height="1011"
     inkscape:window-x="1920"
     inkscape:window-y="32"
     inkscape:window-maximized="1"
     inkscape:current-layer="layer1"><inkscape:grid
       id="grid1"
       units="px"
       originx="0"
       originy="0"
       spacingx="1"
       spacingy="1"
       empcolor="#0099e5"
       empopacity="0.30196078"
       color="#0099e5"
       opacity="0.14901961"
       empspacing="5"
       enabled="true"
       visible="true" /></sodipodi:namedview><defs
     id="defs1" /><g
     inkscape:label="Layer 1"
     inkscape:groupmode="layer"
     id="layer1"><g
       id="g1"
       transform="translate(0.32398037,1.6275189)"><circle
         style="fill:#fe8695;fill-opacity:1"
         id="path1-9"
         cx="198.82468"
         cy="123.75018"
         r="62.5" /><ellipse
         style="fill:#ffffff;fill-opacity:1;stroke-width:1.41657"
         id="path3-3-7"
         cx="166.47549"
         cy="103.37647"
         rx="15.150803"
         ry="25.373713" /><ellipse
         style="fill:#ffffff;fill-opacity:1;stroke-width:1.41657"
         id="path3-6"
         cx="216.17387"
         cy="101.75018"
         rx="15.150803"
         ry="25.373713" /><ellipse
         style="fill:#3c3b44;fill-opacity:1;stroke-width:0.94908"
         id="path3-1-1"
         cx="211.17387"
         cy="105.75018"
         rx="10.150806"
         ry="17" /><ellipse
         style="fill:#3c3b44;fill-opacity:1;stroke-width:0.94908"
         id="path3-1-3-2"
         cx="171.17389"
         cy="106.75018"
         rx="10.150806"
         ry="17" /><rect
         style="fill:#ff8795;fill-opacity:1"
         id="rect5-9"
         width="78"
         height="171"
         x="159.32468"
         y="191.25018"
         rx="39"
         ry="39" /><path
         style="fill:#df3b5f;fill-opacity:1;stroke-width:1.00857"
         d="m 221.45134,71.277867 c 6.39713,-9.113518 9.37253,-33.924206 -1.59012,-36.783088 -7.87488,0.228951 -38.66699,7.536544 -61.69695,38.094094 -0.20568,-0.680013 -0.58926,-1.717467 -0.75648,-2.535751 -36.59228,37.359658 -21.28788,95.069738 13.23115,109.356068 8.21729,3.40088 25.45711,12.89892 59.76893,0.36577 -0.0642,-1.16917 -2.7768,-1.93093 -2.5314,-2.5614 11.10789,-3.47681 23.97626,-12.4005 29.86753,-21.90464 -4.07097,0.13802 -13.8963,2.47258 -15.64415,2.38364 24.84574,-26.76408 22.26958,-51.04029 18.62764,-75.21984 -8.07825,2.43317 -15.66529,4.17615 -25.44204,8.99588 2.58689,-6.56526 1.90058,-17.665215 0.95408,-19.990821 -8.11883,1.102217 -16.11536,1.605446 -14.78819,-0.199912 z"
         id="path7"
         sodipodi:nodetypes="ccccscccccccc" /><path
         style="fill:#ff9bad;fill-opacity:1"
         d="m 175.88171,144.48688 c 5.70966,-6.1396 11.76567,-13.89525 19.79899,-12.02081 0.36921,9.21139 -0.014,24.19301 -15.46796,29.07976 -4.69686,2.4425 -29.61637,-7.44352 -24.57196,-28.46105 8.37646,-2.71724 14.12316,5.08456 20.24093,11.4021 z"
         id="path8"
         sodipodi:nodetypes="ccccc" /><rect
         style="fill:#691438;fill-opacity:1"
         id="rect8"
         width="3.4471455"
         height="7.3362327"
         x="216.06694"
         y="85.855957"
         rx="1.7235727"
         ry="1.7235727"
         transform="rotate(17.310805)" /><rect
         style="fill:#691438;fill-opacity:1"
         id="rect8-0"
         width="3.4471455"
         height="7.3362327"
         x="83.876419"
         y="205.86275"
         rx="1.7235727"
         ry="1.7235727"
         transform="rotate(-26.208499)" /><circle
         style="fill:#292624;fill-opacity:1"
         id="path6"
         cx="204.26132"
         cy="117.59926"
         r="4.9375" /><circle
         style="fill:#292624;fill-opacity:1"
         id="path6-6"
         cx="151.37961"
         cy="117.59926"
         r="4.9375" /></g></g></svg>
