<?xml version="1.0" encoding="UTF-8" standalone="no"?>
<!-- Created with Inkscape (http://www.inkscape.org/) -->

<svg
   width="400"
   height="400"
   viewBox="0 0 400 400"
   version="1.1"
   id="svg1"
   inkscape:version="1.4.1 (1:1.4.1+202503302257+93de688d07)"
   sodipodi:docname="pig2.svg"
   inkscape:export-filename="maker.png"
   inkscape:export-xdpi="96"
   inkscape:export-ydpi="96"
   xml:space="preserve"
   xmlns:inkscape="http://www.inkscape.org/namespaces/inkscape"
   xmlns:sodipodi="http://sodipodi.sourceforge.net/DTD/sodipodi-0.dtd"
   xmlns="http://www.w3.org/2000/svg"
   xmlns:svg="http://www.w3.org/2000/svg"><sodipodi:namedview
     id="namedview1"
     pagecolor="#ffffff"
     bordercolor="#000000"
     borderopacity="0.25"
     inkscape:showpageshadow="2"
     inkscape:pageopacity="0.0"
     inkscape:pagecheckerboard="0"
     inkscape:deskcolor="#d1d1d1"
     inkscape:document-units="px"
     showgrid="true"
     inkscape:zoom="16"
     inkscape:cx="185.75"
     inkscape:cy="120.71875"
     inkscape:window-width="1920"
     inkscape:window-height="1011"
     inkscape:window-x="1920"
     inkscape:window-y="32"
     inkscape:window-maximized="1"
     inkscape:current-layer="layer1"><inkscape:grid
       id="grid1"
       units="px"
       originx="0"
       originy="0"
       spacingx="1"
       spacingy="1"
       empcolor="#0099e5"
       empopacity="0.30196078"
       color="#0099e5"
       opacity="0.14901961"
       empspacing="5"
       enabled="true"
       visible="true" /></sodipodi:namedview><defs
     id="defs1" /><g
     inkscape:label="Layer 1"
     inkscape:groupmode="layer"
     id="layer1"><circle
       style="fill:#fe8695;fill-opacity:1"
       id="path1-9"
       cx="199.14865"
       cy="125.3777"
       r="62.5" /><ellipse
       style="fill:#ffffff;fill-opacity:1;stroke-width:1.41657"
       id="path3-3-7"
       cx="166.79947"
       cy="105.00399"
       rx="15.150803"
       ry="25.373713" /><ellipse
       style="fill:#ffffff;fill-opacity:1;stroke-width:1.41657"
       id="path3-6"
       cx="216.49785"
       cy="103.3777"
       rx="15.150803"
       ry="25.373713" /><ellipse
       style="fill:#3c3b44;fill-opacity:1;stroke-width:0.94908"
       id="path3-1-1"
       cx="211.49785"
       cy="107.3777"
       rx="10.150806"
       ry="17" /><ellipse
       style="fill:#3c3b44;fill-opacity:1;stroke-width:0.94908"
       id="path3-1-3-2"
       cx="171.49786"
       cy="108.3777"
       rx="10.150806"
       ry="17" /><rect
       style="fill:#ff8795;fill-opacity:1"
       id="rect5-9"
       width="78"
       height="171"
       x="159.64865"
       y="192.8777"
       rx="39"
       ry="39" /><path
       style="fill:#df3b5f;fill-opacity:1;stroke-width:1.00857"
       d="m 221.77532,72.905386 c 6.39713,-9.113518 9.37253,-33.924206 -1.59012,-36.783088 -7.87488,0.228951 -38.66699,7.536544 -61.69695,38.094094 -0.20568,-0.680013 -0.58926,-1.717467 -0.75648,-2.535751 -36.59228,37.359659 -21.28788,95.069739 13.23115,109.356069 8.21729,3.40088 25.45711,12.89892 59.76893,0.36577 -0.0642,-1.16917 -2.7768,-1.93093 -2.5314,-2.5614 11.10789,-3.47681 23.97626,-12.4005 29.86753,-21.90464 -4.07097,0.13802 -13.8963,2.47258 -15.64415,2.38364 24.84574,-26.76408 22.26958,-51.04029 18.62764,-75.219841 -8.07825,2.43317 -15.66529,4.17615 -25.44204,8.99588 2.58689,-6.56526 1.90058,-17.665215 0.95408,-19.990821 -8.11883,1.102217 -16.11536,1.605446 -14.78819,-0.199912 z"
       id="path7"
       sodipodi:nodetypes="ccccscccccccc" /><path
       style="fill:#ff9bad;fill-opacity:1"
       d="m 176.20569,144.1144 c 5.70966,-6.1396 11.76567,-13.89525 19.79899,-12.02081 0.36921,9.21139 -0.014,24.19301 -15.46796,29.07976 -4.69686,2.4425 -29.61637,-7.44352 -24.57196,-28.46105 8.37646,-2.71724 14.12316,5.08456 20.24093,11.4021 z"
       id="path8"
       sodipodi:nodetypes="ccccc" /><rect
       style="fill:#691438;fill-opacity:1"
       id="rect8"
       width="3.4471455"
       height="7.3362327"
       x="216.26541"
       y="85.403946"
       rx="1.7235727"
       ry="1.7235727"
       transform="rotate(17.310805)" /><rect
       style="fill:#691438;fill-opacity:1"
       id="rect8-0"
       width="3.4471455"
       height="7.3362327"
       x="84.331596"
       y="205.67165"
       rx="1.7235727"
       ry="1.7235727"
       transform="rotate(-26.208499)" /><circle
       style="fill:#292624;fill-opacity:1"
       id="path6"
       cx="204.5853"
       cy="119.22678"
       r="4.9375" /><circle
       style="fill:#292624;fill-opacity:1"
       id="path6-6"
       cx="151.70358"
       cy="119.22678"
       r="4.9375" /><rect
       style="fill:#ff8795;fill-opacity:1;stroke-width:0.61925"
       id="rect5-3-9"
       width="48.301517"
       height="105.89178"
       x="-19.947224"
       y="289.39023"
       rx="24.150759"
       ry="24.150759"
       transform="matrix(-0.6824561,0.73092658,0.73092658,0.6824561,0,0)" /><rect
       style="fill:#ff8795;fill-opacity:1;stroke-width:0.61925"
       id="rect5-3-1-3"
       width="48.301517"
       height="105.89178"
       x="-289.28702"
       y="241.05754"
       rx="24.150759"
       ry="24.150759"
       transform="matrix(-0.99986723,0.01629498,0.01629498,0.99986723,0,0)" /><rect
       style="fill:#ff8795;fill-opacity:1;stroke-width:0.61925"
       id="rect5-3-9-9"
       width="48.301517"
       height="105.89178"
       x="-303.33783"
       y="-60.897339"
       rx="24.150759"
       ry="24.150759"
       transform="matrix(-0.52938823,-0.84837969,-0.84837969,0.52938823,0,0)" /><rect
       style="fill:#ff8795;fill-opacity:1;stroke-width:0.61925"
       id="rect5-3-1-3-1"
       width="48.301517"
       height="105.89178"
       x="-233.93324"
       y="-206.09746"
       rx="24.150759"
       ry="24.150759"
       transform="matrix(0.24304494,-0.97001503,-0.97001503,-0.24304494,0,0)" /><path
       style="fill:#df3b5f;fill-opacity:1;stroke-width:1.08861"
       id="path6-3-1"
       sodipodi:type="arc"
       sodipodi:cx="-151.70358"
       sodipodi:cy="-119.32053"
       sodipodi:rx="5.375"
       sodipodi:ry="5.375"
       sodipodi:start="0"
       sodipodi:end="3.1415927"
       sodipodi:arc-type="slice"
       d="m -146.32858,-119.32053 a 5.375,5.375 0 0 1 -2.6875,4.65488 5.375,5.375 0 0 1 -5.375,0 5.375,5.375 0 0 1 -2.6875,-4.65488 h 5.375 z"
       transform="scale(-1)" /><path
       style="fill:#df3b5f;fill-opacity:1;stroke-width:1.08861"
       id="path6-3-1-3"
       sodipodi:type="arc"
       sodipodi:cx="-204.5853"
       sodipodi:cy="-119.32053"
       sodipodi:rx="5.375"
       sodipodi:ry="5.375"
       sodipodi:start="0"
       sodipodi:end="3.1415927"
       sodipodi:arc-type="slice"
       d="m -199.2103,-119.32053 a 5.375,5.375 0 0 1 -2.6875,4.65488 5.375,5.375 0 0 1 -5.375,0 5.375,5.375 0 0 1 -2.6875,-4.65488 h 5.375 z"
       transform="scale(-1)" /></g></svg>
