<?xml version="1.0" encoding="UTF-8" standalone="no"?>
<!-- Created with Inkscape (http://www.inkscape.org/) -->

<svg
   width="400"
   height="400"
   viewBox="0 0 400 400"
   version="1.1"
   id="svg1"
   inkscape:version="1.4 (1:1.4+202410161351+e7c3feb100)"
   sodipodi:docname="template_idle.svg"
   inkscape:export-filename="maker.png"
   inkscape:export-xdpi="96"
   inkscape:export-ydpi="96"
   xmlns:inkscape="http://www.inkscape.org/namespaces/inkscape"
   xmlns:sodipodi="http://sodipodi.sourceforge.net/DTD/sodipodi-0.dtd"
   xmlns="http://www.w3.org/2000/svg"
   xmlns:svg="http://www.w3.org/2000/svg">
  <sodipodi:namedview
     id="namedview1"
     pagecolor="#ffffff"
     bordercolor="#000000"
     borderopacity="0.25"
     inkscape:showpageshadow="2"
     inkscape:pageopacity="0.0"
     inkscape:pagecheckerboard="0"
     inkscape:deskcolor="#d1d1d1"
     inkscape:document-units="px"
     showgrid="true"
     inkscape:zoom="2.8284271"
     inkscape:cx="156.97771"
     inkscape:cy="142.30524"
     inkscape:window-width="1920"
     inkscape:window-height="1011"
     inkscape:window-x="1920"
     inkscape:window-y="32"
     inkscape:window-maximized="1"
     inkscape:current-layer="layer1">
    <inkscape:grid
       id="grid1"
       units="px"
       originx="0"
       originy="0"
       spacingx="1"
       spacingy="1"
       empcolor="#0099e5"
       empopacity="0.30196078"
       color="#0099e5"
       opacity="0.14901961"
       empspacing="5"
       enabled="true"
       visible="true" />
  </sodipodi:namedview>
  <defs
     id="defs1" />
  <g
     inkscape:label="Layer 1"
     inkscape:groupmode="layer"
     id="layer1">
    <rect
       style="fill:#b1b1b1;fill-opacity:1;stroke:none;stroke-width:13.2913;stroke-linecap:round"
       id="rect3"
       width="83.070587"
       height="199.3694"
       x="153.06349"
       y="191.73235"
       rx="37.159996"
       ry="37.159996" />
    <path
       id="path1"
       style="fill:#b1b1b1;stroke:#b1b1b1;stroke-linecap:round;stroke-linejoin:round"
       d="M 194.59961 38.304688 A 70.357124 70.357124 0 0 0 142.55078 61.464844 A 14.384476 14.384476 0 0 1 145 61.230469 A 14.384476 14.384476 0 0 1 159.38477 75.615234 A 14.384476 14.384476 0 0 1 145 90 A 14.384476 14.384476 0 0 1 130.99023 78.716797 A 70.357124 70.357124 0 0 0 124.24219 108.66211 A 70.357124 70.357124 0 0 0 194.59961 179.01953 A 70.357124 70.357124 0 0 0 264.95703 108.66211 A 70.357124 70.357124 0 0 0 194.59961 38.304688 z M 190.61523 60.615234 A 14.384476 14.384476 0 0 1 205 75 A 14.384476 14.384476 0 0 1 190.61523 89.384766 A 14.384476 14.384476 0 0 1 176.23047 75 A 14.384476 14.384476 0 0 1 190.61523 60.615234 z " />
  </g>
</svg>
