<?xml version="1.0" encoding="UTF-8" standalone="no"?>
<!-- Created with Inkscape (http://www.inkscape.org/) -->

<svg
   width="400"
   height="400"
   viewBox="0 0 400 400"
   version="1.1"
   id="svg1"
   inkscape:version="1.4 (1:1.4+202410161351+e7c3feb100)"
   sodipodi:docname="template_speaking.svg"
   inkscape:export-filename="maker.png"
   inkscape:export-xdpi="96"
   inkscape:export-ydpi="96"
   xmlns:inkscape="http://www.inkscape.org/namespaces/inkscape"
   xmlns:sodipodi="http://sodipodi.sourceforge.net/DTD/sodipodi-0.dtd"
   xmlns="http://www.w3.org/2000/svg"
   xmlns:svg="http://www.w3.org/2000/svg">
  <sodipodi:namedview
     id="namedview1"
     pagecolor="#ffffff"
     bordercolor="#000000"
     borderopacity="0.25"
     inkscape:showpageshadow="2"
     inkscape:pageopacity="0.0"
     inkscape:pagecheckerboard="0"
     inkscape:deskcolor="#d1d1d1"
     inkscape:document-units="px"
     showgrid="true"
     inkscape:zoom="2.8284271"
     inkscape:cx="157.15448"
     inkscape:cy="141.95169"
     inkscape:window-width="1920"
     inkscape:window-height="1011"
     inkscape:window-x="1920"
     inkscape:window-y="32"
     inkscape:window-maximized="1"
     inkscape:current-layer="layer1">
    <inkscape:grid
       id="grid1"
       units="px"
       originx="0"
       originy="0"
       spacingx="1"
       spacingy="1"
       empcolor="#0099e5"
       empopacity="0.30196078"
       color="#0099e5"
       opacity="0.14901961"
       empspacing="5"
       enabled="true"
       visible="true" />
  </sodipodi:namedview>
  <defs
     id="defs1" />
  <g
     inkscape:label="Layer 1"
     inkscape:groupmode="layer"
     id="layer1">
    <rect
       style="fill:#b1b1b1;fill-opacity:1;stroke:none;stroke-width:13.2913;stroke-linecap:round"
       id="rect3"
       width="83.070587"
       height="199.3694"
       x="153.06349"
       y="191.73235"
       rx="37.159996"
       ry="37.159996" />
    <path
       id="path1"
       style="fill:#b1b1b1;stroke:#b1b1b1;stroke-linecap:round;stroke-linejoin:round"
       d="M -151.52764 131.76909 A 70.357124 70.357124 0 0 1 -133.76531 123.82341 A 70.357124 70.357124 0 0 1 -92.773396 124.5227 A 14.384476 14.384476 0 0 0 -94.958449 125.52714 A 14.384476 14.384476 0 0 0 -100.22364 145.1771 A 14.384476 14.384476 0 0 0 -80.573684 150.44229 A 14.384476 14.384476 0 0 0 -74.028672 133.83327 A 70.357124 70.357124 0 0 1 -51.31928 159.81943 L -114.18941 191.40174 L -46.356442 210.07938 A 70.357124 70.357124 0 0 1 -120.17233 261.50385 A 70.357124 70.357124 0 0 1 -184.20527 198.31429 A 70.357124 70.357124 0 0 1 -151.52764 131.76909 z M -134.77002 147.80195 A 14.384476 14.384476 0 0 0 -140.03521 167.45191 A 14.384476 14.384476 0 0 0 -120.38525 172.7171 A 14.384476 14.384476 0 0 0 -115.12006 153.06714 A 14.384476 14.384476 0 0 0 -134.77002 147.80195 z "
       transform="matrix(-0.8660254,0.5,0.5,0.8660254,0,0)" />
  </g>
</svg>
