<?xml version="1.0" encoding="UTF-8" standalone="no"?>
<!-- Created with Inkscape (http://www.inkscape.org/) -->

<svg
   width="80"
   height="80"
   viewBox="0 0 80 80"
   version="1.1"
   id="svg1"
   inkscape:version="1.4 (1:1.4+202410161351+e7c3feb100)"
   sodipodi:docname="save.svg"
   inkscape:export-filename="maker.png"
   inkscape:export-xdpi="96"
   inkscape:export-ydpi="96"
   xmlns:inkscape="http://www.inkscape.org/namespaces/inkscape"
   xmlns:sodipodi="http://sodipodi.sourceforge.net/DTD/sodipodi-0.dtd"
   xmlns="http://www.w3.org/2000/svg"
   xmlns:svg="http://www.w3.org/2000/svg">
  <sodipodi:namedview
     id="namedview1"
     pagecolor="#ffffff"
     bordercolor="#000000"
     borderopacity="0.25"
     inkscape:showpageshadow="2"
     inkscape:pageopacity="0.0"
     inkscape:pagecheckerboard="0"
     inkscape:deskcolor="#d1d1d1"
     inkscape:document-units="px"
     showgrid="true"
     inkscape:zoom="0.3535534"
     inkscape:cx="-609.52603"
     inkscape:cy="12.727922"
     inkscape:window-width="1247"
     inkscape:window-height="1043"
     inkscape:window-x="50"
     inkscape:window-y="0"
     inkscape:window-maximized="0"
     inkscape:current-layer="layer1">
    <inkscape:grid
       id="grid1"
       units="px"
       originx="0"
       originy="0"
       spacingx="1"
       spacingy="1"
       empcolor="#0099e5"
       empopacity="0.30196078"
       color="#0099e5"
       opacity="0.14901961"
       empspacing="5"
       enabled="true"
       visible="true" />
  </sodipodi:namedview>
  <defs
     id="defs1" />
  <g
     inkscape:label="Layer 1"
     inkscape:groupmode="layer"
     id="layer1">
    <path
       id="rect1"
       style="fill:#b1b1b1;fill-opacity:1;stroke:none;stroke-width:2;stroke-linecap:round"
       d="M 15 5 C 9.46 5 5 9.46 5 15 L 5 65 C 5 70.54 9.46 75 15 75 L 65 75 C 70.54 75 75 70.54 75 65 L 75 20 L 60 5 L 15 5 z M 25 8 L 29 8 L 46 8 L 50 8 L 50 11.199219 L 50 15 L 50 16.800781 C 50 18.573581 48.216 20 46 20 L 29 20 C 26.784 20 25 18.573581 25 16.800781 L 25 15 L 25 11.199219 L 25 8 z M 21 44 L 59 44 C 62.324 44 65 46.676 65 50 L 65 59 L 65 64 L 65 71 L 15 71 L 15 64 L 15 59 L 15 50 C 15 46.676 17.676 44 21 44 z " />
  </g>
</svg>
