<?xml version="1.0" encoding="UTF-8" standalone="no"?>
<!-- Created with Inkscape (http://www.inkscape.org/) -->

<svg
   width="400"
   height="200"
   viewBox="0 0 400 200"
   version="1.1"
   id="svg1"
   inkscape:version="1.4.1 (1:1.4.1+202503302257+93de688d07)"
   sodipodi:docname="modem.svg"
   inkscape:export-filename="maker.png"
   inkscape:export-xdpi="96"
   inkscape:export-ydpi="96"
   xmlns:inkscape="http://www.inkscape.org/namespaces/inkscape"
   xmlns:sodipodi="http://sodipodi.sourceforge.net/DTD/sodipodi-0.dtd"
   xmlns="http://www.w3.org/2000/svg"
   xmlns:svg="http://www.w3.org/2000/svg">
  <sodipodi:namedview
     id="namedview1"
     pagecolor="#ffffff"
     bordercolor="#000000"
     borderopacity="0.25"
     inkscape:showpageshadow="2"
     inkscape:pageopacity="0.0"
     inkscape:pagecheckerboard="0"
     inkscape:deskcolor="#d1d1d1"
     inkscape:document-units="px"
     showgrid="true"
     inkscape:zoom="1.4142136"
     inkscape:cx="171.82694"
     inkscape:cy="215.31401"
     inkscape:window-width="1920"
     inkscape:window-height="1011"
     inkscape:window-x="1920"
     inkscape:window-y="32"
     inkscape:window-maximized="1"
     inkscape:current-layer="layer1">
    <inkscape:grid
       id="grid1"
       units="px"
       originx="0"
       originy="0"
       spacingx="1"
       spacingy="1"
       empcolor="#0099e5"
       empopacity="0.30196078"
       color="#0099e5"
       opacity="0.14901961"
       empspacing="5"
       enabled="true"
       visible="true" />
  </sodipodi:namedview>
  <defs
     id="defs1" />
  <g
     inkscape:label="Layer 1"
     inkscape:groupmode="layer"
     id="layer1">
    <g
       id="path3"
       style="opacity:1">
      <path
         style="baseline-shift:baseline;display:inline;overflow:visible;vector-effect:none;fill:#008000;stroke-linecap:round;stroke-linejoin:round;enable-background:accumulate;stop-color:#000000;stop-opacity:1"
         d="m 376.16211,27.615234 a 2.5,2.5 0 0 0 -1.90625,0.167969 l -115,60 a 2.5,2.5 0 0 0 -1.05859,3.373047 2.5,2.5 0 0 0 3.37109,1.060547 l 115,-60 a 2.5,2.5 0 0 0 1.06055,-3.373047 2.5,2.5 0 0 0 -1.4668,-1.228516 z"
         id="path16" />
      <g
         id="g6">
        <path
           style="baseline-shift:baseline;display:inline;overflow:visible;vector-effect:none;fill:#008000;stroke-linecap:round;enable-background:accumulate;stop-color:#000000;stop-opacity:1;opacity:1"
           d="m 266.41406,67.955078 a 2.5,2.5 0 0 0 -3.13476,1.636719 l -7.10938,22.621094 22.62305,7.111328 a 2.5,2.5 0 0 0 3.13476,-1.636719 2.5,2.5 0 0 0 -1.63671,-3.134766 l -17.85157,-5.609375 5.61133,-17.853515 a 2.5,2.5 0 0 0 -1.63672,-3.134766 z"
           id="path6" />
      </g>
    </g>
    <g
       id="path3-92"
       style="opacity:1">
      <path
         style="baseline-shift:baseline;display:inline;overflow:visible;vector-effect:none;fill:#008000;stroke-linecap:round;stroke-linejoin:round;enable-background:accumulate;stop-color:#000000;stop-opacity:1"
         d="m 108.19141,100 a 2.5,2.5 0 0 0 -2.5,2.5 2.5,2.5 0 0 0 2.5,2.5 h 92.2207 a 2.5,2.5 0 0 0 2.5,-2.5 2.5,2.5 0 0 0 -2.5,-2.5 z"
         id="path5" />
      <g
         id="g3">
        <path
           style="baseline-shift:baseline;display:inline;overflow:visible;vector-effect:none;fill:#008000;stroke-linecap:round;enable-background:accumulate;stop-color:#000000;stop-opacity:1;opacity:1"
           d="M 120.17383,85.732422 103.40625,102.5 l 16.76758,16.76758 a 2.5,2.5 0 0 0 3.53711,0 2.5,2.5 0 0 0 0,-3.53516 L 110.47852,102.5 123.71094,89.267578 a 2.5,2.5 0 0 0 0,-3.535156 2.5,2.5 0 0 0 -3.53711,0 z"
           id="path4" />
      </g>
    </g>
    <g
       id="path3-9"
       style="opacity:1">
      <path
         style="baseline-shift:baseline;display:inline;overflow:visible;vector-effect:none;fill:#008000;stroke-linecap:round;stroke-linejoin:round;enable-background:accumulate;stop-color:#000000;stop-opacity:1"
         d="m 261.49219,112.74414 a 2.5,2.5 0 0 0 -3.33399,1.17774 2.5,2.5 0 0 0 1.17578,3.33398 l 115,55 a 2.5,2.5 0 0 0 3.33399,-1.17774 2.5,2.5 0 0 0 -1.17578,-3.33398 z"
         id="path18" />
      <g
         id="g17">
        <path
           style="baseline-shift:baseline;display:inline;overflow:visible;vector-effect:none;fill:#008000;stroke-linecap:round;enable-background:accumulate;stop-color:#000000;stop-opacity:1;opacity:1"
           d="m 278.45703,105.04297 -22.36133,7.89258 7.89258,22.36132 a 2.5,2.5 0 0 0 3.18945,1.5254 2.5,2.5 0 0 0 1.52539,-3.18946 l -6.22851,-17.64648 17.64648,-6.22852 a 2.5,2.5 0 0 0 1.52539,-3.18945 2.5,2.5 0 0 0 -3.18945,-1.52539 z"
           id="path17" />
      </g>
    </g>
    <g
       id="g1"
       transform="translate(-141.80778,40.221264)">
      <path
         id="rect4"
         style="fill:#afafaf;stroke-width:13.8462;stroke-linecap:round;stroke-linejoin:round"
         d="m 160,32.307693 v 55.384614 h 90 V 32.307693 Z m 6.92308,4.260667 h 76.15384 v 46.863279 h -76.15384 z" />
      <rect
         style="fill:#afafaf;stroke-width:19.3228;stroke-linecap:round;stroke-linejoin:round"
         id="rect5"
         width="6.9230719"
         height="14.538462"
         x="201.53847"
         y="87.692307" />
      <rect
         style="fill:#afafaf;stroke-width:23.0951;stroke-linecap:round;stroke-linejoin:round"
         id="rect5-6"
         width="6.9230719"
         height="20.76923"
         x="98.769234"
         y="-215.38461"
         transform="rotate(90)" />
    </g>
    <g
       id="text15-0-75"
       transform="translate(-139.20279,-15.192309)">
      <path
         style="-inkscape-font-specification:'FiraCode Nerd Font';fill:#afafaf;stroke-linecap:round;stroke-linejoin:round"
         d="m 164.77316,69.56708 q 0,1.790083 -0.88752,3.15897 -0.88752,1.368888 -2.58735,2.151109 -1.68478,0.767179 -4.09162,0.767179 -2.27145,0 -4.1217,-0.691965 -1.83521,-0.691965 -3.14393,-1.955554 l 1.5494,-1.744955 q 1.06803,1.007862 2.46701,1.609571 1.39897,0.586666 3.29435,0.586666 1.26359,0 2.36171,-0.406154 1.09812,-0.421196 1.77504,-1.263588 0.67692,-0.857435 0.67692,-2.166151 0,-0.99282 -0.39111,-1.699827 -0.39111,-0.722051 -1.38393,-1.263589 -0.99282,-0.55658 -2.76786,-1.083075 -2.04581,-0.601709 -3.55008,-1.353845 -1.48923,-0.767178 -2.31658,-1.865297 -0.81231,-1.113161 -0.81231,-2.76786 0,-1.5494 0.85744,-2.752817 0.85743,-1.203418 2.36171,-1.88034 1.51931,-0.691965 3.48991,-0.691965 2.1511,0 3.73059,0.616751 1.59453,0.601709 2.8882,1.744956 l -1.53436,1.699827 q -1.11316,-0.977777 -2.39179,-1.429058 -1.27863,-0.451282 -2.60239,-0.451282 -1.69982,0 -2.91829,0.752136 -1.21846,0.752136 -1.21846,2.301536 0,0.902563 0.48137,1.5494 0.48137,0.631794 1.62462,1.173332 1.14324,0.541537 3.11384,1.113161 1.60957,0.466324 2.97846,1.173332 1.38393,0.691965 2.22632,1.895382 0.84239,1.188375 0.84239,3.174014 z m 6.91966,-1.293674 q 0.1053,2.752817 1.4441,4.016406 1.35385,1.248545 3.18906,1.248545 1.21846,0 2.19624,-0.361025 0.97777,-0.361025 2.03076,-1.068033 l 1.18838,1.669742 q -1.09812,0.872477 -2.52718,1.368887 -1.42906,0.49641 -2.91829,0.49641 -2.31657,0 -3.94119,-1.037948 -1.60957,-1.037947 -2.467,-2.888202 -0.8424,-1.865297 -0.8424,-4.31726 0,-2.406835 0.8424,-4.272132 0.85743,-1.865297 2.40683,-2.93333 1.56444,-1.068032 3.67042,-1.068032 2.99351,0 4.70838,2.075895 1.72991,2.075895 1.72991,5.686147 0,0.406153 -0.0301,0.767178 -0.015,0.361026 -0.0301,0.616752 z m 4.30222,-7.070077 q -1.76,0 -2.94837,1.248545 -1.18838,1.248546 -1.3388,3.865979 h 8.25845 q -0.0451,-2.54222 -1.11316,-3.820851 -1.06804,-1.293673 -2.85812,-1.293673 z m 11.91384,14.095026 v -1.94051 h 2.46701 V 61.398884 h -2.46701 v -1.940511 h 4.39248 l 0.46632,3.745637 q 0.91761,-1.955553 2.22632,-3.023586 1.30872,-1.068033 3.45983,-1.068033 0.66188,0 1.17333,0.105299 0.5265,0.09026 1.06803,0.240683 l -0.36102,5.355208 h -2.0759 v -3.369569 q -0.0602,0 -0.13538,0 -3.64034,0 -5.21982,5.20478 v 6.709053 h 3.21914 v 1.94051 z m 31.10836,-15.839982 -5.76136,15.839982 h -2.93333 l -5.71624,-15.839982 h 2.67761 l 4.58803,13.538446 4.52785,-13.538446 z m 6.8294,8.815033 q 0.1053,2.752817 1.4441,4.016406 1.35385,1.248545 3.18906,1.248545 1.21846,0 2.19624,-0.361025 0.97777,-0.361025 2.03076,-1.068033 l 1.18838,1.669742 q -1.09812,0.872477 -2.52718,1.368887 -1.42906,0.49641 -2.91829,0.49641 -2.31657,0 -3.94119,-1.037948 -1.60957,-1.037947 -2.467,-2.888202 -0.8424,-1.865297 -0.8424,-4.31726 0,-2.406835 0.8424,-4.272132 0.85743,-1.865297 2.40683,-2.93333 1.56444,-1.068032 3.67042,-1.068032 2.99351,0 4.70838,2.075895 1.72991,2.075895 1.72991,5.686147 0,0.406153 -0.0301,0.767178 -0.015,0.361026 -0.0301,0.616752 z m 4.30222,-7.070077 q -1.76,0 -2.94837,1.248545 -1.18838,1.248546 -1.3388,3.865979 h 8.25845 q -0.0451,-2.54222 -1.11316,-3.820851 -1.06804,-1.293673 -2.85812,-1.293673 z m 11.91384,14.095026 v -1.94051 h 2.46701 V 61.398884 h -2.46701 v -1.940511 h 4.39247 l 0.46633,3.745637 q 0.9176,-1.955553 2.22632,-3.023586 1.30872,-1.068033 3.45983,-1.068033 0.66188,0 1.17333,0.105299 0.52649,0.09026 1.06803,0.240683 l -0.36102,5.355208 h -2.0759 v -3.369569 q -0.0602,0 -0.13538,0 -3.64034,0 -5.21983,5.20478 v 6.709053 h 3.21914 v 1.94051 z"
         id="path31" />
      <path
         style="-inkscape-font-specification:'FiraCode Nerd Font';fill:#afafaf;stroke-linecap:round;stroke-linejoin:round"
         d="m 157.55273,53.253906 c -1.42926,0 -2.74001,0.251535 -3.90039,0.779297 -1.14024,0.513106 -2.08505,1.257696 -2.76562,2.212891 -0.68932,0.967458 -1.04297,2.114631 -1.04297,3.332031 0,1.26677 0.32329,2.424725 1.00391,3.357422 a 1.0001,1.0001 0 0 0 0.01,0.01367 c 0.65774,0.873001 1.55778,1.586463 2.65625,2.152343 a 1.0001,1.0001 0 0 0 0.0117,0.0039 c 1.06914,0.534571 2.30526,1.005817 3.71289,1.419922 1.13999,0.338132 2.00504,0.683578 2.5625,0.996093 a 1.0001,1.0001 0 0 0 0.0117,0.0059 c 0.54632,0.297991 0.84059,0.599489 0.98242,0.861328 a 1.0001,1.0001 0 0 0 0.004,0.0078 c 0.16476,0.297848 0.26758,0.684277 0.26758,1.214844 0,0.699253 -0.16559,1.167735 -0.46289,1.544922 -0.33534,0.415432 -0.76051,0.724748 -1.34375,0.949219 -0.61301,0.225718 -1.27545,0.341797 -2.00782,0.341797 -1.15814,0 -2.11906,-0.180213 -2.90234,-0.507813 -0.82914,-0.357287 -1.54742,-0.824788 -2.17188,-1.414062 a 1.0001,1.0001 0 0 0 -1.43554,0.0625 l -1.54883,1.74414 a 1.0001,1.0001 0 0 0 0.0527,1.384766 c 0.9749,0.941274 2.14826,1.667357 3.48633,2.171875 a 1.0001,1.0001 0 0 0 0.002,0 c 1.35926,0.50834 2.85682,0.755859 4.47266,0.755859 1.71081,0 3.21922,-0.27154 4.50586,-0.857422 a 1.0001,1.0001 0 0 0 0.004,-0.002 c 1.27442,-0.586457 2.30489,-1.431465 3.00781,-2.515625 0.69992,-1.079545 1.04883,-2.34447 1.04883,-3.703125 0,-1.462457 -0.31269,-2.740322 -1.02344,-3.746094 l -0.002,-0.002 c -0.6568,-0.937453 -1.53831,-1.684673 -2.59375,-2.21289 -0.9724,-0.501426 -2.02388,-0.915815 -3.15039,-1.242188 -1.28228,-0.371958 -2.2786,-0.732501 -2.96289,-1.05664 -0.67337,-0.318962 -1.07997,-0.645929 -1.25391,-0.873047 -0.18492,-0.250858 -0.28125,-0.524813 -0.28125,-0.945313 0,-0.770797 0.193,-1.110963 0.74414,-1.451172 0.63545,-0.392249 1.40686,-0.601562 2.39258,-0.601562 0.76887,0 1.51924,0.12777 2.26953,0.392578 0.72456,0.255727 1.40767,0.661374 2.06445,1.238281 a 1.0001,1.0001 0 0 0 1.40235,-0.08203 l 1.53515,-1.699219 a 1.0001,1.0001 0 0 0 -0.0801,-1.419922 c -0.94818,-0.837937 -2.01883,-1.482385 -3.1914,-1.925781 -1.19548,-0.466217 -2.56163,-0.685547 -4.08985,-0.685547 z m 0,2 c 1.3385,0 2.45747,0.193606 3.36719,0.548828 a 1.0001,1.0001 0 0 0 0.01,0.0039 c 0.62605,0.236247 1.15228,0.649828 1.69922,1.02539 l -0.19727,0.216797 c -0.59947,-0.416332 -1.18516,-0.869579 -1.85352,-1.105469 -0.95455,-0.336901 -1.9394,-0.507812 -2.93554,-0.507812 -1.28071,0 -2.45418,0.289791 -3.44336,0.90039 -1.07348,0.66264 -1.69336,1.857275 -1.69336,3.152344 0,0.779488 0.22578,1.536552 0.67969,2.146485 a 1.0001,1.0001 0 0 0 0.006,0.0098 c 0.46873,0.615203 1.14312,1.068516 1.99218,1.470703 0.84003,0.39791 1.91849,0.779715 3.26368,1.169922 1.01608,0.294379 1.94857,0.662421 2.79882,1.101563 a 1.0001,1.0001 0 0 0 0.0117,0.0059 c 0.78781,0.393904 1.38782,0.908938 1.85352,1.574219 a 1.0001,1.0001 0 0 0 0.004,0.0039 c 0.40964,0.577876 0.65821,1.413358 0.65821,2.595703 0,1.028123 -0.24313,1.869597 -0.72657,2.615235 -0.47971,0.739901 -1.17249,1.328942 -2.1621,1.785156 -5e-4,2.24e-4 -0.001,-2.24e-4 -0.002,0 -0.95951,0.436598 -2.17824,0.677734 -3.67578,0.677734 -1.41275,0 -2.66374,-0.214626 -3.77148,-0.628906 -0.78077,-0.294652 -1.36666,-0.769464 -1.97461,-1.224609 l 0.21679,-0.242188 c 0.59945,0.449178 1.17817,0.926556 1.88477,1.230469 a 1.0001,1.0001 0 0 0 0.008,0.0039 c 1.08118,0.453398 2.31488,0.664063 3.68164,0.664063 0.94954,0 1.85986,-0.152738 2.70899,-0.466797 a 1.0001,1.0001 0 0 0 0.01,-0.0039 c 0.87606,-0.336022 1.63158,-0.868291 2.19727,-1.572265 a 1.0001,1.0001 0 0 0 0.006,-0.0059 c 0.6046,-0.765834 0.89258,-1.742218 0.89258,-2.787109 0,-0.791018 -0.16097,-1.534121 -0.51563,-2.177734 -0.37892,-0.698154 -1.00322,-1.23506 -1.77734,-1.658203 -0.76564,-0.428556 -1.74244,-0.80481 -2.9668,-1.167969 a 1.0001,1.0001 0 0 0 -0.002,-0.002 c -1.31549,-0.386908 -2.44054,-0.816735 -3.375,-1.283203 -0.8847,-0.455755 -1.5235,-0.985042 -1.96875,-1.574219 -0.39909,-0.550289 -0.61719,-1.234543 -0.61719,-2.169922 0,-0.848466 0.21794,-1.534777 0.67187,-2.171875 0.46267,-0.649363 1.09157,-1.159372 1.95704,-1.548828 a 1.0001,1.0001 0 0 0 0.004,-0.002 c 0.86446,-0.393716 1.87949,-0.601563 3.07617,-0.601563 z m 40.90039,2.859375 c -1.59957,0 -3.01138,0.411257 -4.09179,1.292969 -0.36855,0.300772 -0.58679,0.844142 -0.90625,1.224609 l -0.16211,-1.296875 a 1.0001,1.0001 0 0 0 -0.99219,-0.875 h -4.39258 a 1.0001,1.0001 0 0 0 -1,1 v 1.939453 a 1.0001,1.0001 0 0 0 1,1 h 1.4668 v 9.958985 h -1.4668 a 1.0001,1.0001 0 0 0 -1,1 v 1.941406 a 1.0001,1.0001 0 0 0 1,1 h 8.21485 a 1.0001,1.0001 0 0 0 1,-1 v -1.941406 a 1.0001,1.0001 0 0 0 -1,-1 h -2.22071 v -5.5 c 0.49059,-1.572316 1.11199,-2.71749 1.80078,-3.404297 0.47251,-0.471139 0.99126,-0.707604 1.55469,-0.849609 v 2.210937 a 1.0001,1.0001 0 0 0 1,1 h 2.07617 a 1.0001,1.0001 0 0 0 0.99805,-0.933594 l 0.36133,-5.355468 a 1.0001,1.0001 0 0 0 -0.73047,-1.03125 c -0.38143,-0.105951 -0.75896,-0.190342 -1.13477,-0.25586 -0.002,-4.92e-4 -0.005,4.9e-4 -0.008,0 -0.42238,-0.08634 -0.87569,-0.125 -1.36719,-0.125 z m 54.1543,0 c -1.59957,0 -3.01138,0.411257 -4.0918,1.292969 -0.36807,0.300379 -0.58714,0.842787 -0.90625,1.222656 l -0.1621,-1.294922 a 1.0001,1.0001 0 0 0 -0.99219,-0.875 h -4.39258 a 1.0001,1.0001 0 0 0 -1,1 v 1.939453 a 1.0001,1.0001 0 0 0 1,1 h 1.4668 v 9.958985 h -1.4668 a 1.0001,1.0001 0 0 0 -1,1 v 1.941406 a 1.0001,1.0001 0 0 0 1,1 h 8.21289 a 1.0001,1.0001 0 0 0 1,-1 v -1.941406 a 1.0001,1.0001 0 0 0 -1,-1 h -2.21875 v -5.5 c 0.49059,-1.572316 1.11199,-2.71749 1.80078,-3.404297 0.4725,-0.471139 0.99126,-0.707604 1.55469,-0.849609 v 2.210937 a 1.0001,1.0001 0 0 0 1,1 h 2.07617 a 1.0001,1.0001 0 0 0 0.99805,-0.933594 l 0.36133,-5.355468 a 1.0001,1.0001 0 0 0 -0.73047,-1.03125 c -0.38471,-0.10686 -0.76751,-0.192087 -1.14649,-0.257813 -0.42132,-0.0858 -0.87324,-0.123047 -1.36328,-0.123047 z m -76.64258,0.01367 c -1.57303,0 -3.01884,0.412353 -4.23437,1.242188 a 1.0001,1.0001 0 0 0 -0.004,0.0039 c -1.18594,0.817493 -2.11121,1.952478 -2.74804,3.33789 a 1.0001,1.0001 0 0 0 -0.002,0.0059 c -0.628,1.390569 -0.93164,2.962369 -0.93164,4.683594 0,1.749162 0.30239,3.335189 0.93164,4.728515 a 1.0001,1.0001 0 0 0 0.004,0.0098 c 0.64199,1.385364 1.59951,2.513789 2.83203,3.308594 a 1.0001,1.0001 0 0 0 0.004,0.002 c 1.2648,0.808066 2.78478,1.195312 4.47851,1.195312 1.10393,0 2.19363,-0.186463 3.24805,-0.552734 1.04925,-0.364476 1.99513,-0.873676 2.82031,-1.529297 a 1.0001,1.0001 0 0 0 0.19336,-1.363281 l -1.18945,-1.669922 a 1.0001,1.0001 0 0 0 -1.3711,-0.25 c -0.64846,0.4354 -1.25802,0.751368 -1.82031,0.958984 -0.52524,0.193933 -1.13607,0.300781 -1.84961,0.300781 -0.9922,0 -1.76788,-0.303306 -2.50195,-0.976562 l -0.002,-0.002 c -0.47723,-0.45129 -0.77746,-1.260186 -0.95508,-2.28711 h 9.47656 a 1.0001,1.0001 0 0 0 0.99805,-0.941406 c 0.0105,-0.178676 0.0211,-0.38996 0.0312,-0.634765 l -0.004,0.04297 c 0.0226,-0.271625 0.0332,-0.55609 0.0332,-0.851562 0,-2.56479 -0.62509,-4.719655 -1.95898,-6.322266 -1.32521,-1.604198 -3.25169,-2.439453 -5.47852,-2.439453 z m 54.1543,0 c -1.57303,0 -3.01884,0.412353 -4.23437,1.242188 a 1.0001,1.0001 0 0 0 -0.004,0.0039 c -1.18594,0.817493 -2.11121,1.952478 -2.74805,3.33789 a 1.0001,1.0001 0 0 0 -0.002,0.0059 c -0.62801,1.390569 -0.93164,2.962369 -0.93164,4.683594 0,1.749162 0.30239,3.335189 0.93164,4.728515 a 1.0001,1.0001 0 0 0 0.004,0.0098 c 0.64199,1.385364 1.5995,2.513789 2.83203,3.308594 a 1.0001,1.0001 0 0 0 0.004,0.002 c 1.26481,0.808066 2.78479,1.195312 4.47852,1.195312 1.10393,0 2.19168,-0.186463 3.24609,-0.552734 1.04925,-0.364476 1.99709,-0.873676 2.82227,-1.529297 a 1.0001,1.0001 0 0 0 0.1914,-1.363281 l -1.1875,-1.669922 a 1.0001,1.0001 0 0 0 -1.37304,-0.25 c -0.64847,0.4354 -1.25607,0.751368 -1.81836,0.958984 -0.52524,0.193933 -1.13607,0.300781 -1.84961,0.300781 -0.99415,0 -1.77051,-0.304419 -2.50586,-0.980468 -0.47667,-0.451299 -0.77562,-1.25909 -0.95313,-2.285157 h 9.47461 a 1.0001,1.0001 0 0 0 1,-0.941406 c 0.01,-0.166581 0.0178,-0.367858 0.0273,-0.591797 v -0.0039 c 0.0224,-0.270486 0.0332,-0.553537 0.0332,-0.847656 0,-2.564789 -0.62509,-4.719655 -1.95898,-6.322266 -1.32521,-1.604198 -3.25169,-2.439453 -5.47852,-2.439453 z m -25.51367,0.332031 a 1.0001,1.0001 0 0 0 -0.93945,1.337891 l 5.71679,15.841797 a 1.0001,1.0001 0 0 0 0.93946,0.660156 h 2.93359 a 1.0001,1.0001 0 0 0 0.93945,-0.658203 l 5.76172,-15.839844 a 1.0001,1.0001 0 0 0 -0.93945,-1.341797 h -2.61719 a 1.0001,1.0001 0 0 0 -0.94922,0.681641 l -3.58594,10.722656 -3.63476,-10.726562 a 1.0001,1.0001 0 0 0 -0.94727,-0.677735 z m -6.15235,1.654297 c 0.38823,0 0.71515,0.03097 0.97266,0.08398 a 1.0001,1.0001 0 0 0 0.0332,0.0059 c 0.0587,0.01006 0.12055,0.02968 0.17969,0.04102 l -0.24023,3.570312 h -0.14063 v -2.371094 a 1.0001,1.0001 0 0 0 -1,-1 h -0.13476 c -1.00955,0 -1.92199,0.360727 -2.75977,0.873047 0.0959,-0.0908 0.16512,-0.280899 0.26367,-0.361328 0.66455,-0.542332 1.5576,-0.841797 2.82617,-0.841797 z m 54.1543,0 c 0.38822,0 0.71514,0.03097 0.97266,0.08398 a 1.0001,1.0001 0 0 0 0.0312,0.0059 c 0.0591,0.01014 0.122,0.02958 0.18164,0.04102 l -0.24024,3.570312 h -0.14062 v -2.371094 a 1.0001,1.0001 0 0 0 -1,-1 h -0.13477 c -1.01102,0 -1.92501,0.36122 -2.76367,0.875 0.0965,-0.09142 0.16647,-0.282362 0.26563,-0.363281 0.66455,-0.542332 1.55955,-0.841797 2.82812,-0.841797 z m -76.64258,0.01367 c 1.76452,0 2.97622,0.549229 3.9375,1.712891 a 1.0001,1.0001 0 0 0 0.002,0.0039 c 0.97075,1.164907 1.49804,2.797809 1.49804,5.044922 0,0.138097 -0.008,0.258003 -0.0137,0.384765 h -1.25586 a 1.0001,1.0001 0 0 0 0.83399,-0.972656 c -0.0325,-1.831091 -0.42984,-3.346101 -1.34571,-4.443359 -0.8866,-1.07179 -2.19418,-1.654297 -3.62695,-1.654297 -1.4098,0 -2.70966,0.547653 -3.67187,1.558594 -1.01833,1.069877 -1.50487,2.611589 -1.61329,4.498047 a 1.0001,1.0001 0 0 0 0.93946,1.033203 1.0001,1.0001 0 0 0 -0.95508,1.019531 c 0.0762,1.991129 0.61118,3.622861 1.75781,4.705078 a 1.0001,1.0001 0 0 0 0.008,0.0078 c 1.06811,0.985025 2.41694,1.513671 3.86719,1.513671 0.91107,0 1.7645,-0.136394 2.54297,-0.423828 0.45333,-0.167386 0.91352,-0.462785 1.37109,-0.71875 l 0.0391,0.05469 c -0.44668,0.267118 -0.85867,0.566488 -1.39258,0.751953 -0.851,0.295609 -1.71009,0.441406 -2.5918,0.441406 -1.39319,0 -2.49773,-0.304515 -3.39844,-0.878906 -0.91237,-0.588354 -1.59853,-1.385358 -2.09961,-2.464844 -0.49246,-1.092661 -0.75195,-2.382609 -0.75195,-3.90039 0,-1.485572 0.25827,-2.758172 0.75195,-3.853516 l 0.002,-0.002 c 0.50626,-1.100248 1.18331,-1.91935 2.0625,-2.525391 0.86954,-0.592562 1.87029,-0.892578 3.10351,-0.892578 z m 54.1543,0 c 1.76452,0 2.97621,0.549229 3.9375,1.712891 a 1.0001,1.0001 0 0 0 0.002,0.0039 c 0.97076,1.164907 1.49805,2.797809 1.49805,5.044922 0,0.138097 -0.008,0.258003 -0.0137,0.384765 h -1.25586 a 1.0001,1.0001 0 0 0 0.83203,-0.972656 c -0.0325,-1.829991 -0.4271,-3.344306 -1.3418,-4.441406 -0.88665,-1.073965 -2.19462,-1.65625 -3.6289,-1.65625 -1.4098,0 -2.70966,0.547653 -3.67188,1.558594 -1.01832,1.069877 -1.50487,2.611589 -1.61328,4.498047 a 1.0001,1.0001 0 0 0 0.9375,1.033203 1.0001,1.0001 0 0 0 -0.95312,1.019531 c 0.0762,1.991129 0.60922,3.622861 1.75586,4.705078 a 1.0001,1.0001 0 0 0 0.01,0.0078 c 1.06811,0.985025 2.41694,1.513671 3.86719,1.513671 0.91107,0 1.76255,-0.136394 2.54101,-0.423828 0.45411,-0.167671 0.91469,-0.464154 1.37305,-0.720703 l 0.0391,0.05469 c -0.44704,0.267465 -0.86008,0.568257 -1.39453,0.753906 -0.85099,0.295609 -1.70813,0.441406 -2.58984,0.441406 -1.39319,0 -2.49773,-0.304516 -3.39844,-0.878906 -0.91237,-0.588354 -1.59853,-1.385358 -2.09961,-2.464844 -0.49247,-1.092661 -0.75195,-2.382609 -0.75195,-3.90039 0,-1.487164 0.25918,-2.761289 0.7539,-3.857422 2.5e-4,-5.35e-4 -2.4e-4,-0.0014 0,-0.002 0.50606,-1.098077 1.18447,-1.916236 2.0625,-2.521485 0.86955,-0.592562 1.8703,-0.892578 3.10352,-0.892578 z m -39.68359,0.332031 h 0.98242 l 0.35742,2.869141 a 1.0001,1.0001 0 0 0 1.10156,0.722656 c -0.35612,0.688321 -0.67036,1.447633 -0.93164,2.308594 a 1.0001,1.0001 0 0 0 -0.043,0.289062 v 6.708985 a 1.0001,1.0001 0 0 0 0.94141,0.941406 h -2.41016 A 1.0001,1.0001 0 0 0 191.375,73.357422 V 61.398437 a 1.0001,1.0001 0 0 0 -0.93945,-0.939453 z m 15.5957,0 h 0.53516 l 4.35937,12.859375 a 1.0001,1.0001 0 0 0 1.89453,-0.0039 l 4.29883,-12.855469 h 0.4707 l -5.03515,13.839844 h -1.5293 z m 38.55859,0 h 0.98243 l 0.35742,2.869141 a 1.0001,1.0001 0 0 0 1.10156,0.722656 c -0.35612,0.688321 -0.67037,1.447634 -0.93164,2.308594 a 1.0001,1.0001 0 0 0 -0.043,0.289062 v 6.708985 a 1.0001,1.0001 0 0 0 0.94141,0.941406 h -2.41016 a 1.0001,1.0001 0 0 0 0.94141,-0.941406 V 61.398437 a 1.0001,1.0001 0 0 0 -0.93946,-0.939453 z m -68.5957,1.744141 c 0.95249,0 1.55049,0.278756 2.08789,0.929687 a 1.0001,1.0001 0 0 0 0.004,0.0059 c 0.37537,0.449378 0.60905,1.224632 0.74414,2.179687 h -5.93555 c 0.18218,-0.964011 0.46078,-1.740486 0.87695,-2.177734 0.62228,-0.653786 1.28579,-0.9375 2.22266,-0.9375 z m 54.1543,0 c 0.95249,0 1.55049,0.278756 2.08789,0.929687 a 1.0001,1.0001 0 0 0 0.004,0.0059 c 0.37538,0.449378 0.60906,1.224632 0.74414,2.179687 h -5.9375 c 0.18218,-0.964105 0.46271,-1.740459 0.87891,-2.177734 0.62228,-0.653786 1.28579,-0.9375 2.22266,-0.9375 z"
         id="path32" />
    </g>
    <g
       id="g7"
       transform="rotate(90,227.70642,107.70642)">
      <rect
         style="fill:#afafaf;fill-opacity:1;stroke:none;stroke-width:2.09329;stroke-linecap:round;stroke-linejoin:round"
         id="rect6"
         width="24.999996"
         height="59.999996"
         x="210"
         y="75"
         rx="6.3432827"
         ry="6.2386518" />
      <circle
         style="fill:#008000;fill-opacity:1;stroke:none;stroke-width:4;stroke-linecap:round;stroke-linejoin:round"
         id="path7"
         cx="220"
         cy="85"
         r="5" />
      <circle
         style="fill:#008000;fill-opacity:1;stroke:none;stroke-width:4;stroke-linecap:round;stroke-linejoin:round"
         id="path7-3"
         cx="220"
         cy="100"
         r="5" />
      <circle
         style="fill:#008000;fill-opacity:1;stroke:none;stroke-width:4;stroke-linecap:round;stroke-linejoin:round"
         id="path7-1"
         cx="220"
         cy="115"
         r="5" />
    </g>
    <g
       id="text7"
       transform="translate(-4.5871634,-5)">
      <path
         style="-inkscape-font-specification:'FiraCode Nerd Font';fill:#afafaf;stroke-linecap:round;stroke-linejoin:round"
         d="M 210.96032,49.286178 212.13366,70 h -2.51214 l -0.64684,-10.815714 q -0.0752,-1.444101 -0.12034,-2.948373 -0.0301,-1.504272 -0.0451,-2.722732 -0.015,-1.233503 0,-1.835211 l -3.48991,14.606479 H 202.7019 L 198.95623,51.67797 q 0.0301,0.586666 0.0451,1.865297 0.0151,1.278631 0,2.797945 -0.015,1.519315 -0.0752,2.812988 L 198.36957,70 h -2.45196 l 1.17333,-20.713822 h 3.64034 l 3.35452,14.185282 3.2041,-14.185282 z m 11.14667,4.5429 q 3.35453,0 5.0694,2.241365 1.71487,2.241365 1.71487,6.002045 0,2.421877 -0.78223,4.287174 -0.78222,1.865297 -2.30153,2.93333 -1.51932,1.052991 -3.7306,1.052991 -3.35452,0 -5.08443,-2.256408 -1.72992,-2.256408 -1.72992,-5.987002 0,-2.43692 0.78222,-4.302217 0.78223,-1.88034 2.30154,-2.918287 1.53436,-1.052991 3.76068,-1.052991 z m 0,2.060853 q -2.04581,0 -3.0988,1.519314 -1.03795,1.519315 -1.03795,4.693328 0,3.143928 1.02291,4.663243 1.03794,1.504271 3.08375,1.504271 2.04581,0 3.06872,-1.519314 1.03795,-1.519315 1.03795,-4.678285 0,-3.158971 -1.02291,-4.663243 -1.0229,-1.519314 -3.05367,-1.519314 z m 21.49606,-8.423922 2.52717,0.315897 V 70 h -2.21128 l -0.24068,-2.090938 q -0.88752,1.263589 -2.04581,1.850255 -1.14325,0.586666 -2.45196,0.586666 -2.06086,0 -3.39966,-1.037948 -1.3388,-1.037948 -1.98564,-2.888202 -0.64683,-1.865297 -0.64683,-4.31726 0,-2.376749 0.73709,-4.242046 0.73709,-1.88034 2.12102,-2.948373 1.39898,-1.083076 3.35453,-1.083076 2.63247,0 4.24205,1.865297 z m -3.58017,8.393836 q -1.98564,0 -3.05367,1.5494 -1.06804,1.5494 -1.06804,4.693328 0,6.1976 3.80581,6.1976 1.3388,0 2.30154,-0.752136 0.96273,-0.767179 1.59453,-1.744955 v -7.91247 q -0.64684,-0.962734 -1.56445,-1.489229 -0.9176,-0.541538 -2.01572,-0.541538 z m 14.14017,7.115206 q 0.10529,2.752817 1.4441,4.016405 1.35384,1.248546 3.18905,1.248546 1.21846,0 2.19624,-0.361025 0.97778,-0.361025 2.03077,-1.068033 l 1.18837,1.669742 q -1.09812,0.872477 -2.52718,1.368887 -1.42905,0.49641 -2.91828,0.49641 -2.31658,0 -3.9412,-1.037948 -1.60957,-1.037948 -2.467,-2.888202 -0.84239,-1.865297 -0.84239,-4.31726 0,-2.406835 0.84239,-4.272132 0.85743,-1.865297 2.40683,-2.93333 1.56445,-1.068033 3.67043,-1.068033 2.9935,0 4.70837,2.075895 1.72991,2.075896 1.72991,5.686148 0,0.406153 -0.0301,0.767178 -0.015,0.361026 -0.0301,0.616752 z m 4.30221,-7.070078 q -1.76,0 -2.94837,1.248546 -1.18838,1.248546 -1.3388,3.865978 h 8.25845 q -0.0451,-2.542219 -1.11316,-3.82085 -1.06803,-1.293674 -2.85812,-1.293674 z m 22.20307,-2.075895 q 0.75213,0 1.45914,0.33094 0.70701,0.33094 1.15829,1.278631 0.45128,0.947691 0.45128,2.76786 V 70 h -2.34666 V 58.612663 q 0,-1.489229 -0.18052,-2.151109 -0.18051,-0.66188 -1.03794,-0.66188 -0.70701,0 -1.41402,0.451282 -0.70701,0.436239 -1.35384,1.444101 V 70 h -2.36171 V 58.612663 q 0,-1.489229 -0.18051,-2.151109 -0.18052,-0.66188 -1.03795,-0.66188 -0.73709,0 -1.42906,0.451282 -0.69196,0.436239 -1.3388,1.444101 V 70 h -2.33162 V 54.160018 h 1.98564 l 0.15042,1.835212 q 0.64684,-0.917606 1.4441,-1.534357 0.81231,-0.631795 2.00069,-0.631795 0.90256,0 1.69982,0.436239 0.79727,0.421196 1.17334,1.654699 0.64683,-0.932648 1.45914,-1.504272 0.81231,-0.586666 2.03077,-0.586666 z"
         id="path8" />
      <path
         style="-inkscape-font-specification:'FiraCode Nerd Font';fill:#afafaf;stroke-linecap:round;stroke-linejoin:round"
         d="m 243.72656,46.474609 a 1.0001,1.0001 0 0 0 -1.12304,0.992188 v 6.271484 c -0.97285,-0.541117 -2.03807,-0.910156 -3.24219,-0.910156 -1.4877,0 -2.8541,0.433558 -3.96485,1.292969 -1.07935,0.832977 -1.89588,1.983347 -2.4414,3.375 -0.54383,1.377678 -0.80664,2.920935 -0.80664,4.607422 0,1.722575 0.22551,3.272851 0.70117,4.644531 a 1.0001,1.0001 0 0 0 0.002,0.002 c 0.48293,1.381398 1.25811,2.527178 2.31641,3.347656 1.08889,0.844202 2.46993,1.248047 4.01172,1.248047 1.02125,0 2.0086,-0.235973 2.9082,-0.697266 h 0.002 c 0.31636,-0.160716 0.52648,-0.513309 0.8125,-0.732421 l 0.0234,0.199218 A 1.0001,1.0001 0 0 0 243.91797,71 h 2.21289 a 1.0001,1.0001 0 0 0 1,-1 V 47.78125 a 1.0001,1.0001 0 0 0 -0.87695,-0.992188 z m -46.63476,1.8125 a 1.0001,1.0001 0 0 0 -1,0.94336 l -1.17188,20.71289 A 1.0001,1.0001 0 0 0 195.91797,71 h 2.45117 a 1.0001,1.0001 0 0 0 1,-0.949219 l 0.54492,-10.613281 1.81836,7.095703 a 1.0001,1.0001 0 0 0 0.96875,0.751953 h 2.61719 a 1.0001,1.0001 0 0 0 0.97266,-0.767578 l 1.69531,-7.097656 0.63672,10.640625 A 1.0001,1.0001 0 0 0 209.62109,71 h 2.51172 a 1.0001,1.0001 0 0 0 1,-1.056641 l -1.17383,-20.71289 a 1.0001,1.0001 0 0 0 -0.99804,-0.94336 h -3.67188 a 1.0001,1.0001 0 0 0 -0.97461,0.779297 l -2.25,9.966797 -2.35937,-9.976562 a 1.0001,1.0001 0 0 0 -0.97461,-0.769532 z m 47.51172,0.310547 0.52734,0.06641 V 69 h -0.32031 l -0.13868,-1.205078 a 1.0001,1.0001 0 0 0 -0.7832,-0.841797 c 0.17086,-0.212773 0.40712,-0.379036 0.55469,-0.607422 a 1.0001,1.0001 0 0 0 0.16016,-0.542969 v -7.912109 a 1.0001,1.0001 0 0 0 -0.16993,-0.558594 c -0.22261,-0.331337 -0.56178,-0.517288 -0.83398,-0.791015 a 1.0001,1.0001 0 0 0 1.00391,-0.845704 z m -46.56836,1.689453 h 1.90429 l 3.17383,13.414063 a 1.0001,1.0001 0 0 0 1.76172,0.140625 l -0.3457,1.443359 h -1.05078 l -3.55274,-13.855469 a 1.0001,1.0001 0 0 0 -1.96875,0.298829 c 0.0186,0.362472 0.035,0.979802 0.0449,1.826171 0.01,0.843809 0.01,1.770568 0,2.777344 -0.01,1.002473 -0.0348,1.927248 -0.0742,2.775391 L 197.41992,69 h -0.44336 z m 10.05468,0 h 1.92578 L 211.07422,69 h -0.50977 l -0.59179,-9.867188 V 59.125 c -0.0494,-0.94885 -0.0894,-1.9192 -0.11914,-2.908203 v -0.01172 c -0.0199,-0.994915 -0.035,-1.897919 -0.0449,-2.703125 V 53.5 c -0.01,-0.814963 -0.009,-1.421465 0,-1.796875 a 1.0001,1.0001 0 0 0 -1.97265,-0.257813 l -0.14453,0.607422 z m 14.01758,2.541016 c -1.64187,0 -3.11721,0.39884 -4.32617,1.228516 -1.1784,0.805047 -2.07357,1.953284 -2.6582,3.357421 -0.58155,1.386757 -0.86133,2.957845 -0.86133,4.689454 0,2.641633 0.62231,4.878294 1.9375,6.59375 1.34317,1.751961 3.41639,2.648437 5.87695,2.648437 1.63292,0 3.10122,-0.399091 4.30078,-1.230469 a 1.0001,1.0001 0 0 0 0.006,-0.0039 c 1.17089,-0.823101 2.06399,-1.971541 2.64844,-3.365234 0.58118,-1.385874 0.85937,-2.951582 0.85937,-4.673828 0,-2.65912 -0.61266,-4.900768 -1.91992,-6.609375 -1.33446,-1.744162 -3.4042,-2.634766 -5.86328,-2.634766 z m 36.32813,0 c -1.57304,0 -3.01884,0.412354 -4.23438,1.242187 a 1.0001,1.0001 0 0 0 -0.004,0.0039 c -1.18594,0.817493 -2.11121,1.952478 -2.74805,3.33789 a 1.0001,1.0001 0 0 0 -0.002,0.0059 c -0.628,1.390569 -0.93165,2.964324 -0.93165,4.685547 0,1.749161 0.3024,3.33519 0.93165,4.728515 a 1.0001,1.0001 0 0 0 0.004,0.0078 c 0.642,1.385363 1.59951,2.513788 2.83203,3.308593 a 1.0001,1.0001 0 0 0 0.004,0.002 c 1.2648,0.808066 2.78478,1.195312 4.47851,1.195312 1.10394,0 2.19169,-0.184509 3.2461,-0.550781 1.04925,-0.364476 1.99708,-0.875629 2.82226,-1.53125 a 1.0001,1.0001 0 0 0 0.19141,-1.363281 l -1.1875,-1.669922 a 1.0001,1.0001 0 0 0 -1.37305,-0.25 c -0.64846,0.435399 -1.25606,0.753321 -1.81836,0.960937 -0.52523,0.193933 -1.13606,0.298828 -1.84961,0.298828 -0.99415,0 -1.77051,-0.304418 -2.50585,-0.980468 -0.47683,-0.451437 -0.77569,-1.258578 -0.95313,-2.285157 h 9.47461 a 1.0001,1.0001 0 0 0 0.99805,-0.941406 c 0.01,-0.167096 0.0198,-0.366983 0.0293,-0.591797 v -0.0078 c 0.0222,-0.269342 0.0332,-0.549038 0.0332,-0.841797 0,-2.565488 -0.62434,-4.721472 -1.95899,-6.324219 l -0.002,-0.002 c -1.32515,-1.602771 -3.25075,-2.4375 -5.47656,-2.4375 z m 15.86914,0 c -0.96947,0 -1.8852,0.277464 -2.61328,0.84375 -0.0738,0.05713 -0.12542,0.148749 -0.19727,0.208984 a 1.0001,1.0001 0 0 0 -0.7832,-0.720703 h -1.98633 a 1.0001,1.0001 0 0 0 -1,1 V 70 a 1.0001,1.0001 0 0 0 1,1 h 2.33203 a 1.0001,1.0001 0 0 0 1,-1 V 58.060547 c 0.31607,-0.442855 0.62865,-0.810047 0.87109,-0.962891 a 1.0001,1.0001 0 0 0 0.0137,-0.0098 c 0.32523,-0.212106 0.5955,-0.289063 0.88281,-0.289063 0.0817,0 0.0565,7.73e-4 0.0781,0.0059 0.0675,0.28054 0.14063,0.896546 0.14063,1.808594 V 70 a 1.0001,1.0001 0 0 0 1,1 h 2.36133 a 1.0001,1.0001 0 0 0 1,-1 V 58.0625 c 0.31569,-0.441392 0.62925,-0.806897 0.8789,-0.960938 a 1.0001,1.0001 0 0 0 0.0137,-0.0078 c 0.34392,-0.219518 0.61643,-0.294922 0.875,-0.294922 0.0817,0 0.0566,7.73e-4 0.0781,0.0059 0.0675,0.280532 0.14062,0.896548 0.14062,1.808594 V 70 a 1.0001,1.0001 0 0 0 1,1 h 2.34571 a 1.0001,1.0001 0 0 0 1,-1 V 58.207031 c 0,-1.29609 -0.13918,-2.343054 -0.54688,-3.199219 -0.36858,-0.77402 -0.90938,-1.412536 -1.63867,-1.753906 -0.59465,-0.278347 -1.23472,-0.425781 -1.88281,-0.425781 -0.97147,0 -1.87792,0.24879 -2.61133,0.777344 -0.23506,0.165961 -0.40522,0.434376 -0.61914,0.634765 -0.26277,-0.348411 -0.57264,-0.648657 -0.95703,-0.853515 -0.66992,-0.365743 -1.41441,-0.558594 -2.17578,-0.558594 z m -52.19727,2 c 2.01363,0 3.32336,0.605284 4.27539,1.849609 0.97924,1.27988 1.50781,3.039412 1.50781,5.394532 0,1.506923 -0.24133,2.799201 -0.70312,3.90039 -0.45811,1.092425 -1.09937,1.89922 -1.95313,2.5 -7.3e-4,5.19e-4 -0.001,0.0014 -0.002,0.002 -0.8252,0.570099 -1.84376,0.871094 -3.15625,0.871094 -2.01213,0 -3.32764,-0.608652 -4.29101,-1.865234 -0.99138,-1.293088 -1.52344,-3.044461 -1.52344,-5.376953 0,-1.517618 0.24366,-2.81571 0.70508,-3.916016 a 1.0001,1.0001 0 0 0 0.002,-0.0039 c 0.45836,-1.101821 1.09477,-1.898169 1.94141,-2.476563 a 1.0001,1.0001 0 0 0 0.002,0 c 0.83686,-0.574312 1.86876,-0.878906 3.19531,-0.878906 z m 17.25391,0 c 0.16969,0 0.28255,0.06995 0.4414,0.08203 -1.48788,0.06716 -2.8237,0.723864 -3.65625,1.931641 -0.8914,1.293158 -1.24609,3.052528 -1.24609,5.261719 0,2.168213 0.30974,3.883657 1.09961,5.169921 0.75917,1.236271 2.07368,1.931333 3.54102,1.986329 -0.12625,0.01027 -0.23048,0.08594 -0.36133,0.08594 -1.20603,0 -2.09094,-0.288396 -2.78711,-0.828125 -0.7261,-0.562931 -1.27286,-1.341743 -1.65235,-2.425781 -0.38678,-1.115383 -0.59179,-2.441573 -0.59179,-3.988281 0,-1.481125 0.22992,-2.766479 0.66797,-3.875 a 1.0001,1.0001 0 0 0 0,-0.0039 c 0.43726,-1.115467 1.03489,-1.930417 1.80078,-2.521484 a 1.0001,1.0001 0 0 0 0.002,0 c 0.75431,-0.583978 1.6231,-0.875 2.74219,-0.875 z m 19.07422,0 c 1.76451,0 2.97621,0.549228 3.9375,1.712891 a 1.0001,1.0001 0 0 0 0.002,0.0039 c 0.97075,1.164908 1.49805,2.799762 1.49805,5.046875 0,0.137789 -0.008,0.256308 -0.0137,0.382812 h -1.25585 a 1.0001,1.0001 0 0 0 0.83203,-0.972656 c -0.0325,-1.829265 -0.42788,-3.342457 -1.3418,-4.439453 -0.88665,-1.07397 -2.19462,-1.658203 -3.62891,-1.658203 -1.4098,0 -2.70965,0.549605 -3.67187,1.560547 -1.01832,1.069877 -1.50487,2.61159 -1.61328,4.498047 a 1.0001,1.0001 0 0 0 0.9375,1.03125 1.0001,1.0001 0 0 0 -0.95313,1.019531 c 0.0762,1.991131 0.60922,3.622862 1.75586,4.705078 a 1.0001,1.0001 0 0 0 0.01,0.0078 c 1.0681,0.985029 2.41694,1.513672 3.86718,1.513672 0.91108,0 1.76255,-0.136394 2.54102,-0.423828 0.45411,-0.167671 0.91468,-0.464154 1.37305,-0.720703 l 0.0391,0.05469 c -0.44704,0.267465 -0.86009,0.568257 -1.39453,0.753906 -0.85099,0.295608 -1.70814,0.441406 -2.58985,0.441406 -1.39319,0 -2.49773,-0.304517 -3.39843,-0.878906 -0.91202,-0.588124 -1.59663,-1.384051 -2.09766,-2.462891 -0.49302,-1.093064 -0.75391,-2.381734 -0.75391,-3.90039 0,-1.487166 0.25919,-2.763241 0.75391,-3.859375 2.4e-4,-5.35e-4 -2.4e-4,-0.0014 0,-0.002 0.50606,-1.098076 1.18446,-1.916235 2.0625,-2.521484 0.86955,-0.592564 1.8703,-0.892578 3.10352,-0.892578 z m 15.86914,0 c 0.44059,0 0.8286,0.0999 1.2207,0.314453 a 1.0001,1.0001 0 0 0 0.0117,0.0078 c 0.23243,0.122795 0.48306,0.396398 0.68555,1.060546 a 1.0001,1.0001 0 0 0 0.67773,0.589844 c -0.10268,0.139518 -0.2399,0.200838 -0.33789,0.353516 a 1.0001,1.0001 0 0 0 -0.1582,0.541015 V 69 h -0.36133 V 58.613281 c 0,-1.033223 -0.0464,-1.789135 -0.2168,-2.414062 -0.11305,-0.414504 -0.39385,-0.833577 -0.77734,-1.078125 -0.2868,-0.182883 -0.60374,-0.206673 -0.91602,-0.240235 0.0704,-0.0044 0.0956,-0.05273 0.17188,-0.05273 z m 6.36328,0 c 0.35475,0 0.68713,0.07538 1.03515,0.238281 0.21339,0.09988 0.44657,0.313167 0.67969,0.802735 0.19401,0.407423 0.35352,1.207089 0.35352,2.33789 V 69 h -0.34571 V 58.613281 c 0,-1.033225 -0.0464,-1.789127 -0.21679,-2.414062 -0.11305,-0.414507 -0.3919,-0.833575 -0.77539,-1.078125 -0.28709,-0.183073 -0.60538,-0.208707 -0.91797,-0.242188 0.0777,-0.0048 0.10304,-0.05078 0.1875,-0.05078 z m -58.56055,0.0625 c -1.61142,0 -3.04717,0.68714 -3.92187,1.949219 a 1.0001,1.0001 0 0 0 -0.004,0.0059 c -0.87493,1.280699 -1.21094,3.032799 -1.21094,5.257813 0,2.204405 0.33296,3.942754 1.19336,5.220703 a 1.0001,1.0001 0 0 0 0.006,0.0098 c 0.86638,1.25563 2.29728,1.935547 3.90625,1.935547 1.61042,0 3.04187,-0.691425 3.89649,-1.958984 0.87234,-1.279124 1.21093,-3.024743 1.21093,-5.238281 0,-2.211943 -0.33011,-3.948998 -1.19336,-5.220704 -0.85315,-1.267187 -2.27958,-1.960937 -3.88281,-1.960937 z m 47.61719,0.269531 h 0.0645 l 0.0742,0.916016 a 1.0001,1.0001 0 0 0 0.64063,0.771484 c -0.0878,0.122197 -0.20429,0.174555 -0.28907,0.306641 a 1.0001,1.0001 0 0 0 -0.1582,0.541015 V 69 h -0.33203 z m -28.56836,0.0059 c 0.0646,0.02504 0.14629,0.02842 0.20898,0.05664 -0.0698,-0.02005 -0.13824,-0.03968 -0.20898,-0.05664 z m 37.07617,0.234375 c -0.002,0.0014 -0.004,0.0045 -0.006,0.0059 -0.002,0.0012 -0.004,7.99e-4 -0.006,0.002 z m -6.37109,0.0039 c -0.003,0.0018 -0.005,0.006 -0.008,0.0078 -0.002,0.0012 -0.004,7.91e-4 -0.006,0.002 z m -31.83789,1.455078 c 0.56769,0 1.04645,0.130064 1.50781,0.402344 a 1.0001,1.0001 0 0 0 0.01,0.0078 c 0.40659,0.233294 0.74358,0.595612 1.0625,1.017578 v 7.148438 c -0.3368,0.479216 -0.71922,0.930564 -1.21485,1.326172 -0.46373,0.361188 -0.97809,0.539062 -1.68164,0.539062 -0.99719,0 -1.52322,-0.294616 -2.00195,-1.074219 -0.47874,-0.779602 -0.80469,-2.159526 -0.80469,-4.123046 0,-1.982714 0.35993,-3.354245 0.89258,-4.126954 0.54767,-0.794505 1.16681,-1.117187 2.23047,-1.117187 z m -17.91602,0.03125 c 1.10447,0 1.7139,0.317607 2.22461,1.076172 a 1.0001,1.0001 0 0 0 0.002,0.0039 c 0.49892,0.73369 0.84961,2.103519 0.84961,4.101563 0,1.996456 -0.35341,3.36891 -0.86328,4.115234 a 1.0001,1.0001 0 0 0 -0.004,0.0039 c -0.50946,0.756684 -1.12391,1.078125 -2.24024,1.078125 -1.11684,0 -1.73884,-0.323014 -2.25586,-1.070312 -0.50157,-0.748961 -0.84961,-2.112868 -0.84961,-4.095703 0,-2.004451 0.35337,-3.381241 0.86133,-4.126954 0.52892,-0.761846 1.16031,-1.085937 2.27539,-1.085937 z m 36.35742,0.01367 c 0.9525,0 1.5505,0.280712 2.08789,0.93164 a 1.0001,1.0001 0 0 0 0.004,0.0039 c 0.37537,0.449378 0.60906,1.224632 0.74414,2.179687 h -5.9375 c 0.18218,-0.964105 0.4627,-1.738506 0.87891,-2.175781 0.62227,-0.653787 1.28579,-0.939453 2.22265,-0.939453 z"
         id="path9" />
    </g>
    <g
       id="text7-9"
       transform="translate(-4.5871634,-5)">
      <path
         style="-inkscape-font-specification:'FiraCode Nerd Font';fill:#afafaf;stroke-linecap:round;stroke-linejoin:round"
         d="m 324.51523,126.81844 v 1.3306 h -2.92924 v 10.52036 h 2.92924 V 140 h -7.54326 v -1.3306 h 2.92924 v -10.52036 h -2.92924 v -1.3306 z m 12.63593,4.04924 q 0,1.5412 -0.66051,2.46974 -0.65095,0.92855 -1.79967,1.34975 -1.14872,0.4212 -2.64205,0.4212 h -1.68479 V 140 h -1.66565 v -13.18156 h 3.36958 q 2.35488,0 3.7142,0.98598 1.36889,0.98599 1.36889,3.06326 z m -1.78052,0.0191 q 0,-1.0147 -0.40205,-1.61778 -0.40205,-0.60308 -1.11043,-0.86154 -0.6988,-0.26803 -1.58906,-0.26803 h -1.90496 v 5.62872 h 1.83795 q 0.91898,0 1.63693,-0.24889 0.71795,-0.24888 1.12,-0.87111 0.41162,-0.63179 0.41162,-1.76137 z m 9.0749,-1.3306 v 3.81949 h 3.76206 v 1.34975 h -3.76206 v 3.79078 h -1.50291 v -3.79078 h -3.71419 v -1.34975 h 3.71419 v -3.81949 z m 15.68004,1.31146 q 0,1.5412 -0.66052,2.46974 -0.65094,0.92855 -1.79966,1.34975 -1.14872,0.4212 -2.64206,0.4212 h -1.68479 V 140 h -1.66564 v -13.18156 h 3.36958 q 2.35487,0 3.71419,0.98598 1.3689,0.98599 1.3689,3.06326 z m -1.78052,0.0191 q 0,-1.0147 -0.40205,-1.61778 -0.40206,-0.60308 -1.11043,-0.86154 -0.69881,-0.26803 -1.58907,-0.26803 h -1.90496 v 5.62872 h 1.83796 q 0.91897,0 1.63692,-0.24889 0.71795,-0.24888 1.12,-0.87111 0.41163,-0.63179 0.41163,-1.76137 z m 8.36652,-1.17744 q 2.1347,0 3.22599,1.42633 1.09128,1.42633 1.09128,3.81949 0,1.5412 -0.49778,2.72821 -0.49778,1.18702 -1.46462,1.86667 -0.96683,0.67009 -2.37402,0.67009 -2.1347,0 -3.23556,-1.4359 -1.10085,-1.4359 -1.10085,-3.80992 0,-1.55077 0.49777,-2.73778 0.49778,-1.19659 1.46462,-1.8571 0.97641,-0.67009 2.39317,-0.67009 z m 0,1.31146 q -1.30188,0 -1.97197,0.96684 -0.66051,0.96684 -0.66051,2.98667 0,2.00069 0.65094,2.96753 0.66051,0.95726 1.96239,0.95726 1.30189,0 1.95283,-0.96684 0.66051,-0.96684 0.66051,-2.9771 0,-2.01026 -0.65094,-2.96752 -0.65094,-0.96684 -1.94325,-0.96684 z M 374.45588,140 v -1.23487 h 1.56991 v -7.61027 h -1.56991 v -1.23488 h 2.79521 l 0.29676,2.3836 q 0.58393,-1.24445 1.41675,-1.92411 0.83282,-0.67966 2.20171,-0.67966 0.4212,0 0.74667,0.067 0.33505,0.0574 0.67966,0.15316 l -0.22974,3.40787 h -1.32103 v -2.14428 q -0.0383,0 -0.0862,0 -2.31659,0 -3.32172,3.31215 v 4.26941 h 2.04855 V 140 Z m 19.39422,-0.50735 q -0.51692,0.34461 -1.25402,0.53607 -0.73709,0.19145 -1.44547,0.19145 -1.62735,0 -2.50804,-0.85197 -0.88068,-0.85196 -0.88068,-2.19214 v -6.01163 h -2.31659 v -1.24445 h 2.31659 v -2.28787 l 1.60821,-0.19145 v 2.47932 h 3.48445 l -0.19146,1.24445 h -3.29299 v 5.99249 q 0,0.84239 0.44034,1.28274 0.44991,0.44034 1.48376,0.44034 0.56479,0 1.04342,-0.13402 0.47864,-0.13402 0.89026,-0.34462 z"
         id="path14" />
      <path
         style="-inkscape-font-specification:'FiraCode Nerd Font';fill:#afafaf;stroke-linecap:round;stroke-linejoin:round"
         d="m 316.97266,125.81836 a 1.0001,1.0001 0 0 0 -1,1 v 1.33008 a 1.0001,1.0001 0 0 0 1,1 h 1.92773 v 8.52148 h -1.92773 a 1.0001,1.0001 0 0 0 -1,1 V 140 a 1.0001,1.0001 0 0 0 1,1 h 7.54296 a 1.0001,1.0001 0 0 0 1,-1 v -1.33008 a 1.0001,1.0001 0 0 0 -1,-1 h -1.92968 v -8.52148 h 1.92968 a 1.0001,1.0001 0 0 0 1,-1 v -1.33008 a 1.0001,1.0001 0 0 0 -1,-1 z m 11.72656,0 a 1.0001,1.0001 0 0 0 -1,1 V 140 a 1.0001,1.0001 0 0 0 1,1 h 1.66406 a 1.0001,1.0001 0 0 0 1,-1 v -3.89258 h 0.68555 c 1.08957,0 2.08902,-0.15145 2.98633,-0.48047 0.93059,-0.34122 1.71967,-0.92679 2.27148,-1.71289 0.59003,-0.8314 0.84375,-1.87821 0.84375,-3.04687 0,-1.60348 -0.59993,-3.02089 -1.78125,-3.87305 -1.12838,-0.81847 -2.5913,-1.17578 -4.30078,-1.17578 z m 22.97461,0 a 1.0001,1.0001 0 0 0 -1,1 V 140 a 1.0001,1.0001 0 0 0 1,1 h 1.66406 a 1.0001,1.0001 0 0 0 1,-1 v -3.89258 h 0.68555 c 1.08957,0 2.08901,-0.15145 2.98633,-0.48047 0.93059,-0.34122 1.71967,-0.92679 2.27148,-1.71289 0.59003,-0.8314 0.84375,-1.87821 0.84375,-3.04687 0,-1.60348 -0.59992,-3.02089 -1.78125,-3.87305 -1.12838,-0.81847 -2.5913,-1.17578 -4.30078,-1.17578 z m 37.57812,0.62891 -1.60742,0.1914 a 1.0001,1.0001 0 0 0 -0.88281,0.99414 v 1.28711 h -1.31641 a 1.0001,1.0001 0 0 0 -1,1 v 1.24414 a 1.0001,1.0001 0 0 0 1,1 h 1.31641 v 5.01172 c 0,1.1125 0.4101,2.16195 1.18555,2.91211 0.80835,0.78199 1.94371,1.13281 3.20312,1.13281 0.56234,0 1.13043,-0.0774 1.69727,-0.22461 0.57764,-0.15004 1.10061,-0.36786 1.55664,-0.67187 a 1.0001,1.0001 0 0 0 0.31445,-1.32617 l -0.62305,-1.0918 a 1.0001,1.0001 0 0 0 -1.32422,-0.39453 c -0.21106,0.10799 -0.44332,0.19874 -0.70312,0.27148 -0.22074,0.0618 -0.47601,0.0977 -0.77344,0.0977 -0.54307,0 -0.75039,-0.1272 -0.7793,-0.1543 -0.0676,-0.0685 -0.14648,-0.18697 -0.14648,-0.57031 v -4.99219 h 2.29492 a 1.0001,1.0001 0 0 0 0.98828,-0.84765 l 0.19141,-1.24414 a 1.0001,1.0001 0 0 0 -0.98828,-1.15235 h -2.48633 v -1.47851 a 1.0001,1.0001 0 0 0 -1.11719,-0.99414 z m -55.05078,1.02148 0.0156,0.006 c -0.003,-0.001 -0.007,-8e-4 -0.01,-0.002 -0.002,-8.3e-4 -0.004,-0.003 -0.006,-0.004 z m 22.97461,0 0.0156,0.006 c -0.003,-0.001 -0.007,-8e-4 -0.01,-0.002 -0.002,-8.3e-4 -0.004,-0.003 -0.006,-0.004 z m -36.60547,0.34961 h 0.34571 a 1.0001,1.0001 0 0 0 -0.17383,0.17383 1.0001,1.0001 0 0 0 -0.17188,-0.17383 z m 22.37305,0.73828 a 1.0001,1.0001 0 0 0 -1,1 v 2.81836 h -2.71484 a 1.0001,1.0001 0 0 0 -1,1 v 1.34961 a 1.0001,1.0001 0 0 0 1,1 h 2.71484 v 2.79101 a 1.0001,1.0001 0 0 0 1,1 h 1.50195 a 1.0001,1.0001 0 0 0 1,-1 v -2.79101 h 2.76172 a 1.0001,1.0001 0 0 0 1,-1 V 133.375 a 1.0001,1.0001 0 0 0 -1,-1 h -2.76172 v -2.81836 a 1.0001,1.0001 0 0 0 -1,-1 z m 38.22266,0.14258 c -1.0781,0 -2.07084,0.28345 -2.83399,0.90625 -0.0499,0.0407 -0.0727,0.11935 -0.12109,0.16211 a 1.0001,1.0001 0 0 0 -0.95899,-0.84766 h -2.79687 a 1.0001,1.0001 0 0 0 -1,1 v 1.23438 a 1.0001,1.0001 0 0 0 1,1 h 0.57031 v 5.61132 h -0.57031 a 1.0001,1.0001 0 0 0 -1,1 V 140 a 1.0001,1.0001 0 0 0 1,1 h 5.22656 a 1.0001,1.0001 0 0 0 1,-1 v -1.23438 a 1.0001,1.0001 0 0 0 -1,-1 h -1.04687 v -3.0625 c 0.29833,-0.93738 0.6655,-1.61189 1.03906,-1.98437 0.11158,-0.11126 0.25562,-0.0803 0.36719,-0.1543 v 0.76367 a 1.0001,1.0001 0 0 0 1,1 h 1.32226 a 1.0001,1.0001 0 0 0 0.99805,-0.93359 l 0.22851,-3.4082 a 1.0001,1.0001 0 0 0 -0.72851,-1.0293 c -0.25351,-0.0704 -0.50646,-0.12806 -0.75781,-0.17187 -0.29703,-0.0602 -0.60783,-0.0859 -0.9375,-0.0859 z m -14.45508,0.01 c -1.10217,0 -2.122,0.2713 -2.95899,0.84571 -0.80892,0.55332 -1.42565,1.34751 -1.82031,2.29492 -0.39191,0.93456 -0.57617,1.98416 -0.57617,3.125 0,1.73725 0.41279,3.24952 1.30859,4.41797 0.9238,1.20495 2.38195,1.82812 4.0293,1.82812 1.09686,0 2.11212,-0.27349 2.94336,-0.84961 a 1.0001,1.0001 0 0 0 0.004,-0.004 c 0.80258,-0.56418 1.41768,-1.35537 1.8125,-2.29688 0.39155,-0.93368 0.57618,-1.9801 0.57618,-3.11523 0,-1.74744 -0.40535,-3.26249 -1.29688,-4.42774 -0.91874,-1.2008 -2.37563,-1.81836 -4.02148,-1.81836 z m -35.34766,0.42969 h 0.90625 c 0.49315,0 0.89718,0.0753 1.23047,0.20313 a 1.0001,1.0001 0 0 0 0.0156,0.006 c 0.29421,0.10734 0.46685,0.24518 0.6211,0.47656 0.12445,0.18668 0.23437,0.51811 0.23437,1.0625 0,0.63159 -0.12438,1.02203 -0.25,1.21484 a 1.0001,1.0001 0 0 0 -0.002,0.004 c -0.15376,0.23797 -0.31788,0.36838 -0.60742,0.46875 -0.35388,0.12268 -0.78817,0.19336 -1.31055,0.19336 h -0.83789 z m 22.97461,0 h 0.90625 c 0.49315,0 0.89717,0.0753 1.23047,0.20313 a 1.0001,1.0001 0 0 0 0.0156,0.006 c 0.29421,0.10734 0.46684,0.24518 0.6211,0.47656 0.12445,0.18668 0.23437,0.51811 0.23437,1.0625 0,0.63158 -0.12438,1.02203 -0.25,1.21484 a 1.0001,1.0001 0 0 0 -0.002,0.004 c -0.15376,0.23797 -0.31788,0.36838 -0.60742,0.46875 -0.35388,0.12268 -0.78818,0.19336 -1.31055,0.19336 h -0.83789 z m 34.22852,0.97852 a 1.0001,1.0001 0 0 0 0.42578,0.42578 1.0001,1.0001 0 0 0 -0.42578,0.42578 1.0001,1.0001 0 0 0 -0.42579,-0.42578 1.0001,1.0001 0 0 0 0.42579,-0.42578 z m -21.85547,1.90429 c 0.61215,0 0.85249,0.13515 1.11523,0.52539 a 1.0001,1.0001 0 0 0 0.002,0.004 c 0.25094,0.36901 0.47852,1.17206 0.47852,2.4043 0,1.23065 -0.22809,2.0341 -0.48633,2.41211 a 1.0001,1.0001 0 0 0 -0.004,0.006 c -0.26148,0.38836 -0.50267,0.52539 -1.12305,0.52539 -0.62066,0 -0.87182,-0.14109 -1.13672,-0.52344 -0.25446,-0.38102 -0.47852,-1.17906 -0.47852,-2.40039 0,-1.23563 0.22945,-2.04243 0.48633,-2.41992 0.27295,-0.39226 0.52825,-0.53321 1.14649,-0.53321 z m 10.31445,0.89258 a 1.0001,1.0001 0 0 0 0.22852,0.23633 c -0.0683,0.14934 -0.16675,0.25878 -0.22852,0.41797 z m -33.33008,0.71094 a 1.0001,1.0001 0 0 0 0.42578,0.42578 1.0001,1.0001 0 0 0 -0.42578,0.42578 1.0001,1.0001 0 0 0 -0.42578,-0.42578 1.0001,1.0001 0 0 0 0.42578,-0.42578 z m -13.99609,0.47852 a 1.0001,1.0001 0 0 0 0.33398,0.33398 1.0001,1.0001 0 0 0 -0.33398,0.33398 z m 22.97461,0 a 1.0001,1.0001 0 0 0 0.33398,0.33398 1.0001,1.0001 0 0 0 -0.33398,0.33398 z m -31.93164,4.7246 A 1.0001,1.0001 0 0 0 320.91602,139 h -0.34571 a 1.0001,1.0001 0 0 0 0.17188,-0.17188 z m 56.08789,0.13282 a 1.0001,1.0001 0 0 0 0.0391,0.0391 h -0.0781 a 1.0001,1.0001 0 0 0 0.0391,-0.0391 z"
         id="path15" />
    </g>
    <g
       id="text7-9-3"
       transform="translate(-4.5871634,-5)">
      <path
         style="-inkscape-font-specification:'FiraCode Nerd Font';fill:#afafaf;stroke-linecap:round;stroke-linejoin:round"
         d="m 150.66395,120.86768 q 0,1.5412 -0.66051,2.46974 -0.65094,0.92855 -1.79966,1.34975 -1.14872,0.4212 -2.64206,0.4212 h -1.68479 V 130 h -1.66564 v -13.18156 h 3.36957 q 2.35488,0 3.7142,0.98598 1.36889,0.98599 1.36889,3.06326 z m -1.78052,0.0191 q 0,-1.0147 -0.40205,-1.61778 -0.40205,-0.60308 -1.11043,-0.86154 -0.6988,-0.26803 -1.58906,-0.26803 h -1.90496 v 5.62872 h 1.83795 q 0.91898,0 1.63693,-0.24889 0.71795,-0.24888 1.12,-0.87111 0.41162,-0.63179 0.41162,-1.76137 z m 8.36652,-1.17744 q 2.13471,0 3.22599,1.42633 1.09129,1.42633 1.09129,3.81949 0,1.5412 -0.49778,2.72821 -0.49778,1.18702 -1.46462,1.86667 -0.96684,0.67009 -2.37402,0.67009 -2.13471,0 -3.23556,-1.4359 -1.10086,-1.4359 -1.10086,-3.80992 0,-1.55077 0.49778,-2.73778 0.49778,-1.19659 1.46462,-1.8571 0.97641,-0.67009 2.39316,-0.67009 z m 0,1.31146 q -1.30188,0 -1.97197,0.96684 -0.66051,0.96684 -0.66051,2.98667 0,2.00069 0.65094,2.96753 0.66052,0.95726 1.9624,0.95726 1.30188,0 1.95282,-0.96684 0.66052,-0.96684 0.66052,-2.9771 0,-2.01026 -0.65094,-2.96752 -0.65095,-0.96684 -1.94326,-0.96684 z m 7.7443,8.9792 v -1.23487 h 1.56992 v -7.61027 h -1.56992 v -1.23488 h 2.79522 l 0.29675,2.3836 q 0.58393,-1.24445 1.41676,-1.92411 0.83282,-0.67966 2.20171,-0.67966 0.4212,0 0.74667,0.067 0.33504,0.0574 0.67966,0.15316 l -0.22975,3.40787 h -1.32103 v -2.14428 q -0.0383,0 -0.0862,0 -2.31659,0 -3.32172,3.31215 v 4.26941 h 2.04856 V 130 Z m 19.39423,-0.50735 q -0.51692,0.34461 -1.25402,0.53607 -0.7371,0.19145 -1.44547,0.19145 -1.62736,0 -2.50804,-0.85197 -0.88069,-0.85196 -0.88069,-2.19214 v -6.01163 h -2.31658 v -1.24445 h 2.31658 v -2.28787 l 1.60821,-0.19145 v 2.47932 h 3.48445 l -0.19145,1.24445 h -3.293 v 5.99249 q 0,0.84239 0.44034,1.28274 0.44992,0.44034 1.48377,0.44034 0.56478,0 1.04342,-0.13402 0.47863,-0.13402 0.89026,-0.34462 z"
         id="path10" />
      <path
         style="-inkscape-font-specification:'FiraCode Nerd Font';fill:#afafaf;stroke-linecap:round;stroke-linejoin:round"
         d="m 142.21094,115.81836 a 1.0001,1.0001 0 0 0 -1,1 V 130 a 1.0001,1.0001 0 0 0 1,1 h 1.66601 a 1.0001,1.0001 0 0 0 1,-1 v -3.89258 h 0.68555 c 1.08958,0 2.08902,-0.15145 2.98633,-0.48047 0.93059,-0.34122 1.71968,-0.92679 2.27148,-1.71289 0.59003,-0.8314 0.84375,-1.87821 0.84375,-3.04687 0,-1.60451 -0.60232,-3.02303 -1.78515,-3.875 -1.12792,-0.81669 -2.5911,-1.17383 -4.29883,-1.17383 z m 37.58008,0.62891 -1.60938,0.1914 a 1.0001,1.0001 0 0 0 -0.88086,0.99414 v 1.28711 h -1.31641 a 1.0001,1.0001 0 0 0 -1,1 v 1.24414 a 1.0001,1.0001 0 0 0 1,1 h 1.31641 v 5.01172 c 0,1.1125 0.41009,2.16195 1.18555,2.91211 0.80835,0.782 1.94371,1.13281 3.20312,1.13281 0.56234,0 1.13043,-0.0774 1.69727,-0.22461 0.57765,-0.15004 1.10061,-0.36786 1.55664,-0.67187 a 1.0001,1.0001 0 0 0 0.31445,-1.32617 l -0.62304,-1.0918 a 1.0001,1.0001 0 0 0 -1.32422,-0.39453 c -0.21108,0.10799 -0.44528,0.19874 -0.70508,0.27148 -0.22075,0.0618 -0.47602,0.0977 -0.77344,0.0977 -0.54306,0 -0.74842,-0.12719 -0.77734,-0.1543 -0.0676,-0.0685 -0.14649,-0.18697 -0.14649,-0.57031 v -4.99219 h 2.29297 a 1.0001,1.0001 0 0 0 0.98828,-0.84765 l 0.19141,-1.24414 a 1.0001,1.0001 0 0 0 -0.98828,-1.15235 h -2.48438 v -1.47851 a 1.0001,1.0001 0 0 0 -1.11718,-0.99414 z m -32.07813,1.02148 0.0156,0.006 c -0.003,-0.001 -0.007,-8e-4 -0.01,-0.002 -0.002,-8.3e-4 -0.004,-0.003 -0.006,-0.004 z m 23.99219,1.23047 c -1.0781,0 -2.07084,0.28345 -2.83399,0.90625 -0.0503,0.041 -0.0723,0.12096 -0.12109,0.16406 a 1.0001,1.0001 0 0 0 -0.96094,-0.84961 h -2.79492 a 1.0001,1.0001 0 0 0 -1,1 v 1.23438 a 1.0001,1.0001 0 0 0 1,1 h 0.57031 v 5.61133 h -0.57031 a 1.0001,1.0001 0 0 0 -1,0.99999 V 130 a 1.0001,1.0001 0 0 0 1,1 h 5.22656 a 1.0001,1.0001 0 0 0 1,-1 v -1.23438 a 1.0001,1.0001 0 0 0 -1,-0.99999 h -1.04883 v -3.0625 c 0.29834,-0.93739 0.66551,-1.6119 1.03907,-1.98438 0.11194,-0.11162 0.2572,-0.0802 0.36914,-0.1543 v 0.76368 a 1.0001,1.0001 0 0 0 1,1 h 1.32031 a 1.0001,1.0001 0 0 0 0.99805,-0.9336 l 0.23047,-3.4082 a 1.0001,1.0001 0 0 0 -0.73047,-1.0293 c -0.25336,-0.0704 -0.50467,-0.12612 -0.75586,-0.16992 -0.29763,-0.0605 -0.60709,-0.0879 -0.9375,-0.0879 z m -14.45508,0.01 c -1.10149,0 -2.12033,0.27202 -2.95703,0.84571 -0.81005,0.55339 -1.42724,1.34663 -1.82227,2.29492 -0.39191,0.93457 -0.57617,1.98416 -0.57617,3.125 0,1.73725 0.41083,3.24952 1.30664,4.41797 0.9238,1.20496 2.38194,1.82812 4.0293,1.82812 1.09685,0 2.11211,-0.27349 2.94336,-0.84961 a 1.0001,1.0001 0 0 0 0.006,-0.004 c 0.80258,-0.56418 1.41767,-1.35537 1.8125,-2.29688 0.39154,-0.93368 0.57422,-1.9801 0.57422,-3.11523 0,-1.74744 -0.40534,-3.26249 -1.29688,-4.42774 -0.91873,-1.2008 -2.37367,-1.81836 -4.01953,-1.81836 z m -12.37305,0.42969 h 0.9043 c 0.49315,0 0.89913,0.0753 1.23242,0.20313 a 1.0001,1.0001 0 0 0 0.0137,0.006 c 0.29421,0.10734 0.46685,0.24518 0.6211,0.47656 0.12445,0.18668 0.23437,0.51811 0.23437,1.0625 0,0.63159 -0.12243,1.02203 -0.24804,1.21484 a 1.0001,1.0001 0 0 0 -0.002,0.004 c -0.15376,0.23797 -0.31983,0.36838 -0.60937,0.46875 -0.35388,0.12268 -0.78622,0.19336 -1.3086,0.19336 h -0.83789 z m 34.22852,0.97852 a 1.0001,1.0001 0 0 0 0.42578,0.42578 1.0001,1.0001 0 0 0 -0.42578,0.42578 1.0001,1.0001 0 0 0 -0.42578,-0.42578 1.0001,1.0001 0 0 0 0.42578,-0.42578 z M 157.25,122.02148 c 0.61216,0 0.85053,0.13514 1.11328,0.5254 a 1.0001,1.0001 0 0 0 0.004,0.004 c 0.25093,0.36901 0.47656,1.17206 0.47656,2.4043 0,1.23065 -0.22808,2.0341 -0.48633,2.41211 a 1.0001,1.0001 0 0 0 -0.004,0.006 c -0.26148,0.38836 -0.50268,0.52539 -1.12305,0.52539 -0.62066,0 -0.86987,-0.14109 -1.13477,-0.52344 -0.25445,-0.38102 -0.47851,-1.17906 -0.47851,-2.40039 0,-1.23563 0.22944,-2.04243 0.48633,-2.41992 0.27294,-0.39226 0.52824,-0.53321 1.14648,-0.53321 z m 10.31445,0.89258 a 1.0001,1.0001 0 0 0 0.22657,0.23438 c -0.068,0.14847 -0.16509,0.2578 -0.22657,0.41601 z m -24.35351,1.1875 a 1.0001,1.0001 0 0 0 0.33593,0.33594 1.0001,1.0001 0 0 0 -0.33593,0.33594 z m 24.15625,4.85938 a 1.0001,1.0001 0 0 0 0.0391,0.0391 h -0.0762 a 1.0001,1.0001 0 0 0 0.0371,-0.0391 z"
         id="path11" />
    </g>
    <g
       id="text7-9-0"
       transform="translate(-4.5871634,-5)">
      <path
         style="-inkscape-font-specification:'FiraCode Nerd Font';fill:#afafaf;stroke-linecap:round;stroke-linejoin:round"
         d="m 324.51523,71.818438 v 1.3306 h -2.92924 v 10.520361 h 2.92924 V 85 h -7.54326 v -1.330601 h 2.92924 V 73.149038 h -2.92924 v -1.3306 z m 12.63593,4.049238 q 0,1.541199 -0.66051,2.469748 -0.65095,0.928549 -1.79967,1.349746 -1.14872,0.421197 -2.64205,0.421197 h -1.68479 V 85 h -1.66565 V 71.818438 h 3.36958 q 2.35488,0 3.7142,0.985984 1.36889,0.985985 1.36889,3.063254 z m -1.78052,0.01914 q 0,-1.014703 -0.40205,-1.617781 -0.40205,-0.603078 -1.11043,-0.86154 -0.6988,-0.268034 -1.58906,-0.268034 h -1.90496 v 5.628728 h 1.83795 q 0.91898,0 1.63693,-0.248889 0.71795,-0.24889 1.12,-0.871113 0.41162,-0.631796 0.41162,-1.761371 z m 9.0749,-1.330601 v 3.819495 h 3.76206 v 1.349746 h -3.76206 v 3.790776 h -1.50291 v -3.790776 h -3.71419 V 78.37571 h 3.71419 v -3.81949 z m 15.68004,1.311456 q 0,1.541199 -0.66052,2.469748 -0.65094,0.928549 -1.79966,1.349746 -1.14872,0.421197 -2.64206,0.421197 h -1.68479 V 85 h -1.66564 V 71.818438 h 3.36958 q 2.35487,0 3.71419,0.985984 1.3689,0.985985 1.3689,3.063254 z m -1.78052,0.01914 q 0,-1.014703 -0.40205,-1.617781 -0.40206,-0.603078 -1.11043,-0.86154 -0.69881,-0.268034 -1.58907,-0.268034 h -1.90496 v 5.628728 h 1.83796 q 0.91897,0 1.63692,-0.248889 0.71795,-0.24889 1.12,-0.871113 0.41163,-0.631796 0.41163,-1.761371 z m 8.36652,-1.177438 q 2.1347,0 3.22599,1.426327 1.09128,1.426328 1.09128,3.819495 0,1.541199 -0.49778,2.72821 -0.49778,1.18701 -1.46462,1.86667 -0.96683,0.670086 -2.37402,0.670086 -2.1347,0 -3.23556,-1.4359 -1.10085,-1.4359 -1.10085,-3.809921 0,-1.550772 0.49777,-2.737783 0.49778,-1.196583 1.46462,-1.857097 0.97641,-0.670087 2.39317,-0.670087 z m 0,1.311455 q -1.30188,0 -1.97197,0.96684 -0.66051,0.966839 -0.66051,2.986672 0,2.000687 0.65094,2.967527 0.66051,0.957266 1.96239,0.957266 1.30189,0 1.95283,-0.966839 0.66051,-0.966839 0.66051,-2.977099 0,-2.01026 -0.65094,-2.967527 -0.65094,-0.96684 -1.94325,-0.96684 z M 374.45588,85 v -1.234874 h 1.56991 v -7.61027 h -1.56991 v -1.234874 h 2.79521 l 0.29676,2.383594 q 0.58393,-1.244447 1.41675,-1.924106 0.83282,-0.67966 2.20171,-0.67966 0.4212,0 0.74667,0.06701 0.33505,0.05744 0.67966,0.153163 l -0.22974,3.407869 h -1.32103 v -2.144277 q -0.0383,0 -0.0862,0 -2.31659,0 -3.32172,3.312143 v 4.269409 h 2.04855 V 85 Z m 19.39422,-0.507351 q -0.51692,0.344616 -1.25402,0.536069 -0.73709,0.191453 -1.44547,0.191453 -1.62735,0 -2.50804,-0.851967 -0.88068,-0.851967 -0.88068,-2.192141 v -6.011635 h -2.31659 v -1.244446 h 2.31659 v -2.287868 l 1.60821,-0.191453 v 2.479321 h 3.48445 l -0.19146,1.244446 h -3.29299 v 5.99249 q 0,0.842395 0.44034,1.282737 0.44991,0.440343 1.48376,0.440343 0.56479,0 1.04342,-0.134017 0.47864,-0.134018 0.89026,-0.344616 z"
         id="path12" />
      <path
         style="-inkscape-font-specification:'FiraCode Nerd Font';fill:#afafaf;stroke-linecap:round;stroke-linejoin:round"
         d="m 316.97266,70.818359 a 1.0001,1.0001 0 0 0 -1,1 v 1.330078 a 1.0001,1.0001 0 0 0 1,1 h 1.92773 v 8.521485 h -1.92773 a 1.0001,1.0001 0 0 0 -1,1 V 85 a 1.0001,1.0001 0 0 0 1,1 h 7.54296 a 1.0001,1.0001 0 0 0 1,-1 v -1.330078 a 1.0001,1.0001 0 0 0 -1,-1 h -1.92968 v -8.521485 h 1.92968 a 1.0001,1.0001 0 0 0 1,-1 v -1.330078 a 1.0001,1.0001 0 0 0 -1,-1 z m 11.72656,0 a 1.0001,1.0001 0 0 0 -1,1 V 85 a 1.0001,1.0001 0 0 0 1,1 h 1.66406 a 1.0001,1.0001 0 0 0 1,-1 v -3.892578 h 0.68555 c 1.08957,0 2.08902,-0.151455 2.98633,-0.480469 0.93059,-0.341217 1.71967,-0.926798 2.27148,-1.712891 0.59002,-0.831408 0.84375,-1.87821 0.84375,-3.046875 0,-1.603472 -0.59993,-3.020894 -1.78125,-3.873046 -1.12838,-0.818474 -2.59129,-1.175782 -4.30078,-1.175782 z m 22.97461,0 a 1.0001,1.0001 0 0 0 -1,1 V 85 a 1.0001,1.0001 0 0 0 1,1 h 1.66406 a 1.0001,1.0001 0 0 0 1,-1 v -3.892578 h 0.68555 c 1.08957,0 2.08901,-0.151455 2.98633,-0.480469 0.93059,-0.341217 1.71967,-0.926795 2.27148,-1.712891 0.59003,-0.831408 0.84375,-1.878209 0.84375,-3.046875 0,-1.603473 -0.59992,-3.020897 -1.78125,-3.873046 -1.12838,-0.818473 -2.5913,-1.175782 -4.30078,-1.175782 z m 37.57812,0.628907 -1.60742,0.191406 a 1.0001,1.0001 0 0 0 -0.88281,0.99414 v 1.28711 h -1.31641 a 1.0001,1.0001 0 0 0 -1,1 v 1.24414 a 1.0001,1.0001 0 0 0 1,1 h 1.31641 v 5.011719 c 0,1.112496 0.4101,2.161945 1.18555,2.91211 0.80835,0.781987 1.94371,1.132812 3.20312,1.132812 0.56234,0 1.13043,-0.07738 1.69727,-0.224609 0.57765,-0.150039 1.10061,-0.367853 1.55664,-0.671875 a 1.0001,1.0001 0 0 0 0.31445,-1.326172 L 394.0957,82.90625 a 1.0001,1.0001 0 0 0 -1.32422,-0.394531 c -0.21106,0.107988 -0.44332,0.198741 -0.70312,0.271484 -0.22074,0.06181 -0.47601,0.09766 -0.77344,0.09766 -0.54307,0 -0.75039,-0.127195 -0.7793,-0.154297 -0.0676,-0.06849 -0.14648,-0.186968 -0.14648,-0.570312 v -4.992188 h 2.29492 a 1.0001,1.0001 0 0 0 0.98828,-0.847656 l 0.19141,-1.24414 a 1.0001,1.0001 0 0 0 -0.98828,-1.152344 h -2.48633 V 72.44141 a 1.0001,1.0001 0 0 0 -1.11719,-0.99414 z m -55.05078,1.021484 0.0156,0.0059 c -0.003,-0.0012 -0.007,-8.03e-4 -0.01,-0.002 -0.002,-8.26e-4 -0.004,-0.0031 -0.006,-0.0039 z m 22.97461,0 0.0156,0.0059 c -0.003,-0.0012 -0.007,-8.03e-4 -0.01,-0.002 -0.002,-8.26e-4 -0.004,-0.0031 -0.006,-0.0039 z m -36.60547,0.349609 h 0.34571 a 1.0001,1.0001 0 0 0 -0.17383,0.173828 1.0001,1.0001 0 0 0 -0.17188,-0.173828 z m 22.37305,0.738282 a 1.0001,1.0001 0 0 0 -1,1 V 77.375 h -2.71484 a 1.0001,1.0001 0 0 0 -1,1 v 1.349609 a 1.0001,1.0001 0 0 0 1,1 h 2.71484 v 2.791016 a 1.0001,1.0001 0 0 0 1,1 h 1.50195 a 1.0001,1.0001 0 0 0 1,-1 v -2.791016 h 2.76172 a 1.0001,1.0001 0 0 0 1,-1 V 78.375 a 1.0001,1.0001 0 0 0 -1,-1 h -2.76172 v -2.818359 a 1.0001,1.0001 0 0 0 -1,-1 z m 38.22266,0.142578 c -1.0781,0 -2.07084,0.283451 -2.83399,0.90625 -0.0499,0.0407 -0.0727,0.119353 -0.12109,0.162109 a 1.0001,1.0001 0 0 0 -0.95899,-0.847656 h -2.79687 a 1.0001,1.0001 0 0 0 -1,1 v 1.234375 a 1.0001,1.0001 0 0 0 1,1 h 0.57031 v 5.611328 h -0.57031 a 1.0001,1.0001 0 0 0 -1,1 V 85 a 1.0001,1.0001 0 0 0 1,1 h 5.22656 a 1.0001,1.0001 0 0 0 1,-1 v -1.234375 a 1.0001,1.0001 0 0 0 -1,-1 h -1.04687 v -3.0625 c 0.29833,-0.937333 0.66551,-1.609951 1.03906,-1.982422 0.11152,-0.111201 0.25568,-0.08033 0.36719,-0.154297 v 0.761719 a 1.0001,1.0001 0 0 0 1,1 h 1.32226 a 1.0001,1.0001 0 0 0 0.99805,-0.933594 l 0.22851,-3.408203 a 1.0001,1.0001 0 0 0 -0.73047,-1.029297 c -0.25343,-0.0704 -0.50459,-0.128047 -0.75585,-0.171875 -0.29704,-0.0602 -0.60782,-0.08594 -0.9375,-0.08594 z m -14.45508,0.0098 c -1.10149,0 -2.12033,0.272016 -2.95703,0.845703 -0.81005,0.553396 -1.42724,1.346635 -1.82227,2.294922 -0.39191,0.934565 -0.57617,1.984158 -0.57617,3.125 0,1.73725 0.41279,3.249518 1.30859,4.417969 0.9238,1.204955 2.38195,1.828125 4.0293,1.828125 1.09686,0 2.11212,-0.273497 2.94336,-0.849609 a 1.0001,1.0001 0 0 0 0.004,-0.0039 c 0.80258,-0.564185 1.41768,-1.355372 1.8125,-2.296875 0.39155,-0.933682 0.57618,-1.980107 0.57618,-3.115234 0,-1.747444 -0.40535,-3.262485 -1.29688,-4.427734 -0.91874,-1.200801 -2.37563,-1.81836 -4.02148,-1.81836 z m -35.34766,0.429688 h 0.90625 c 0.49315,0 0.89718,0.07529 1.23047,0.203125 a 1.0001,1.0001 0 0 0 0.0156,0.0059 c 0.29421,0.107347 0.46685,0.24519 0.6211,0.476563 0.12445,0.186674 0.23437,0.518106 0.23437,1.0625 0,0.631582 -0.12437,1.022027 -0.25,1.214843 a 1.0001,1.0001 0 0 0 -0.002,0.0039 c -0.15376,0.237967 -0.31787,0.368373 -0.60742,0.46875 -0.35388,0.122676 -0.78817,0.193359 -1.31055,0.193359 h -0.83789 z m 22.97461,0 h 0.90625 c 0.49315,0 0.89717,0.07528 1.23047,0.203125 a 1.0001,1.0001 0 0 0 0.0156,0.0059 c 0.29421,0.107346 0.46684,0.245181 0.6211,0.476563 0.12445,0.186674 0.23437,0.518106 0.23437,1.0625 0,0.631579 -0.12437,1.022028 -0.25,1.214843 a 1.0001,1.0001 0 0 0 -0.002,0.0039 c -0.15376,0.237967 -0.31788,0.368373 -0.60742,0.46875 -0.35388,0.122676 -0.78818,0.193359 -1.31055,0.193359 h -0.83789 z m 34.22852,0.978515 a 1.0001,1.0001 0 0 0 0.42578,0.425782 1.0001,1.0001 0 0 0 -0.42578,0.425781 1.0001,1.0001 0 0 0 -0.42579,-0.425781 1.0001,1.0001 0 0 0 0.42579,-0.425782 z m -21.85547,1.904297 c 0.61215,0 0.85249,0.135141 1.11523,0.525391 a 1.0001,1.0001 0 0 0 0.002,0.0039 c 0.25094,0.36902 0.47852,1.17206 0.47852,2.404297 0,1.23065 -0.22809,2.036057 -0.48633,2.414063 a 1.0001,1.0001 0 0 0 -0.004,0.0039 c -0.26148,0.388364 -0.50267,0.525391 -1.12305,0.52539 -0.62066,0 -0.87182,-0.141081 -1.13672,-0.523437 -0.25446,-0.381019 -0.47852,-1.179066 -0.47852,-2.400391 0,-1.236592 0.2292,-2.042808 0.48633,-2.419922 0.27295,-0.392256 0.52825,-0.533203 1.14649,-0.533203 z m 10.31445,0.892578 a 1.0001,1.0001 0 0 0 0.22852,0.236329 c -0.0683,0.149335 -0.16675,0.258779 -0.22852,0.417968 z M 343.69531,78.625 a 1.0001,1.0001 0 0 0 0.42578,0.425781 1.0001,1.0001 0 0 0 -0.42578,0.425781 1.0001,1.0001 0 0 0 -0.42578,-0.425781 1.0001,1.0001 0 0 0 0.42578,-0.425781 z m -13.99609,0.478516 a 1.0001,1.0001 0 0 0 0.33398,0.333984 1.0001,1.0001 0 0 0 -0.33398,0.333984 z m 22.97461,0 a 1.0001,1.0001 0 0 0 0.33398,0.333984 1.0001,1.0001 0 0 0 -0.33398,0.333984 z m -31.93164,4.724609 A 1.0001,1.0001 0 0 0 320.91602,84 h -0.34571 a 1.0001,1.0001 0 0 0 0.17188,-0.171875 z m 56.08789,0.132812 A 1.0001,1.0001 0 0 0 376.86914,84 h -0.0781 a 1.0001,1.0001 0 0 0 0.0391,-0.03906 z"
         id="path13" />
    </g>
  </g>
</svg>
