<?xml version="1.0" encoding="UTF-8" standalone="no"?>
<!-- Created with Inkscape (http://www.inkscape.org/) -->

<svg
   width="80"
   height="80"
   viewBox="0 0 80 80"
   version="1.1"
   id="svg1"
   inkscape:version="1.4 (1:1.4+202410161351+e7c3feb100)"
   sodipodi:docname="emoji0.svg"
   inkscape:export-filename="maker.png"
   inkscape:export-xdpi="96"
   inkscape:export-ydpi="96"
   xmlns:inkscape="http://www.inkscape.org/namespaces/inkscape"
   xmlns:sodipodi="http://sodipodi.sourceforge.net/DTD/sodipodi-0.dtd"
   xmlns="http://www.w3.org/2000/svg"
   xmlns:svg="http://www.w3.org/2000/svg">
  <sodipodi:namedview
     id="namedview1"
     pagecolor="#ffffff"
     bordercolor="#000000"
     borderopacity="0.25"
     inkscape:showpageshadow="2"
     inkscape:pageopacity="0.0"
     inkscape:pagecheckerboard="0"
     inkscape:deskcolor="#d1d1d1"
     inkscape:document-units="px"
     showgrid="true"
     inkscape:zoom="4.0466589"
     inkscape:cx="0.49423489"
     inkscape:cy="31.754591"
     inkscape:window-width="1920"
     inkscape:window-height="1011"
     inkscape:window-x="1920"
     inkscape:window-y="32"
     inkscape:window-maximized="1"
     inkscape:current-layer="layer1">
    <inkscape:grid
       id="grid1"
       units="px"
       originx="0"
       originy="0"
       spacingx="1"
       spacingy="1"
       empcolor="#0099e5"
       empopacity="0.30196078"
       color="#0099e5"
       opacity="0.14901961"
       empspacing="5"
       enabled="true"
       visible="true" />
  </sodipodi:namedview>
  <defs
     id="defs1" />
  <g
     inkscape:label="Layer 1"
     inkscape:groupmode="layer"
     id="layer1">
    <path
       id="path1"
       style="fill:#b1b1b1;stroke-width:1.66667"
       d="M 40 5 A 25 25 0 0 0 15 30 A 25 25 0 0 0 17.119141 40.009766 C 18.783397 37.584806 21.574042 36 24.75 36 C 27.783086 36 30.457707 37.451132 32.142578 39.693359 A 5 10 0 0 1 37 32 A 5 10 0 0 1 41.980469 41.111328 C 43.495284 38.078538 46.617129 36 50.25 36 C 55.3745 36 59.5 40.1255 59.5 45.25 L 59.5 45.5625 A 25 25 0 0 0 65 30 A 25 25 0 0 0 40 5 z M 30 10 A 5 7.5 0 0 1 35 17.5 A 5 7.5 0 0 1 30 25 A 5 7.5 0 0 1 25 17.5 A 5 7.5 0 0 1 30 10 z M 45 10 A 5 7.5 0 0 1 50 17.5 A 5 7.5 0 0 1 45 25 A 5 7.5 0 0 1 40 17.5 A 5 7.5 0 0 1 45 10 z M 25.023438 22.751953 A 0.25 0.25 0 0 1 25.191406 22.839844 C 26.831836 24.808359 28.433333 25.75 30 25.75 C 31.566667 25.75 33.168164 24.808359 34.808594 22.839844 A 0.25 0.25 0 0 1 35.160156 22.808594 A 0.25 0.25 0 0 1 35.191406 23.160156 C 33.498503 25.191641 31.766667 26.25 30 26.25 C 28.233333 26.25 26.501497 25.191642 24.808594 23.160156 A 0.25 0.25 0 0 1 24.839844 22.808594 A 0.25 0.25 0 0 1 25.023438 22.751953 z M 40.023438 22.751953 A 0.25 0.25 0 0 1 40.191406 22.839844 C 41.831836 24.808359 43.433333 25.75 45 25.75 C 46.566667 25.75 48.168164 24.808359 49.808594 22.839844 A 0.25 0.25 0 0 1 50.160156 22.808594 A 0.25 0.25 0 0 1 50.191406 23.160156 C 48.498503 25.191641 46.766667 26.25 45 26.25 C 43.233333 26.25 41.501497 25.191642 39.808594 23.160156 A 0.25 0.25 0 0 1 39.839844 22.808594 A 0.25 0.25 0 0 1 40.023438 22.751953 z M 41 47.988281 A 5 10 0 0 1 37 52 A 5 10 0 0 1 34 49.990234 L 34 54.214844 A 25 25 0 0 0 40 55 A 25 25 0 0 0 41 54.927734 L 41 47.988281 z " />
    <rect
       style="fill:#b1b1b1;fill-opacity:1;stroke-width:1.16667"
       id="rect5-6"
       width="17.5"
       height="35"
       x="41.5"
       y="37"
       rx="8.75"
       ry="8.75" />
    <rect
       style="fill:#b1b1b1;fill-opacity:1;stroke-width:1.16667"
       id="rect5-61"
       width="17.5"
       height="35"
       x="16"
       y="37"
       rx="8.75"
       ry="8.75" />
    <circle
       style="fill:#b1b1b1;fill-opacity:1;stroke:none;stroke-width:0.5;stroke-linecap:round;stroke-dasharray:none;stroke-opacity:1"
       id="path6"
       cx="29"
       cy="20.5"
       r="2.5" />
    <circle
       style="fill:#b1b1b1;fill-opacity:1;stroke:none;stroke-width:0.5;stroke-linecap:round;stroke-dasharray:none;stroke-opacity:1"
       id="path6-6"
       cx="44"
       cy="20.5"
       r="2.5" />
  </g>
</svg>
